<svg width="44" height="48" viewBox="0 0 44 48" fill="none" xmlns="http://www.w3.org/2000/svg">
<g clip-path="url(#clip0_35_650)">
<path fill-rule="evenodd" clip-rule="evenodd" d="M20.7297 0.327182C21.5159 -0.108247 22.4839 -0.108247 23.269 0.327182C27.1537 2.47918 38.8438 8.95689 42.7297 11.1089C43.5159 11.5432 43.9999 12.3477 43.9999 13.2186C43.9999 17.5226 43.9999 30.4769 43.9999 34.7809C43.9999 35.6517 43.5159 36.4563 42.7297 36.8917C38.845 39.0437 27.1549 45.5214 23.269 47.6734C22.4828 48.1089 21.5148 48.1089 20.7297 47.6734C16.845 45.5214 5.15493 39.0437 1.26905 36.8917C0.483999 36.4563 0 35.6529 0 34.782C0 30.478 0 17.5237 0 13.2197C0 12.3489 0.483999 11.5443 1.27021 11.1089C5.15378 8.95689 16.8462 2.47918 20.7297 0.327182Z" fill="#004482"/>
<path fill-rule="evenodd" clip-rule="evenodd" d="M0.351999 35.8906C0.0439999 35.4837 0 35.0974 0 34.5774C0 30.2986 0 17.4186 0 13.1386C0 12.2723 0.482841 11.4723 1.26673 11.0403C5.13757 8.90089 16.7883 2.46089 20.6591 0.320322C21.443 -0.112821 22.5048 -0.103678 23.2887 0.329465C27.1595 2.46889 38.7709 8.85403 42.6417 10.9935C42.9543 11.1672 43.1928 11.3763 43.4059 11.6517L0.351999 35.8906Z" fill="#659AD2"/>
<path fill-rule="evenodd" clip-rule="evenodd" d="M22 8.00031C30.947 8.00031 38.2105 15.1695 38.2105 24.0003C38.2105 32.8312 30.947 40.0003 22 40.0003C13.0529 40.0003 5.78949 32.8312 5.78949 24.0003C5.78949 15.1695 13.0529 8.00031 22 8.00031ZM22 16.0003C26.4729 16.0003 30.1052 19.5843 30.1052 24.0003C30.1052 28.4152 26.4729 32.0003 22 32.0003C17.527 32.0003 13.8947 28.4152 13.8947 24.0003C13.8947 19.5843 17.5259 16.0003 22 16.0003Z" fill="white"/>
<path fill-rule="evenodd" clip-rule="evenodd" d="M43.4036 11.6632C44.0011 12.2152 43.9895 13.0472 43.9895 13.702C43.9895 18.0392 43.9524 30.3752 43.9999 34.7123C44.0045 35.1649 43.8528 35.6414 43.6259 36.0003L21.5287 24.0003L43.4036 11.6632Z" fill="#00599C"/>
</g>
<defs>
<clipPath id="clip0_35_650">
<rect width="44" height="48" fill="white"/>
</clipPath>
</defs>
</svg>
