<svg width="100" height="100" viewBox="0 0 100 100" fill="none" xmlns="http://www.w3.org/2000/svg">
<rect width="100" height="100" rx="8" fill="#00599C"/>
<rect x="12.5" y="30.5" width="9" height="59" rx="1.5" fill="#659AD2" stroke="white"/>
<rect x="23.5" y="20.5" width="9" height="69" rx="1.5" fill="#659AD2" stroke="white"/>
<rect x="34.5" y="10.5" width="9" height="79" rx="1.5" fill="#004482"/>
<rect x="34.5" y="10.5" width="9" height="79" rx="1.5" stroke="white"/>
<path d="M41.5 59.757C41.5 59.8107 41.4848 59.8573 41.4545 59.897L40.933 60.4675L40.1805 61.045C40.1478 61.0707 40.128 61.087 40.121 61.094C40.1117 61.101 40.0907 61.1045 40.058 61.1045H38.273C38.2403 61.1045 38.2193 61.101 38.21 61.094C38.2007 61.0847 38.1808 61.0683 38.1505 61.045L37.4575 60.5095L36.88 59.897C36.859 59.8713 36.8462 59.8515 36.8415 59.8375C36.8368 59.8212 36.8345 59.7943 36.8345 59.757V58.8925C36.8345 58.8342 36.8637 58.805 36.922 58.805H37.482C37.5007 58.805 37.5205 58.8073 37.5415 58.812C37.5602 58.8143 37.5765 58.826 37.5905 58.847L38.042 59.505L38.595 59.9355H39.7395L40.2925 59.498L40.7405 58.847C40.7522 58.8283 40.7662 58.8167 40.7825 58.812C40.7988 58.8073 40.8163 58.805 40.835 58.805H41.4125C41.4708 58.805 41.5 58.8342 41.5 58.8925V59.757ZM41.5 57.2519C41.5 57.3055 41.4802 57.3522 41.4405 57.3919L40.7405 58.0919C40.7032 58.1315 40.6565 58.1514 40.6005 58.1514H38.5495C38.4935 58.1514 38.4468 58.1315 38.4095 58.0919L37.7095 57.3919C37.6698 57.3522 37.65 57.3055 37.65 57.2519V56.1914C37.65 56.1354 37.6698 56.0887 37.7095 56.0514L38.4095 55.3514C38.4468 55.3117 38.4935 55.2919 38.5495 55.2919H40.6005C40.6565 55.2919 40.7032 55.3117 40.7405 55.3514L41.4405 56.0514C41.4802 56.0887 41.5 56.1354 41.5 56.1914V57.2519ZM40.6845 56.8424V56.5974C40.6845 56.5227 40.6693 56.4714 40.639 56.4434C40.6087 56.4154 40.555 56.4014 40.478 56.4014H38.672C38.595 56.4014 38.5413 56.4154 38.511 56.4434C38.4807 56.4714 38.4655 56.5227 38.4655 56.5974V56.8424C38.4655 56.9194 38.4807 56.9719 38.511 56.9999C38.5413 57.0279 38.595 57.0419 38.672 57.0419H40.478C40.555 57.0419 40.6087 57.0279 40.639 56.9999C40.6693 56.9719 40.6845 56.9194 40.6845 56.8424ZM37.4785 57.0804C37.4995 57.1247 37.489 57.1562 37.447 57.1749L37.1845 57.2974C37.1425 57.3137 37.1075 57.3009 37.0795 57.2589L36.544 56.4329C36.5183 56.3909 36.5335 56.3594 36.5895 56.3384L37.006 56.1389C37.0457 56.1202 37.0772 56.133 37.1005 56.1774L37.4785 57.0804ZM41.5 53.6015C41.5 53.6552 41.4802 53.7018 41.4405 53.7415L40.7405 54.4415C40.7032 54.4812 40.6565 54.501 40.6005 54.501H38.5495C38.4935 54.501 38.4468 54.4812 38.4095 54.4415L37.7095 53.7415C37.6698 53.7018 37.65 53.6552 37.65 53.6015V53.066C37.65 53.01 37.6698 52.9633 37.7095 52.926L37.8845 52.751H36.922C36.8637 52.751 36.8345 52.7218 36.8345 52.6635V51.729C36.8345 51.6707 36.8637 51.6415 36.922 51.6415H41.4125C41.4708 51.6415 41.5 51.6707 41.5 51.729V52.457C41.5 52.4873 41.4942 52.5107 41.4825 52.527C41.4708 52.541 41.4568 52.5573 41.4405 52.576L41.2655 52.751L41.4405 52.926C41.4802 52.9633 41.5 53.01 41.5 53.066V53.6015ZM40.6845 53.192V52.947C40.6845 52.8723 40.6693 52.821 40.639 52.793C40.6087 52.765 40.555 52.751 40.478 52.751H38.4655V53.192C38.4655 53.269 38.4807 53.3215 38.511 53.3495C38.5413 53.3775 38.595 53.3915 38.672 53.3915H40.478C40.555 53.3915 40.6087 53.3775 40.639 53.3495C40.6693 53.3215 40.6845 53.269 40.6845 53.192ZM41.5 50.7386C41.5 50.7969 41.4708 50.8261 41.4125 50.8261H37.7375C37.6792 50.8261 37.65 50.7969 37.65 50.7386V49.8076C37.65 49.7493 37.6792 49.7201 37.7375 49.7201H41.4125C41.4708 49.7201 41.5 49.7493 41.5 49.8076V50.7386ZM37.3595 50.7561C37.3595 50.8028 37.3362 50.8261 37.2895 50.8261H36.845C36.7983 50.8261 36.775 50.8028 36.775 50.7561V49.7831C36.775 49.7411 36.7983 49.7201 36.845 49.7201H37.2895C37.3362 49.7201 37.3595 49.7411 37.3595 49.7831V50.7561ZM42.6655 47.9182C42.6655 47.9765 42.6363 48.0057 42.578 48.0057H42.032C41.9853 48.0057 41.9597 47.9882 41.955 47.9532L41.8255 47.4422L41.633 47.0782C41.6143 47.0432 41.5782 47.0257 41.5245 47.0257H40.9505L41.255 47.3547C41.2947 47.3944 41.3145 47.441 41.3145 47.4947L41.3355 48.0897C41.3355 48.1434 41.3168 48.19 41.2795 48.2297L40.6355 48.8702C40.5982 48.9099 40.5515 48.9297 40.4955 48.9297H38.5495C38.4935 48.9297 38.4468 48.9099 38.4095 48.8702L37.7095 48.1702C37.6698 48.1305 37.65 48.0839 37.65 48.0302V46.1577C37.65 46.0994 37.6792 46.0702 37.7375 46.0702H41.9445C42.0075 46.0702 42.0542 46.09 42.0845 46.1297L42.382 46.5952L42.627 47.1832C42.641 47.2182 42.6503 47.245 42.655 47.2637C42.662 47.28 42.6655 47.308 42.6655 47.3477V47.9182ZM40.5795 47.6207V47.3757C40.5795 47.301 40.5643 47.2497 40.534 47.2217C40.5037 47.1937 40.45 47.1797 40.373 47.1797H38.4655V47.6207C38.4655 47.6977 38.4807 47.7502 38.511 47.7782C38.5413 47.8062 38.595 47.8202 38.672 47.8202H40.373C40.45 47.8202 40.5037 47.8062 40.534 47.7782C40.5643 47.7502 40.5795 47.6977 40.5795 47.6207ZM41.5 44.3798C41.5 44.4335 41.4802 44.4801 41.4405 44.5198L40.7405 45.2198C40.7032 45.2595 40.6565 45.2793 40.6005 45.2793H38.5495C38.4935 45.2793 38.4468 45.2595 38.4095 45.2198L37.7095 44.5198C37.6698 44.4801 37.65 44.4335 37.65 44.3798V43.3193C37.65 43.2633 37.6698 43.2166 37.7095 43.1793L38.4095 42.4793C38.4468 42.4396 38.4935 42.4198 38.5495 42.4198H40.6005C40.6565 42.4198 40.7032 42.4396 40.7405 42.4793L41.4405 43.1793C41.4802 43.2166 41.5 43.2633 41.5 43.3193V44.3798ZM40.6845 43.9703V43.7253C40.6845 43.6506 40.6693 43.5993 40.639 43.5713C40.6087 43.5433 40.555 43.5293 40.478 43.5293H38.672C38.595 43.5293 38.5413 43.5433 38.511 43.5713C38.4807 43.5993 38.4655 43.6506 38.4655 43.7253V43.9703C38.4655 44.0473 38.4807 44.0998 38.511 44.1278C38.5413 44.1558 38.595 44.1698 38.672 44.1698H40.478C40.555 44.1698 40.6087 44.1558 40.639 44.1278C40.6693 44.0998 40.6845 44.0473 40.6845 43.9703ZM41.5 41.6254C41.5 41.6837 41.4708 41.7129 41.4125 41.7129H40.8455C40.7918 41.7129 40.7568 41.6954 40.7405 41.6604L40.317 40.9464H39.953L39.568 41.6604C39.547 41.6954 39.5108 41.7129 39.4595 41.7129H38.343C38.3173 41.7129 38.2963 41.7094 38.28 41.7024C38.2637 41.6931 38.2497 41.6802 38.238 41.6639L37.692 40.9184C37.6733 40.8927 37.6617 40.8717 37.657 40.8554C37.6523 40.8391 37.65 40.8227 37.65 40.8064V39.9559C37.65 39.8976 37.6792 39.8684 37.7375 39.8684H38.287C38.3267 39.8684 38.3535 39.8719 38.3675 39.8789C38.3815 39.8836 38.3932 39.8952 38.4025 39.9139L38.7595 40.5754H39.1655L39.5155 39.8684C39.5318 39.8287 39.5668 39.8089 39.6205 39.8089H40.695C40.7533 39.8089 40.8 39.8287 40.835 39.8684L41.4545 40.6139C41.4848 40.6512 41.5 40.6979 41.5 40.7539V41.6254Z" fill="white"/>
<rect x="45.5" y="40.5" width="9" height="49" rx="1.5" fill="#004482"/>
<rect x="45.5" y="40.5" width="9" height="49" rx="1.5" stroke="white"/>
<path d="M52.563 69.52L47.95 69.849L47.852 66.762L48.321 66.783L48.496 68.26L49.945 68.442L49.931 66.951L50.561 66.916L50.442 68.498L52.003 68.687L51.779 66.755L52.5 66.783L52.563 69.52ZM52.605 63.3287L49.154 64.8477V64.8897L52.5 65.0017L52.535 65.7017L47.95 65.3727L47.88 63.6787L51.212 62.9717L47.845 62.1527L47.95 60.4587L52.5 60.2487L52.605 60.8787L48.881 61.8797V61.9357L52.5 62.6987L52.605 63.3287Z" fill="white"/>
<rect x="56.5" y="60.5" width="9" height="29" rx="1.5" fill="#004482"/>
<rect x="56.5" y="60.5" width="9" height="29" rx="1.5" stroke="white"/>
<path d="M63.6401 74.8862C63.6401 74.5399 63.5615 74.1855 63.4043 73.8232C63.2448 73.4587 63.0112 73.1704 62.7036 72.9585C62.674 72.9585 62.6489 72.9722 62.6284 72.9995C62.6079 73.0246 62.5977 73.0531 62.5977 73.085C63.0124 73.4268 63.2197 73.9292 63.2197 74.5923C63.2197 75.2918 63.009 75.8205 62.5874 76.1782C62.1636 76.5337 61.6372 76.7114 61.0083 76.7114C60.7235 76.7114 60.4489 76.6807 60.1846 76.6191C59.918 76.5553 59.6639 76.4574 59.4224 76.3252C59.1785 76.1908 58.9814 76.0005 58.8311 75.7544C58.6807 75.506 58.6055 75.2166 58.6055 74.8862C58.6055 74.6606 58.6408 74.4521 58.7114 74.2607C58.7821 74.0693 58.8652 73.9121 58.9609 73.7891C59.0566 73.666 59.1854 73.5464 59.3472 73.4302C59.5067 73.3117 59.6457 73.2228 59.7642 73.1636C59.8804 73.1021 60.0285 73.0291 60.2085 72.9448C60.1994 72.8765 60.1743 72.8343 60.1333 72.8184C59.4565 72.987 58.9928 73.2422 58.7422 73.584C58.4893 73.9235 58.3628 74.3576 58.3628 74.8862C58.3628 75.1004 58.389 75.3192 58.4414 75.5425C58.4915 75.7658 58.5827 75.9959 58.7148 76.2329C58.8447 76.4676 59.0065 76.675 59.2002 76.855C59.3916 77.035 59.6445 77.1831 59.959 77.2993C60.2712 77.4155 60.6209 77.4736 61.0083 77.4736C61.3957 77.4736 61.7454 77.4155 62.0576 77.2993C62.3698 77.1831 62.6216 77.035 62.813 76.855C63.0044 76.675 63.165 76.4676 63.2949 76.2329C63.4225 75.9959 63.5114 75.7658 63.5615 75.5425C63.6139 75.3192 63.6401 75.1004 63.6401 74.8862ZM60.3623 73.0303C60.1436 73.1283 59.9635 73.2183 59.8223 73.3003C59.6787 73.3823 59.5192 73.4917 59.3438 73.6284C59.166 73.7651 59.0282 73.9281 58.9302 74.1172C58.8322 74.3063 58.7729 74.5182 58.7524 74.7529C58.7729 75.0127 58.8561 75.2394 59.002 75.4331C59.1455 75.6268 59.3301 75.7772 59.5557 75.8843C59.7812 75.9891 60.016 76.0666 60.2598 76.1167C60.5013 76.1646 60.7508 76.1885 61.0083 76.1885C61.5825 76.1885 62.0645 76.0438 62.4541 75.7544C62.8438 75.465 63.0522 75.0332 63.0796 74.459C63.0522 73.903 62.8449 73.4666 62.4575 73.1499C62.4575 73.061 62.4871 72.9836 62.5464 72.9175C62.6034 72.8514 62.6717 72.8184 62.7515 72.8184C63.0864 73.0485 63.3416 73.3595 63.5171 73.7515C63.6925 74.1434 63.7803 74.5216 63.7803 74.8862C63.7803 75.1141 63.7529 75.3454 63.6982 75.5801C63.6458 75.8125 63.5524 76.054 63.418 76.3047C63.2812 76.5531 63.1115 76.7729 62.9087 76.9644C62.7059 77.1558 62.4404 77.3118 62.1123 77.4326C61.7819 77.5534 61.4139 77.6138 61.0083 77.6138C60.5845 77.6138 60.2062 77.5511 59.8735 77.4258C59.5386 77.3005 59.2708 77.1398 59.0703 76.9438C58.8698 76.7479 58.7035 76.5189 58.5713 76.2568C58.4368 75.9948 58.3457 75.7407 58.2979 75.4946C58.2477 75.2463 58.2227 74.9967 58.2227 74.7461C58.2227 74.4043 58.2682 74.0329 58.3594 73.6318C58.4505 73.2308 58.5075 72.9437 58.5303 72.7705C58.8242 72.8457 59.0828 72.8753 59.3062 72.8594C59.5272 72.8434 59.7983 72.7785 60.1196 72.6646C60.2541 72.7306 60.335 72.8525 60.3623 73.0303Z" fill="white"/>
<rect x="67.5" y="40.5" width="9" height="49" rx="1.5" fill="#659AD2" stroke="white"/>
<rect x="78.5" y="10.5" width="9" height="79" rx="1.5" fill="#659AD2" stroke="white"/>
</svg>
