<svg width="100" height="100" viewBox="0 0 100 100" fill="none" xmlns="http://www.w3.org/2000/svg">
<rect width="100" height="100" rx="8" fill="#F0F0F0"/>
<path d="M10.2017 29.2911C11.3962 29.2988 12.5674 29.2988 13.7696 29.3065C13.7774 27.9945 13.7774 26.7055 13.7851 25.3626C15.3985 25.3703 16.973 25.378 18.5864 25.3857C18.5864 24.5908 18.5941 23.8498 18.5941 23.0626C19.1061 23.0394 19.5947 22.9931 20.0834 23.0009C23.5117 23.0394 26.9478 23.0086 30.3684 23.1784C32.7341 23.2941 35.0921 23.6337 37.4346 24.0042C40.3355 24.4596 43.12 25.3394 45.6952 26.7673C46.4941 27.2149 47.2852 27.6934 48.0221 28.2337C48.7512 28.7663 49.395 29.4069 50.1163 30.032C50.4188 29.7465 50.7524 29.4146 51.0937 29.1136C53.3198 27.1377 55.9414 25.9029 58.7648 25.0461C61.9449 24.0891 65.2181 23.6492 68.5224 23.3945C72.1524 23.1166 75.7824 23.1707 79.4124 23.2247C80.1338 23.2324 80.8474 23.2324 81.6153 23.2324C81.6153 24.0814 81.6075 24.83 81.6075 25.6404C83.2364 25.6482 84.8109 25.6559 86.4243 25.6636C86.4165 27.0065 86.4165 28.2877 86.4088 29.6152C87.6188 29.623 88.7977 29.623 90 29.6307C89.9379 45.4373 89.8681 61.1976 89.8061 76.9965C89.7053 77.0042 89.5889 77.0197 89.4726 77.0197C81.7549 76.9888 74.0295 76.9579 66.3118 76.927C61.9604 76.9116 57.6013 76.8885 53.25 76.8653C53.0017 76.8653 52.8466 76.9425 52.6915 77.1432C52.2649 77.6989 51.6987 78.0076 50.9696 77.9999C50.2482 77.9921 49.5269 77.9844 48.8055 77.9921C48.0997 77.9921 47.5334 77.6911 47.1224 77.1432C46.944 76.9039 46.7656 76.8499 46.4941 76.8499C37.101 76.819 27.708 76.7804 18.3227 76.7418C15.701 76.7341 13.0871 76.7187 10.4654 76.7109C10.318 76.7109 10.1706 76.7109 10 76.7109C10.0698 60.8889 10.1396 45.1209 10.2017 29.2911ZM20.4402 66.662C21.3554 66.662 22.2242 66.662 23.0851 66.6774C27.3512 66.7315 31.5784 67.1019 35.7669 67.9278C39.9864 68.7613 44.0508 70.0271 47.7118 72.3502C48.0997 72.5972 48.4797 72.8442 48.9063 73.122C48.9063 72.9985 48.9063 72.9445 48.9063 72.8905C48.9219 69.5177 48.9451 66.1372 48.9606 62.7644C48.9839 56.3893 49.0072 50.0141 49.0304 43.639C49.046 39.9034 49.0537 36.1679 49.0847 32.4401C49.0847 32.1082 48.9839 31.8689 48.7667 31.6219C46.7656 29.3837 44.2214 28.0022 41.4136 27.0606C37.5354 25.7562 33.5175 25.2854 29.4609 25.0925C26.9401 24.9767 24.4115 24.9998 21.8906 24.9612C21.4718 24.9535 21.0529 24.9535 20.6108 24.9535C20.5565 38.8769 20.4945 52.7232 20.4402 66.662ZM79.6064 25.2468C79.4978 25.2314 79.4047 25.2159 79.3116 25.2082C74.937 25.1388 70.5546 25.077 66.1955 25.6018C63.3799 25.9414 60.6108 26.4354 57.9426 27.4233C55.4605 28.3418 53.2189 29.6461 51.4117 31.6142C51.1945 31.8535 51.0859 32.0927 51.0859 32.4246C51.0781 36.4612 51.0626 40.5054 51.0471 44.542C51.0316 48.1541 51.0161 51.7738 51.0006 55.3859C50.9773 61.1513 50.954 66.9244 50.9308 72.6898C50.9308 72.8133 50.9308 72.9445 50.9308 73.0834C51.7219 72.6049 52.451 72.1264 53.2189 71.7019C55.8096 70.2741 58.5864 69.317 61.4563 68.607C64.9777 67.7348 68.5534 67.2563 72.1679 67.0479C74.4871 66.9167 76.814 66.9167 79.1332 66.8627C79.234 66.8627 79.3349 66.8395 79.4435 66.8241C79.49 52.9547 79.5521 39.1085 79.6064 25.2468ZM18.4157 68.6301C18.47 54.8765 18.5321 41.1538 18.5864 27.4156C17.6479 27.4156 16.7326 27.4079 15.8251 27.4079C15.763 42.1108 15.701 56.7752 15.6467 71.4395C15.9725 71.4395 16.2672 71.4395 16.5542 71.4472C19.649 71.4781 22.7516 71.4627 25.8464 71.563C28.6853 71.6479 31.5241 71.81 34.363 72.0261C37.8612 72.2962 41.3205 72.8596 44.7489 73.6314C45.4082 73.7781 46.052 73.9556 46.8199 74.1408C46.688 74.0251 46.6492 73.971 46.6027 73.9479C45.3073 73.2995 44.043 72.5895 42.7089 72.0261C39.7149 70.7449 36.5658 70.0039 33.3547 69.5254C31.5474 69.2553 29.7324 69.0392 27.9096 68.8925C26.0946 68.7459 24.2641 68.7073 22.4413 68.6533C21.1227 68.6224 19.7964 68.6378 18.4157 68.6301ZM81.4446 68.9157C81.2662 68.9157 81.1499 68.9157 81.0335 68.9157C77.7681 68.8385 74.4949 68.8231 71.2371 69.1241C68.8947 69.3479 66.5445 69.6566 64.2253 70.058C61.0917 70.5982 58.0589 71.5244 55.1968 72.9291C54.4987 73.2764 53.8239 73.67 53.1414 74.0405C53.3042 74.0791 53.4283 74.0482 53.5602 74.0251C56.1664 73.5465 58.757 72.9522 61.3787 72.6126C64.1245 72.2499 66.9013 72.0955 69.6703 71.918C71.6095 71.7868 73.5641 71.7173 75.511 71.7019C78.3265 71.6788 81.1499 71.7328 83.9655 71.7559C84.0508 71.7559 84.1361 71.7328 84.2214 71.7174C84.2835 57.0299 84.3455 42.3732 84.3998 27.7166C83.4613 27.7166 82.5538 27.7089 81.623 27.7089C81.561 41.4393 81.4989 55.1544 81.4446 68.9157Z" fill="#050D17"/>
<path d="M71 56.8H67.4L66.2 58.6H63.8L62.6 56.8H59" stroke="#050D17" stroke-linecap="round" stroke-linejoin="round"/>
<path d="M61.07 52.666L59 56.8V60.4C59 60.7183 59.1264 61.0235 59.3515 61.2485C59.5765 61.4736 59.8817 61.6 60.2 61.6H69.8C70.1183 61.6 70.4235 61.4736 70.6485 61.2485C70.8736 61.0235 71 60.7183 71 60.4V56.8L68.93 52.666C68.8307 52.4661 68.6775 52.2978 68.4878 52.1802C68.298 52.0625 68.0793 52.0001 67.856 52H62.144C61.9207 52.0001 61.702 52.0625 61.5122 52.1802C61.3225 52.2978 61.1693 52.4661 61.07 52.666Z" stroke="#050D17" stroke-linecap="round" stroke-linejoin="round"/>
<path d="M69.1428 37H69.7143C70.3205 37 70.9018 37.2408 71.3305 37.6695C71.7592 38.0981 72 38.6795 72 39.2857C72 39.8919 71.7592 40.4733 71.3305 40.902C70.9018 41.3306 70.3205 41.5714 69.7143 41.5714H69.1428" stroke="#050D17" stroke-linecap="round" stroke-linejoin="round"/>
<path d="M60 37H69.1429V42.1429C69.1429 42.7491 68.9021 43.3305 68.4734 43.7591C68.0448 44.1878 67.4634 44.4286 66.8572 44.4286H62.2857C61.6795 44.4286 61.0981 44.1878 60.6695 43.7591C60.2408 43.3305 60 42.7491 60 42.1429V37Z" stroke="#050D17" stroke-linecap="round" stroke-linejoin="round"/>
<path d="M62.2857 33V34.7143" stroke="#050D17" stroke-linecap="round" stroke-linejoin="round"/>
<path d="M64.5714 33V34.7143" stroke="#050D17" stroke-linecap="round" stroke-linejoin="round"/>
<path d="M66.8571 33V34.7143" stroke="#050D17" stroke-linecap="round" stroke-linejoin="round"/>
<path d="M34.125 38H31.8807V30.7273H34.2244C34.9299 30.7273 35.5336 30.8729 36.0355 31.1641C36.5374 31.4529 36.9221 31.8684 37.1896 32.4105C37.4571 32.9503 37.5909 33.5966 37.5909 34.3494C37.5909 35.107 37.456 35.7592 37.1861 36.3061C36.9162 36.8506 36.5232 37.2696 36.0071 37.5632C35.491 37.8544 34.8636 38 34.125 38ZM32.7614 37.2188H34.0682C34.6695 37.2188 35.1679 37.1027 35.5632 36.8707C35.9586 36.6387 36.2533 36.3085 36.4474 35.88C36.6416 35.4515 36.7386 34.9413 36.7386 34.3494C36.7386 33.7623 36.6428 33.2569 36.451 32.8331C36.2592 32.407 35.9728 32.0803 35.5916 31.853C35.2105 31.6233 34.7358 31.5085 34.1676 31.5085H32.7614V37.2188ZM32.179 50H31.2557L33.9261 42.7273H34.8352L37.5057 50H36.5824L34.4091 43.8778H34.3523L32.179 50ZM32.5199 47.1591H36.2415V47.9403H32.5199V47.1591ZM37.733 57H36.8523C36.8002 56.7467 36.709 56.5241 36.5788 56.3324C36.451 56.1406 36.2947 55.9796 36.1101 55.8494C35.9278 55.7169 35.7254 55.6174 35.5028 55.5511C35.2803 55.4848 35.0483 55.4517 34.8068 55.4517C34.3665 55.4517 33.9676 55.563 33.6101 55.7855C33.255 56.008 32.9721 56.3359 32.7614 56.7692C32.553 57.2024 32.4489 57.7339 32.4489 58.3636C32.4489 58.9934 32.553 59.5249 32.7614 59.9581C32.9721 60.3913 33.255 60.7192 33.6101 60.9418C33.9676 61.1643 34.3665 61.2756 34.8068 61.2756C35.0483 61.2756 35.2803 61.2424 35.5028 61.1761C35.7254 61.1098 35.9278 61.0116 36.1101 60.8814C36.2947 60.7488 36.451 60.5866 36.5788 60.3949C36.709 60.2008 36.8002 59.9782 36.8523 59.7273H37.733C37.6667 60.099 37.5459 60.4316 37.3707 60.7251C37.1955 61.0187 36.9777 61.2685 36.7173 61.4744C36.4569 61.678 36.1645 61.8331 35.8402 61.9396C35.5182 62.0462 35.1738 62.0994 34.8068 62.0994C34.1866 62.0994 33.6349 61.9479 33.152 61.6449C32.669 61.3419 32.2891 60.911 32.0121 60.3523C31.7351 59.7936 31.5966 59.1307 31.5966 58.3636C31.5966 57.5966 31.7351 56.9337 32.0121 56.375C32.2891 55.8163 32.669 55.3854 33.152 55.0824C33.6349 54.7794 34.1866 54.6278 34.8068 54.6278C35.1738 54.6278 35.5182 54.6811 35.8402 54.7876C36.1645 54.8942 36.4569 55.0504 36.7173 55.2564C36.9777 55.46 37.1955 55.7086 37.3707 56.0021C37.5459 56.2933 37.6667 56.6259 37.733 57Z" fill="#050D17"/>
</svg>
