<svg width="48" height="48" viewBox="0 0 48 48" fill="none" xmlns="http://www.w3.org/2000/svg">
<g clip-path="url(#clip0_35_665)">
<path d="M37.026 13.608L37.476 12.927L38.262 13.404L38.61 13.653C39.45 14.301 41.217 15.957 41.598 18.705C42.267 18.585 42.942 18.525 43.617 18.525C45.219 18.525 46.296 18.897 46.908 19.206L47.223 19.377L47.427 19.512L48 19.98L47.802 20.58C47.4943 21.4025 47.0134 22.1494 46.392 22.77C45.522 23.667 43.992 24.726 41.565 24.864L41.031 24.879H40.587C39.477 27.81 37.986 31.113 35.481 34.077C33.9947 35.8383 32.2316 37.346 30.261 38.541C27.8985 39.9426 25.3114 40.9251 22.614 41.445C20.682 41.82 18.72 42.006 16.755 42C12.405 42 8.56501 41.136 6.20401 39.624C4.09501 38.277 2.47501 36.078 1.38601 33.093C0.432984 30.3654 -0.0350842 27.492 0.00300537 24.603C-0.00193066 24.2326 0.126127 23.8727 0.363927 23.5887C0.601727 23.3046 0.9335 23.1153 1.29901 23.055L1.50301 23.04H33.123L33.399 23.019L33.846 22.971C34.614 22.869 35.784 22.641 36.606 22.161C35.622 20.532 35.343 18.627 35.802 16.599C35.9942 15.7531 36.2968 14.9361 36.702 14.169L37.026 13.608ZM8.67001 17.352L8.79001 17.373C8.84482 17.3935 8.89417 17.4264 8.93423 17.469C8.97429 17.5117 9.00398 17.563 9.02101 17.619L9.03901 17.739V21.684L9.02101 21.807C9.00367 21.8633 8.97352 21.9148 8.93292 21.9575C8.89232 22.0002 8.84237 22.0329 8.78701 22.053L8.67001 22.071H4.43401C4.35505 22.0699 4.27849 22.0438 4.21539 21.9963C4.15229 21.9489 4.10592 21.8826 4.08301 21.807L4.06201 21.687V17.736L4.08301 17.616C4.09993 17.5591 4.1299 17.507 4.17053 17.4638C4.21115 17.4206 4.26131 17.3874 4.31701 17.367L4.43401 17.349L8.67001 17.352ZM14.511 17.352L14.628 17.373C14.6834 17.3931 14.7333 17.4258 14.7739 17.4685C14.8145 17.5112 14.8447 17.5627 14.862 17.619L14.88 17.739V21.684L14.859 21.807C14.8417 21.8633 14.8115 21.9148 14.7709 21.9575C14.7303 22.0002 14.6804 22.0329 14.625 22.053L14.508 22.071H10.272C10.1932 22.0695 10.1168 22.0432 10.0538 21.9958C9.9908 21.9484 9.94433 21.8823 9.92101 21.807L9.90001 21.69V17.739C9.89937 17.6587 9.92351 17.5802 9.96915 17.5142C10.0148 17.4481 10.0797 17.3978 10.155 17.37L10.272 17.349L14.511 17.352ZM20.439 17.352L20.556 17.373C20.6108 17.3935 20.6602 17.4264 20.7002 17.469C20.7403 17.5117 20.77 17.563 20.787 17.619L20.808 17.739V21.684L20.787 21.807C20.7697 21.8633 20.7395 21.9148 20.6989 21.9575C20.6583 22.0002 20.6084 22.0329 20.553 22.053L20.436 22.071H16.2C16.1211 22.0699 16.0445 22.0438 15.9814 21.9963C15.9183 21.9489 15.8719 21.8826 15.849 21.807L15.831 21.687V17.736L15.849 17.616C15.8659 17.5591 15.8959 17.507 15.9365 17.4638C15.9771 17.4206 16.0273 17.3874 16.083 17.367L16.2 17.349L20.439 17.352ZM26.295 17.352L26.412 17.373C26.4674 17.3931 26.5173 17.4258 26.5579 17.4685C26.5985 17.5112 26.6287 17.5627 26.646 17.619L26.667 17.739V21.684C26.6676 21.7643 26.6435 21.8428 26.5979 21.9088C26.5522 21.9749 26.4873 22.0252 26.412 22.053L26.292 22.071H22.059C21.9801 22.0699 21.9035 22.0438 21.8404 21.9963C21.7773 21.9489 21.7309 21.8826 21.708 21.807L21.69 21.687V17.736L21.708 17.616C21.7249 17.5591 21.7549 17.507 21.7955 17.4638C21.8361 17.4206 21.8863 17.3874 21.942 17.367L22.062 17.349H26.298L26.295 17.352ZM32.205 17.352L32.322 17.373C32.3774 17.3931 32.4273 17.4258 32.4679 17.4685C32.5085 17.5112 32.5387 17.5627 32.556 17.619L32.574 17.739V21.684C32.5746 21.7643 32.5505 21.8428 32.5049 21.9088C32.4592 21.9749 32.3943 22.0252 32.319 22.053L32.202 22.071H27.966C27.8871 22.0699 27.8105 22.0438 27.7474 21.9963C27.6843 21.9489 27.6379 21.8826 27.615 21.807L27.597 21.687V17.736L27.615 17.616C27.6319 17.5591 27.6619 17.507 27.7025 17.4638C27.7432 17.4206 27.7933 17.3874 27.849 17.367L27.969 17.349H32.202L32.205 17.352ZM14.505 11.676L14.625 11.697C14.6795 11.7172 14.7286 11.7496 14.7687 11.7917C14.8087 11.8338 14.8386 11.8846 14.856 11.94L14.877 12.063V16.008C14.8776 16.0883 14.8535 16.1668 14.8079 16.2328C14.7622 16.2989 14.6973 16.3492 14.622 16.377L14.505 16.398H10.272C10.1924 16.3961 10.1155 16.3689 10.0524 16.3203C9.98929 16.2718 9.94327 16.2044 9.92101 16.128L9.90001 16.008V12.063C9.89998 11.9832 9.92442 11.9054 9.97001 11.8399C10.0156 11.7745 10.0802 11.7246 10.155 11.697L10.272 11.676H14.505ZM20.433 11.676L20.553 11.697C20.6075 11.7172 20.6566 11.7496 20.6967 11.7917C20.7367 11.8338 20.7666 11.8846 20.784 11.94L20.805 12.063V16.008C20.8056 16.0883 20.7815 16.1668 20.7359 16.2328C20.6902 16.2989 20.6253 16.3492 20.55 16.377L20.433 16.398H16.2C16.1204 16.3961 16.0435 16.3689 15.9804 16.3203C15.9173 16.2718 15.8713 16.2044 15.849 16.128L15.831 16.008V12.063L15.849 11.943C15.8663 11.8867 15.8965 11.8352 15.9371 11.7925C15.9777 11.7498 16.0276 11.7171 16.083 11.697L16.2 11.676H20.433ZM26.292 11.676C26.454 11.676 26.592 11.787 26.643 11.94L26.664 12.063V16.008C26.6646 16.0883 26.6405 16.1668 26.5949 16.2328C26.5492 16.2989 26.4843 16.3492 26.409 16.377L26.289 16.398H22.059C21.9794 16.3961 21.9025 16.3689 21.8394 16.3203C21.7763 16.2718 21.7303 16.2044 21.708 16.128L21.69 16.008V12.063L21.708 11.943C21.7253 11.8867 21.7555 11.8352 21.7961 11.7925C21.8367 11.7498 21.8866 11.7171 21.942 11.697L22.062 11.676H26.298H26.292ZM26.292 6C26.454 6 26.592 6.111 26.643 6.264L26.664 6.384V10.332C26.6646 10.4123 26.6405 10.4908 26.5949 10.5568C26.5492 10.6229 26.4843 10.6732 26.409 10.701L26.289 10.719H22.059C21.9801 10.7179 21.9035 10.6918 21.8404 10.6443C21.7773 10.5969 21.7309 10.5306 21.708 10.455L21.69 10.335V6.384L21.708 6.264C21.7253 6.2077 21.7555 6.15618 21.7961 6.11349C21.8367 6.07081 21.8866 6.03812 21.942 6.018L22.059 6H26.295H26.292Z" fill="#2396ED"/>
</g>
<defs>
<clipPath id="clip0_35_665">
<rect width="48" height="48" fill="white"/>
</clipPath>
</defs>
</svg>
