<svg width="48" height="48" viewBox="0 0 48 48" fill="none" xmlns="http://www.w3.org/2000/svg">
<rect width="48" height="48" fill="white"/>
<path d="M47.88 37.1376C46.1424 37.5792 45.0672 37.1568 44.1024 35.7072L37.248 26.2224L36.2592 24.9072L28.248 35.7408C27.3312 37.0416 26.3712 37.6128 24.6672 37.152L34.92 23.3856L25.3728 10.9536C27.0144 10.632 28.1472 10.7952 29.1552 12.2688L36.2688 21.8736L43.4352 12.3216C44.352 11.0208 45.3408 10.5216 46.9872 11.0016L43.2864 15.9072L38.2704 22.4352C37.6752 23.1792 37.7568 23.6928 38.304 24.4128L47.88 37.1376ZM0.129595 23.1552L0.969595 19.032C3.25439 10.8672 12.6144 7.4736 19.0656 12.5184C22.8384 15.4848 23.7744 19.6848 23.5872 24.384H2.328C2.00639 32.8464 8.09759 37.9536 15.864 35.3472C18.5904 34.4304 20.1936 32.2992 20.9952 29.6304C21.4032 28.2912 22.0752 28.0848 23.3328 28.464C22.6896 31.8 21.2448 34.5888 18.1824 36.336C13.6128 38.9472 7.08479 38.1024 3.65279 34.4736C1.61279 32.3664 0.767995 29.6976 0.388795 26.8464C0.331195 26.376 0.211195 25.9248 0.119995 25.4736C0.124795 24.7008 0.129595 23.928 0.129595 23.1552ZM2.36639 22.5888H21.5808C21.456 16.4688 17.6448 12.1248 12.4368 12.0864C6.72 12.0384 2.61599 16.2816 2.36639 22.5888Z" fill="#010101"/>
</svg>
