<svg width="100" height="100" viewBox="0 0 100 100" fill="none" xmlns="http://www.w3.org/2000/svg">
<g clip-path="url(#clip0_96_170)">
<mask id="mask0_96_170" style="mask-type:alpha" maskUnits="userSpaceOnUse" x="0" y="0" width="100" height="100">
<rect width="100" height="100" rx="8" fill="#76E1FE"/>
</mask>
<g mask="url(#mask0_96_170)">
<rect width="100" height="100" rx="8" fill="#76E1FE"/>
<rect width="2.7375" height="44.7125" transform="matrix(-1 0 0 1 87.1661 41.2876)" fill="#C38C74"/>
<mask id="path-4-inside-1_96_170" fill="white">
<path d="M87.1661 13.0001C85.2488 13.0001 83.3503 13.3777 81.5789 14.1114C79.8076 14.8451 78.1981 15.9206 76.8424 17.2763C75.4866 18.632 74.4112 20.2415 73.6775 22.0129C72.9438 23.7842 72.5661 25.6828 72.5661 27.6001C72.5661 29.5174 72.9438 31.4159 73.6775 33.1873C74.4112 34.9586 75.4866 36.5681 76.8424 37.9238C78.1981 39.2796 79.8076 40.355 81.5789 41.0887C83.3503 41.8224 85.2488 42.2001 87.1661 42.2001L87.1661 27.6001V13.0001Z"/>
</mask>
<path d="M87.1661 13.0001C85.2488 13.0001 83.3503 13.3777 81.5789 14.1114C79.8076 14.8451 78.1981 15.9206 76.8424 17.2763C75.4866 18.632 74.4112 20.2415 73.6775 22.0129C72.9438 23.7842 72.5661 25.6828 72.5661 27.6001C72.5661 29.5174 72.9438 31.4159 73.6775 33.1873C74.4112 34.9586 75.4866 36.5681 76.8424 37.9238C78.1981 39.2796 79.8076 40.355 81.5789 41.0887C83.3503 41.8224 85.2488 42.2001 87.1661 42.2001L87.1661 27.6001V13.0001Z" fill="#C38C74" stroke="#384E54" stroke-width="4" mask="url(#path-4-inside-1_96_170)"/>
<rect width="18.25" height="2.7375" transform="matrix(0.984808 0.173648 0.173648 -0.984808 68.059 49.2163)" fill="#C38C74"/>
<path d="M81.6911 30.3375C81.6911 30.3375 80.7786 32.1625 78.9536 32.6188C77.1286 33.075 74.3911 31.7063 74.3911 31.7063" stroke="#384E54" stroke-linecap="round"/>
<circle cx="2.7375" cy="2.7375" r="2.7375" transform="matrix(-1 0 0 1 83.5161 18.4751)" fill="white"/>
<circle cx="1.36875" cy="1.36875" r="1.36875" transform="matrix(-1 0 0 1 80.7786 20.3)" fill="#384E54"/>
<path d="M60 20L90 10V90L60 71.5V20Z" fill="#F0F0F0" fill-opacity="0.25"/>
<rect x="10" y="41" width="3" height="49" fill="#C38C74"/>
<mask id="path-11-inside-2_96_170" fill="white">
<path d="M10 10C12.1012 10 14.1817 10.4139 16.1229 11.2179C18.0641 12.022 19.828 13.2006 21.3137 14.6863C22.7994 16.172 23.978 17.9359 24.7821 19.8771C25.5861 21.8183 26 23.8989 26 26C26 28.1012 25.5861 30.1817 24.7821 32.1229C23.978 34.0641 22.7994 35.828 21.3137 37.3137C19.828 38.7994 18.0641 39.978 16.1229 40.7821C14.1817 41.5861 12.1011 42 10 42L10 26L10 10Z"/>
</mask>
<path d="M10 10C12.1012 10 14.1817 10.4139 16.1229 11.2179C18.0641 12.022 19.828 13.2006 21.3137 14.6863C22.7994 16.172 23.978 17.9359 24.7821 19.8771C25.5861 21.8183 26 23.8989 26 26C26 28.1012 25.5861 30.1817 24.7821 32.1229C23.978 34.0641 22.7994 35.828 21.3137 37.3137C19.828 38.7994 18.0641 39.978 16.1229 40.7821C14.1817 41.5861 12.1011 42 10 42L10 26L10 10Z" fill="#C38C74" stroke="#384E54" stroke-width="4" mask="url(#path-11-inside-2_96_170)"/>
<rect x="11.0397" y="52.475" width="27.7558" height="3" transform="rotate(-23 11.0397 52.475)" fill="#C38C74"/>
<path d="M16 29C16 29 17 31 19 31.5C21 32 24 30.5 24 30.5" stroke="#384E54" stroke-linecap="round"/>
<circle cx="17" cy="19" r="3" fill="white"/>
<circle cx="18.5" cy="19" r="1.5" fill="#384E54"/>
<path d="M41.5042 49.4377C41.47 49.7117 41.6644 49.9616 41.9384 49.9958C42.2124 50.03 42.4623 49.8356 42.4965 49.5616L42.0003 49.4997L41.5042 49.4377ZM38.3539 44.6461C37.8575 44.7063 37.8575 44.7066 37.8576 44.7068C37.8576 44.7069 37.8576 44.7072 37.8576 44.7074C37.8577 44.7077 37.8577 44.7081 37.8578 44.7085C37.8578 44.7092 37.8579 44.71 37.858 44.7107C37.8583 44.7123 37.8585 44.714 37.8587 44.7158C37.8592 44.7194 37.8598 44.7234 37.8605 44.7279C37.8619 44.7368 37.8637 44.7474 37.866 44.7597C37.8706 44.7844 37.8774 44.8158 37.8871 44.854C37.9067 44.9306 37.9382 45.0341 37.989 45.1647C38.0906 45.426 38.2689 45.7952 38.5816 46.2736L39.0001 46L39.4186 45.7264C39.1395 45.2994 38.9947 44.9918 38.9211 44.8024C38.8843 44.7078 38.8652 44.6426 38.8561 44.6067C38.8515 44.5887 38.8494 44.5781 38.8487 44.5746C38.8484 44.5729 38.8484 44.573 38.8487 44.5749C38.8489 44.5759 38.8491 44.5773 38.8493 44.5791C38.8495 44.58 38.8496 44.5811 38.8497 44.5822C38.8498 44.5828 38.8499 44.5834 38.85 44.584C38.85 44.5843 38.8501 44.5846 38.8501 44.585C38.8501 44.5851 38.8501 44.5854 38.8502 44.5855C38.8502 44.5857 38.8502 44.586 38.3539 44.6461ZM39.0001 46L38.5816 46.2736C38.9813 46.8849 39.6038 47.1053 40.0643 47.265C40.5741 47.4417 40.896 47.5521 41.1142 47.8173L41.5003 47.4997L41.8865 47.182C41.4537 46.6559 40.8215 46.4691 40.3919 46.3202C39.913 46.1542 39.6108 46.0204 39.4186 45.7264L39.0001 46ZM41.5003 47.4997L41.1142 47.8173C41.3517 48.106 41.4587 48.495 41.4974 48.8505C41.5161 49.023 41.5174 49.1748 41.514 49.2826C41.5123 49.3362 41.5095 49.378 41.5073 49.405C41.5061 49.4185 41.5052 49.4283 41.5046 49.4339C41.5043 49.4366 41.5041 49.4384 41.504 49.4391C41.504 49.4394 41.504 49.4394 41.504 49.4392C41.504 49.4391 41.504 49.4389 41.5041 49.4387C41.5041 49.4385 41.5041 49.4384 41.5041 49.4382C41.5041 49.4382 41.5042 49.438 41.5042 49.438C41.5042 49.4378 41.5042 49.4377 42.0003 49.4997C42.4965 49.5616 42.4965 49.5615 42.4965 49.5613C42.4965 49.5612 42.4966 49.5611 42.4966 49.561C42.4966 49.5607 42.4966 49.5605 42.4967 49.5602C42.4967 49.5597 42.4968 49.559 42.4969 49.5583C42.4971 49.557 42.4973 49.5553 42.4975 49.5533C42.4979 49.5493 42.4985 49.5442 42.4992 49.5379C42.5005 49.5254 42.5021 49.5084 42.5039 49.4873C42.5073 49.4451 42.5112 49.3864 42.5135 49.3143C42.5181 49.1707 42.5164 48.9709 42.4915 48.7423C42.4429 48.2956 42.2999 47.6846 41.8865 47.182L41.5003 47.4997Z" fill="#3F8CE3"/>
<mask id="mask1_96_170" style="mask-type:alpha" maskUnits="userSpaceOnUse" x="39" y="45" width="17" height="10">
<path d="M39.2215 49.7366L45.0599 46.5789L55.2215 45V55H39.2215V49.7366Z" fill="#D9D9D9"/>
</mask>
<g mask="url(#mask1_96_170)">
<g filter="url(#filter0_i_96_170)">
<path d="M39.2216 46C39.2216 45.4477 39.6693 45 40.2216 45H47H54.2216C54.7738 45 55.2216 45.4477 55.2216 46V54C55.2216 54.5523 54.7738 55 54.2216 55H40.2216C39.6693 55 39.2216 54.5523 39.2216 54V46Z" fill="#916DDE"/>
</g>
<path d="M38.3638 46.9272L38.3066 47.1045C38.2852 47.0908 38.2578 47.0801 38.2246 47.0723C38.1924 47.0645 38.1577 47.0605 38.1206 47.0605C38.0454 47.0605 37.9868 47.0776 37.9448 47.1118C37.9028 47.146 37.8818 47.1997 37.8818 47.2729V49H37.6123V47.2451C37.6123 47.1514 37.6323 47.0757 37.6724 47.0181C37.7124 46.9595 37.7656 46.917 37.832 46.8906C37.8994 46.8643 37.9736 46.8511 38.0547 46.8511C38.1152 46.8511 38.1719 46.8579 38.2246 46.8716C38.2783 46.8853 38.3247 46.9038 38.3638 46.9272ZM37.356 47.686V47.5H38.2568V47.686H37.356ZM38.5776 47.4692H38.8354L38.8457 48.0186V49H38.5776V47.4692ZM39.5005 47.7109C39.4712 47.7012 39.4331 47.6963 39.3862 47.6963C39.2759 47.6963 39.1821 47.7266 39.105 47.7871C39.0288 47.8467 38.9692 47.9253 38.9263 48.0229C38.8843 48.1206 38.8574 48.2271 38.8457 48.3423L38.7637 48.2969C38.7725 48.1924 38.7905 48.0903 38.8179 47.9907C38.8452 47.8911 38.8843 47.8008 38.9351 47.7197C38.9858 47.6387 39.0503 47.5742 39.1284 47.5264C39.2065 47.4785 39.3013 47.4546 39.4126 47.4546C39.4302 47.4546 39.4478 47.4556 39.4653 47.4575C39.4829 47.4595 39.4995 47.4624 39.5151 47.4663L39.5005 47.7109ZM40.3838 47.6729C40.2549 47.6729 40.1499 47.7178 40.0688 47.8076C39.9888 47.8965 39.9487 48.0391 39.9487 48.2354C39.9487 48.4307 39.9888 48.5732 40.0688 48.6631C40.1489 48.7529 40.2539 48.7979 40.3838 48.7979C40.5146 48.7979 40.6196 48.7529 40.6987 48.6631C40.7788 48.5732 40.8188 48.4307 40.8188 48.2354C40.8188 48.0391 40.7788 47.8965 40.6987 47.8076C40.6187 47.7178 40.5137 47.6729 40.3838 47.6729ZM40.3838 47.4561C40.5322 47.4561 40.6587 47.4868 40.7632 47.5483C40.8687 47.6089 40.9492 47.6973 41.0049 47.8135C41.0605 47.9287 41.0884 48.0693 41.0884 48.2354C41.0884 48.4004 41.0601 48.5415 41.0034 48.6587C40.9478 48.7749 40.8672 48.8638 40.7617 48.9253C40.6572 48.9858 40.5312 49.0161 40.3838 49.0161C40.2363 49.0161 40.1099 48.9858 40.0044 48.9253C39.8999 48.8638 39.8193 48.7749 39.7627 48.6587C39.707 48.5415 39.6792 48.4004 39.6792 48.2354C39.6792 48.0693 39.707 47.9287 39.7627 47.8135C39.8193 47.6973 39.8999 47.6089 40.0044 47.5483C40.1099 47.4868 40.2363 47.4561 40.3838 47.4561ZM41.4121 47.4692H41.6699L41.6802 47.8911V49H41.4121V47.4692ZM42.6338 47.998V48.9985H42.3643V48.0391C42.3643 47.9385 42.3413 47.8594 42.2954 47.8018C42.2495 47.7441 42.1826 47.7153 42.0947 47.7153C42.0137 47.7153 41.9448 47.7354 41.8882 47.7754C41.8315 47.8154 41.7861 47.8711 41.752 47.9424C41.7188 48.0127 41.6948 48.0933 41.6802 48.1841L41.626 48.0581C41.6377 47.9429 41.666 47.8398 41.7109 47.749C41.7559 47.6582 41.8169 47.5864 41.894 47.5337C41.9712 47.481 42.063 47.4546 42.1694 47.4546C42.2632 47.4546 42.3447 47.4775 42.4141 47.5234C42.4834 47.5693 42.5371 47.6333 42.5752 47.7153C42.6143 47.7964 42.6338 47.8906 42.6338 47.998ZM43.5874 47.998V48.9985H43.3179V48.0391C43.3179 47.9385 43.2949 47.8594 43.249 47.8018C43.2031 47.7441 43.1362 47.7153 43.0483 47.7153C42.9673 47.7153 42.8984 47.7354 42.8418 47.7754C42.7852 47.8154 42.7397 47.8711 42.7056 47.9424C42.6724 48.0127 42.6484 48.0933 42.6338 48.1841L42.5796 48.0581C42.5913 47.9429 42.6196 47.8398 42.6646 47.749C42.7095 47.6582 42.7705 47.5864 42.8477 47.5337C42.9248 47.481 43.0166 47.4546 43.123 47.4546C43.2168 47.4546 43.2983 47.4775 43.3677 47.5234C43.437 47.5693 43.4907 47.6333 43.5288 47.7153C43.5679 47.7964 43.5874 47.8906 43.5874 47.998ZM44.0005 47.771C44.0005 47.7202 44.0181 47.6777 44.0532 47.6436C44.0894 47.6084 44.1338 47.5908 44.1865 47.5908C44.2393 47.5908 44.2832 47.6084 44.3184 47.6436C44.3535 47.6777 44.3711 47.7202 44.3711 47.771C44.3711 47.8218 44.3535 47.8652 44.3184 47.9014C44.2832 47.9375 44.2393 47.9556 44.1865 47.9556C44.1338 47.9556 44.0894 47.9375 44.0532 47.9014C44.0181 47.8652 44.0005 47.8218 44.0005 47.771ZM44.0005 48.8315C44.0005 48.7808 44.0181 48.7383 44.0532 48.7041C44.0894 48.6689 44.1338 48.6514 44.1865 48.6514C44.2393 48.6514 44.2832 48.6689 44.3184 48.7041C44.3535 48.7383 44.3711 48.7808 44.3711 48.8315C44.3711 48.8823 44.3535 48.9258 44.3184 48.9619C44.2832 48.998 44.2393 49.0161 44.1865 49.0161C44.1338 49.0161 44.0894 48.998 44.0532 48.9619C44.0181 48.9258 44.0005 48.8823 44.0005 48.8315ZM45.9159 48.046C45.9159 47.83 45.9129 47.647 45.9069 47.497C45.8249 47.507 45.7599 47.537 45.7119 47.587C45.6659 47.635 45.6429 47.688 45.6429 47.746C45.6429 47.802 45.6659 47.859 45.7119 47.917C45.7599 47.975 45.8279 48.018 45.9159 48.046ZM46.1229 48.286C46.1329 48.63 46.1379 48.826 46.1379 48.874C46.1379 48.92 46.1259 48.958 46.1019 48.988C46.0779 49.018 46.0539 49.033 46.0299 49.033C46.0079 49.033 45.9879 49.028 45.9699 49.018C45.9179 48.992 45.8919 48.945 45.8919 48.877L45.9129 48.25C45.7609 48.218 45.6419 48.154 45.5559 48.058C45.4739 47.96 45.4329 47.856 45.4329 47.746C45.4329 47.636 45.4749 47.539 45.5589 47.455C45.6449 47.369 45.7579 47.316 45.8979 47.296L45.8829 46.939C45.8869 46.869 45.9189 46.821 45.9789 46.795C46.1029 46.745 46.2499 46.72 46.4199 46.72C46.6679 46.72 46.8739 46.792 47.0379 46.936C47.2039 47.078 47.2869 47.245 47.2869 47.437C47.2869 47.629 47.2379 47.79 47.1399 47.92C46.9559 48.166 46.6629 48.289 46.2609 48.289C46.1889 48.289 46.1429 48.288 46.1229 48.286ZM46.1169 47.497C46.1189 47.549 46.1199 47.745 46.1199 48.085C46.1319 48.087 46.1599 48.088 46.2039 48.088C46.4499 48.088 46.6529 48.035 46.8129 47.929C46.9729 47.823 47.0529 47.662 47.0529 47.446C47.0529 47.298 46.9899 47.175 46.8639 47.077C46.7399 46.977 46.5909 46.927 46.4169 46.927C46.2949 46.927 46.1939 46.94 46.1139 46.966C46.1139 47.038 46.1159 47.148 46.1199 47.296C46.2439 47.312 46.3519 47.357 46.4439 47.431C46.5379 47.505 46.5849 47.58 46.5849 47.656C46.5849 47.688 46.5749 47.713 46.5549 47.731C46.5369 47.749 46.5149 47.758 46.4889 47.758C46.4629 47.758 46.4329 47.738 46.3989 47.698C46.2889 47.57 46.1949 47.503 46.1169 47.497ZM48.2269 47.65C48.0949 47.65 47.9839 47.7 47.8939 47.8C47.8059 47.898 47.7479 48.013 47.7199 48.145C47.8279 48.177 47.9489 48.193 48.0829 48.193C48.2189 48.193 48.3279 48.17 48.4099 48.124C48.4919 48.078 48.5329 48.015 48.5329 47.935C48.5329 47.855 48.5049 47.788 48.4489 47.734C48.3949 47.678 48.3209 47.65 48.2269 47.65ZM48.0979 48.382C47.9939 48.382 47.8669 48.367 47.7169 48.337C47.7289 48.479 47.7809 48.6 47.8729 48.7C47.9669 48.8 48.0759 48.85 48.1999 48.85C48.3239 48.85 48.4259 48.82 48.5059 48.76C48.5859 48.698 48.6379 48.667 48.6619 48.667C48.6879 48.667 48.7079 48.675 48.7219 48.691C48.7379 48.705 48.7459 48.723 48.7459 48.745C48.7459 48.801 48.6879 48.865 48.5719 48.937C48.4579 49.009 48.3339 49.045 48.1999 49.045C47.9919 49.045 47.8259 48.972 47.7019 48.826C47.5799 48.678 47.5149 48.502 47.5069 48.298C47.4009 48.264 47.3479 48.212 47.3479 48.142C47.3479 48.096 47.3649 48.066 47.3989 48.052C47.4109 48.048 47.4259 48.046 47.4439 48.046C47.4639 48.046 47.4909 48.055 47.5249 48.073C47.5709 47.891 47.6539 47.743 47.7739 47.629C47.8959 47.513 48.0379 47.455 48.1999 47.455C48.3639 47.455 48.4959 47.5 48.5959 47.59C48.6959 47.68 48.7459 47.798 48.7459 47.944C48.7459 48.088 48.6839 48.197 48.5599 48.271C48.4359 48.345 48.2819 48.382 48.0979 48.382ZM49.8441 47.65C49.7121 47.65 49.6011 47.7 49.5111 47.8C49.4231 47.898 49.3651 48.013 49.3371 48.145C49.4451 48.177 49.5661 48.193 49.7001 48.193C49.8361 48.193 49.9451 48.17 50.0271 48.124C50.1091 48.078 50.1501 48.015 50.1501 47.935C50.1501 47.855 50.1221 47.788 50.0661 47.734C50.0121 47.678 49.9381 47.65 49.8441 47.65ZM49.7151 48.382C49.6111 48.382 49.4841 48.367 49.3341 48.337C49.3461 48.479 49.3981 48.6 49.4901 48.7C49.5841 48.8 49.6931 48.85 49.8171 48.85C49.9411 48.85 50.0431 48.82 50.1231 48.76C50.2031 48.698 50.2551 48.667 50.2791 48.667C50.3051 48.667 50.3251 48.675 50.3391 48.691C50.3551 48.705 50.3631 48.723 50.3631 48.745C50.3631 48.801 50.3051 48.865 50.1891 48.937C50.0751 49.009 49.9511 49.045 49.8171 49.045C49.6091 49.045 49.4431 48.972 49.3191 48.826C49.1971 48.678 49.1321 48.502 49.1241 48.298C49.0181 48.264 48.9651 48.212 48.9651 48.142C48.9651 48.096 48.9821 48.066 49.0161 48.052C49.0281 48.048 49.0431 48.046 49.0611 48.046C49.0811 48.046 49.1081 48.055 49.1421 48.073C49.1881 47.891 49.2711 47.743 49.3911 47.629C49.5131 47.513 49.6551 47.455 49.8171 47.455C49.9811 47.455 50.1131 47.5 50.2131 47.59C50.3131 47.68 50.3631 47.798 50.3631 47.944C50.3631 48.088 50.3011 48.197 50.1771 48.271C50.0531 48.345 49.8991 48.382 49.7151 48.382ZM50.9573 48.313L50.9663 48.877C50.9663 48.979 50.9283 49.03 50.8523 49.03C50.7603 49.03 50.7143 48.962 50.7143 48.826C50.7143 48.688 50.7343 48.488 50.7743 48.226C50.7743 48.142 50.7653 48.025 50.7473 47.875C50.7313 47.723 50.7233 47.631 50.7233 47.599C50.7233 47.567 50.7343 47.538 50.7563 47.512C50.7783 47.484 50.8063 47.47 50.8403 47.47C50.8743 47.47 50.9023 47.484 50.9243 47.512C50.9463 47.538 50.9573 47.565 50.9573 47.593C50.9573 47.621 50.9563 47.666 50.9543 47.728C50.9543 47.79 50.9543 47.833 50.9543 47.857C50.9923 47.757 51.0543 47.667 51.1403 47.587C51.2283 47.509 51.3153 47.47 51.4013 47.47C51.4893 47.47 51.5583 47.488 51.6083 47.524C51.6603 47.558 51.6863 47.597 51.6863 47.641C51.6863 47.685 51.6753 47.719 51.6533 47.743C51.6313 47.767 51.6023 47.779 51.5663 47.779C51.5323 47.779 51.4943 47.761 51.4523 47.725C51.4143 47.687 51.3823 47.668 51.3563 47.668C51.2903 47.668 51.2133 47.74 51.1253 47.884C51.0373 48.026 50.9813 48.169 50.9573 48.313Z" fill="#F0F0F0"/>
<path d="M45.3159 49.6H51.7343V49.75H45.3159V49.6Z" fill="#F0F0F0"/>
<path d="M42.1421 52.7861L42.1816 52.9692C42.1406 52.9839 42.0967 52.9951 42.0498 53.0029C42.0039 53.0107 41.958 53.0146 41.9121 53.0146C41.832 53.0146 41.7583 53.0015 41.6909 52.9751C41.6245 52.9487 41.5713 52.9067 41.5312 52.8491C41.4912 52.7905 41.4712 52.7144 41.4712 52.6206V51.0474H41.7393V52.5928C41.7393 52.666 41.7603 52.7197 41.8022 52.7539C41.8442 52.7881 41.9028 52.8052 41.978 52.8052C42.0063 52.8052 42.0352 52.8037 42.0645 52.8008C42.0938 52.7969 42.1196 52.792 42.1421 52.7861ZM41.2324 51.686V51.5H42.1333V51.686H41.2324ZM43.0752 51.6729C42.9463 51.6729 42.8413 51.7178 42.7603 51.8076C42.6802 51.8965 42.6401 52.0391 42.6401 52.2354C42.6401 52.4307 42.6802 52.5732 42.7603 52.6631C42.8403 52.7529 42.9453 52.7979 43.0752 52.7979C43.2061 52.7979 43.311 52.7529 43.3901 52.6631C43.4702 52.5732 43.5103 52.4307 43.5103 52.2354C43.5103 52.0391 43.4702 51.8965 43.3901 51.8076C43.3101 51.7178 43.2051 51.6729 43.0752 51.6729ZM43.0752 51.4561C43.2236 51.4561 43.3501 51.4868 43.4546 51.5483C43.5601 51.6089 43.6406 51.6973 43.6963 51.8135C43.752 51.9287 43.7798 52.0693 43.7798 52.2354C43.7798 52.4004 43.7515 52.5415 43.6948 52.6587C43.6392 52.7749 43.5586 52.8638 43.4531 52.9253C43.3486 52.9858 43.2227 53.0161 43.0752 53.0161C42.9277 53.0161 42.8013 52.9858 42.6958 52.9253C42.5913 52.8638 42.5107 52.7749 42.4541 52.6587C42.3984 52.5415 42.3706 52.4004 42.3706 52.2354C42.3706 52.0693 42.3984 51.9287 42.4541 51.8135C42.5107 51.6973 42.5913 51.6089 42.6958 51.5483C42.8013 51.4868 42.9277 51.4561 43.0752 51.4561ZM44.1313 51.771C44.1313 51.7202 44.1489 51.6777 44.1841 51.6436C44.2202 51.6084 44.2646 51.5908 44.3174 51.5908C44.3701 51.5908 44.4141 51.6084 44.4492 51.6436C44.4844 51.6777 44.502 51.7202 44.502 51.771C44.502 51.8218 44.4844 51.8652 44.4492 51.9014C44.4141 51.9375 44.3701 51.9556 44.3174 51.9556C44.2646 51.9556 44.2202 51.9375 44.1841 51.9014C44.1489 51.8652 44.1313 51.8218 44.1313 51.771ZM44.1313 52.8315C44.1313 52.7808 44.1489 52.7383 44.1841 52.7041C44.2202 52.6689 44.2646 52.6514 44.3174 52.6514C44.3701 52.6514 44.4141 52.6689 44.4492 52.7041C44.4844 52.7383 44.502 52.7808 44.502 52.8315C44.502 52.8823 44.4844 52.9258 44.4492 52.9619C44.4141 52.998 44.3701 53.0161 44.3174 53.0161C44.2646 53.0161 44.2202 52.998 44.1841 52.9619C44.1489 52.9258 44.1313 52.8823 44.1313 52.8315ZM46.0468 52.046C46.0468 51.83 46.0438 51.647 46.0378 51.497C45.9558 51.507 45.8908 51.537 45.8428 51.587C45.7968 51.635 45.7738 51.688 45.7738 51.746C45.7738 51.802 45.7968 51.859 45.8428 51.917C45.8908 51.975 45.9588 52.018 46.0468 52.046ZM46.2538 52.286C46.2638 52.63 46.2688 52.826 46.2688 52.874C46.2688 52.92 46.2568 52.958 46.2328 52.988C46.2088 53.018 46.1848 53.033 46.1608 53.033C46.1388 53.033 46.1188 53.028 46.1008 53.018C46.0488 52.992 46.0228 52.945 46.0228 52.877L46.0438 52.25C45.8918 52.218 45.7728 52.154 45.6868 52.058C45.6048 51.96 45.5638 51.856 45.5638 51.746C45.5638 51.636 45.6058 51.539 45.6898 51.455C45.7758 51.369 45.8888 51.316 46.0288 51.296L46.0138 50.939C46.0178 50.869 46.0498 50.821 46.1098 50.795C46.2338 50.745 46.3808 50.72 46.5508 50.72C46.7988 50.72 47.0048 50.792 47.1688 50.936C47.3348 51.078 47.4178 51.245 47.4178 51.437C47.4178 51.629 47.3688 51.79 47.2708 51.92C47.0868 52.166 46.7938 52.289 46.3918 52.289C46.3198 52.289 46.2738 52.288 46.2538 52.286ZM46.2478 51.497C46.2498 51.549 46.2508 51.745 46.2508 52.085C46.2628 52.087 46.2908 52.088 46.3348 52.088C46.5808 52.088 46.7838 52.035 46.9438 51.929C47.1038 51.823 47.1838 51.662 47.1838 51.446C47.1838 51.298 47.1208 51.175 46.9948 51.077C46.8708 50.977 46.7218 50.927 46.5478 50.927C46.4258 50.927 46.3248 50.94 46.2448 50.966C46.2448 51.038 46.2468 51.148 46.2508 51.296C46.3748 51.312 46.4828 51.357 46.5748 51.431C46.6688 51.505 46.7158 51.58 46.7158 51.656C46.7158 51.688 46.7058 51.713 46.6858 51.731C46.6678 51.749 46.6458 51.758 46.6198 51.758C46.5938 51.758 46.5638 51.738 46.5298 51.698C46.4198 51.57 46.3258 51.503 46.2478 51.497ZM48.3577 51.65C48.2257 51.65 48.1147 51.7 48.0247 51.8C47.9367 51.898 47.8787 52.013 47.8507 52.145C47.9587 52.177 48.0797 52.193 48.2137 52.193C48.3497 52.193 48.4587 52.17 48.5407 52.124C48.6227 52.078 48.6637 52.015 48.6637 51.935C48.6637 51.855 48.6357 51.788 48.5797 51.734C48.5257 51.678 48.4517 51.65 48.3577 51.65ZM48.2287 52.382C48.1247 52.382 47.9977 52.367 47.8477 52.337C47.8597 52.479 47.9117 52.6 48.0037 52.7C48.0977 52.8 48.2067 52.85 48.3307 52.85C48.4547 52.85 48.5567 52.82 48.6367 52.76C48.7167 52.698 48.7687 52.667 48.7927 52.667C48.8187 52.667 48.8387 52.675 48.8527 52.691C48.8687 52.705 48.8767 52.723 48.8767 52.745C48.8767 52.801 48.8187 52.865 48.7027 52.937C48.5887 53.009 48.4647 53.045 48.3307 53.045C48.1227 53.045 47.9567 52.972 47.8327 52.826C47.7107 52.678 47.6457 52.502 47.6377 52.298C47.5317 52.264 47.4787 52.212 47.4787 52.142C47.4787 52.096 47.4957 52.066 47.5297 52.052C47.5417 52.048 47.5567 52.046 47.5747 52.046C47.5947 52.046 47.6217 52.055 47.6557 52.073C47.7017 51.891 47.7847 51.743 47.9047 51.629C48.0267 51.513 48.1687 51.455 48.3307 51.455C48.4947 51.455 48.6267 51.5 48.7267 51.59C48.8267 51.68 48.8767 51.798 48.8767 51.944C48.8767 52.088 48.8147 52.197 48.6907 52.271C48.5667 52.345 48.4127 52.382 48.2287 52.382ZM49.9749 51.65C49.8429 51.65 49.7319 51.7 49.6419 51.8C49.5539 51.898 49.4959 52.013 49.4679 52.145C49.5759 52.177 49.6969 52.193 49.8309 52.193C49.9669 52.193 50.0759 52.17 50.1579 52.124C50.2399 52.078 50.2809 52.015 50.2809 51.935C50.2809 51.855 50.2529 51.788 50.1969 51.734C50.1429 51.678 50.0689 51.65 49.9749 51.65ZM49.8459 52.382C49.7419 52.382 49.6149 52.367 49.4649 52.337C49.4769 52.479 49.5289 52.6 49.6209 52.7C49.7149 52.8 49.8239 52.85 49.9479 52.85C50.0719 52.85 50.1739 52.82 50.2539 52.76C50.3339 52.698 50.3859 52.667 50.4099 52.667C50.4359 52.667 50.4559 52.675 50.4699 52.691C50.4859 52.705 50.4939 52.723 50.4939 52.745C50.4939 52.801 50.4359 52.865 50.3199 52.937C50.2059 53.009 50.0819 53.045 49.9479 53.045C49.7399 53.045 49.5739 52.972 49.4499 52.826C49.3279 52.678 49.2629 52.502 49.2549 52.298C49.1489 52.264 49.0959 52.212 49.0959 52.142C49.0959 52.096 49.1129 52.066 49.1469 52.052C49.1589 52.048 49.1739 52.046 49.1919 52.046C49.2119 52.046 49.2389 52.055 49.2729 52.073C49.3189 51.891 49.4019 51.743 49.5219 51.629C49.6439 51.513 49.7859 51.455 49.9479 51.455C50.1119 51.455 50.2439 51.5 50.3439 51.59C50.4439 51.68 50.4939 51.798 50.4939 51.944C50.4939 52.088 50.4319 52.197 50.3079 52.271C50.1839 52.345 50.0299 52.382 49.8459 52.382ZM51.0881 52.313L51.0971 52.877C51.0971 52.979 51.0591 53.03 50.9831 53.03C50.8911 53.03 50.8451 52.962 50.8451 52.826C50.8451 52.688 50.8651 52.488 50.9051 52.226C50.9051 52.142 50.8961 52.025 50.8781 51.875C50.8621 51.723 50.8541 51.631 50.8541 51.599C50.8541 51.567 50.8651 51.538 50.8871 51.512C50.9091 51.484 50.9371 51.47 50.9711 51.47C51.0051 51.47 51.0331 51.484 51.0551 51.512C51.0771 51.538 51.0881 51.565 51.0881 51.593C51.0881 51.621 51.0871 51.666 51.0851 51.728C51.0851 51.79 51.0851 51.833 51.0851 51.857C51.1231 51.757 51.1851 51.667 51.2711 51.587C51.3591 51.509 51.4461 51.47 51.5321 51.47C51.6201 51.47 51.6891 51.488 51.7391 51.524C51.7911 51.558 51.8171 51.597 51.8171 51.641C51.8171 51.685 51.8061 51.719 51.7841 51.743C51.7621 51.767 51.7331 51.779 51.6971 51.779C51.6631 51.779 51.6251 51.761 51.5831 51.725C51.5451 51.687 51.5131 51.668 51.4871 51.668C51.4211 51.668 51.3441 51.74 51.2561 51.884C51.1681 52.026 51.1121 52.169 51.0881 52.313Z" fill="#F0F0F0"/>
<path d="M45.4468 53.6H51.8651V53.75H45.4468V53.6Z" fill="#F0F0F0"/>
</g>
<g filter="url(#filter1_i_96_170)">
<circle cx="45" cy="25" r="1" fill="#F45353"/>
</g>
<rect x="35" y="25" width="20" height="20" rx="4" fill="#40B95C"/>
<path d="M41.4922 32.1956L44.0178 34.8067L47.2816 33.2115L45.5787 36.4204L48.1044 39.0315L44.5263 38.4036L42.8235 41.6125L42.315 38.0156L38.7369 37.3877L42.0007 35.7925L41.4922 32.1956Z" fill="#E9B14B"/>
<g filter="url(#filter2_d_96_170)">
<path d="M35 29C35 26.7909 36.7909 25 39 25H51C53.2091 25 55 26.7909 55 29V31H35V29Z" fill="#40B95C"/>
</g>
<mask id="mask2_96_170" style="mask-type:alpha" maskUnits="userSpaceOnUse" x="35" y="25" width="20" height="6">
<path d="M35 29C35 26.7909 36.7909 25 39 25H51C53.2091 25 55 26.7909 55 29V31H35V29Z" fill="#40B95C"/>
</mask>
<g mask="url(#mask2_96_170)">
<path d="M49.764 30.06C49.4173 30.06 49.1733 29.9933 49.032 29.86C48.8933 29.724 48.824 29.524 48.824 29.26C48.824 29.1853 48.8293 29.1067 48.84 29.024C48.8507 28.9387 48.864 28.848 48.88 28.752C48.9173 28.536 48.9667 28.3467 49.028 28.184C49.092 28.0187 49.1773 27.8813 49.284 27.772C49.3907 27.66 49.5267 27.5773 49.692 27.524C49.86 27.468 50.0667 27.44 50.312 27.44C50.3787 27.44 50.4587 27.4453 50.552 27.456C50.6453 27.4667 50.736 27.48 50.824 27.496C50.912 27.5093 50.98 27.5253 51.028 27.544L50.808 28.156C50.712 28.1373 50.612 28.124 50.508 28.116C50.404 28.1053 50.3173 28.1 50.248 28.1C50.0987 28.1 49.9853 28.112 49.908 28.136C49.8307 28.16 49.7853 28.2147 49.772 28.3L49.576 29.432H49.828C49.9053 29.432 49.9693 29.424 50.02 29.408C50.0707 29.3893 50.1027 29.3413 50.116 29.264L50.136 29.156H49.944L50.052 28.544H50.968L50.732 29.88C50.564 29.9413 50.3933 29.9867 50.22 30.016C50.0493 30.0453 49.8973 30.06 49.764 30.06ZM49.24 27.632L48.016 27.5H49.42C49.388 27.5187 49.3573 27.5387 49.328 27.56C49.2987 27.5813 49.2693 27.6053 49.24 27.632ZM48.96 28.044L47.464 27.884H49.04C49.0267 27.9107 49.0133 27.9373 49 27.964C48.9867 27.988 48.9733 28.0147 48.96 28.044ZM48.828 28.432L47.276 28.268H48.876L48.828 28.432ZM48.752 28.82L47.18 28.652H48.78L48.768 28.732C48.7653 28.748 48.7627 28.764 48.76 28.78C48.7573 28.7933 48.7547 28.8067 48.752 28.82ZM48.712 29.204L47.136 29.036H48.724C48.716 29.0947 48.712 29.1507 48.712 29.204ZM48.744 29.588L47.188 29.42H48.716C48.7213 29.4493 48.7253 29.4787 48.728 29.508C48.7333 29.5347 48.7387 29.5613 48.744 29.588ZM48.956 29.956L47.572 29.808H48.836C48.8707 29.8693 48.9107 29.9187 48.956 29.956ZM52.8344 30.06C52.4877 30.06 52.2437 29.992 52.1024 29.856C51.9637 29.72 51.8944 29.5187 51.8944 29.252C51.8944 29.1773 51.8984 29.0987 51.9064 29.016C51.9171 28.9333 51.9304 28.8453 51.9464 28.752C51.9971 28.4613 52.0717 28.22 52.1704 28.028C52.2691 27.8333 52.4077 27.6867 52.5864 27.588C52.7651 27.4893 53.0011 27.44 53.2944 27.44C53.6411 27.44 53.8837 27.508 54.0224 27.644C54.1637 27.7773 54.2344 27.9787 54.2344 28.248C54.2344 28.3573 54.2251 28.4827 54.2064 28.624C54.1904 28.7653 54.1611 28.9093 54.1184 29.056C54.0784 29.2027 54.0237 29.3413 53.9544 29.472C53.8851 29.6027 53.7984 29.7147 53.6944 29.808C53.5877 29.9013 53.4637 29.9667 53.3224 30.004C53.1811 30.0413 53.0184 30.06 52.8344 30.06ZM52.3064 27.632L51.0824 27.5H52.4864C52.4544 27.5187 52.4237 27.5387 52.3944 27.56C52.3651 27.5813 52.3357 27.6053 52.3064 27.632ZM52.0264 28.044L50.5304 27.884H52.1064C52.0931 27.9107 52.0797 27.9373 52.0664 27.964C52.0531 27.988 52.0397 28.0147 52.0264 28.044ZM52.6504 29.376H52.9664C53.0544 29.376 53.1264 29.3653 53.1824 29.344C53.2411 29.3227 53.2797 29.2627 53.2984 29.164L53.4824 28.124H53.1624C53.0744 28.124 53.0024 28.1347 52.9464 28.156C52.8904 28.1773 52.8531 28.2373 52.8344 28.336L52.6504 29.376ZM51.8944 28.432L50.3424 28.268H51.9424L51.8944 28.432ZM51.8184 28.82L50.2464 28.652H51.8464L51.8344 28.732C51.8317 28.748 51.8291 28.764 51.8264 28.78C51.8237 28.7933 51.8211 28.8067 51.8184 28.82ZM51.7784 29.204L50.2024 29.036H51.7904C51.7824 29.0947 51.7784 29.1507 51.7784 29.204ZM51.8104 29.588L50.2544 29.42H51.7824C51.7877 29.4493 51.7917 29.4787 51.7944 29.508C51.7997 29.5347 51.8051 29.5613 51.8104 29.588ZM52.0224 29.956L50.6384 29.808H51.9024C51.9371 29.8693 51.9771 29.9187 52.0224 29.956ZM55.8969 30L56.7849 27.884H57.7769L57.9329 30H57.2329L57.2169 29.676H56.7129L56.5889 30H55.8969ZM56.5809 28.056L54.9489 27.884H56.6529L56.5809 28.056ZM56.4209 28.444L54.7849 28.268H56.4929L56.4209 28.444ZM56.9249 29.104H57.2169V28.496H57.1609L56.9249 29.104ZM56.2569 28.828L54.6209 28.652H56.3329L56.2569 28.828ZM56.0969 29.212L54.4569 29.036H56.1689L56.0969 29.212ZM55.9329 29.596L54.2929 29.42H56.0089L55.9329 29.596ZM55.7689 29.984L54.1289 29.808H55.8449L55.7689 29.984Z" fill="#F0F0F0"/>
</g>
<rect x="44" y="45" width="14" height="2" transform="rotate(-90 44 45)" fill="#F45353"/>
<g filter="url(#filter3_d_96_170)">
<rect x="44" y="31" width="6" height="2" transform="rotate(-90 44 31)" fill="#F45353"/>
</g>
<rect x="44.6" y="23.5" width="5" height="2" rx="1" transform="rotate(-30 44.6 23.5)" fill="#F45353"/>
<rect width="5" height="2" rx="1" transform="matrix(-0.866025 -0.5 -0.5 0.866025 45.3301 23.5)" fill="#F45353"/>
<path d="M30 79H34L36 85H28L30 79Z" fill="#C38C74"/>
<path d="M28 71H36L40 79H24L28 71Z" fill="#40B95C"/>
<path d="M29 65H35L38 71H26L29 65Z" fill="#40B95C"/>
<path d="M30 61H34L36 65H28L30 61Z" fill="#40B95C"/>
<path d="M31 59H33L34 61H30L31 59Z" fill="#40B95C"/>
<path d="M31.5 58H32.5L33 59H31L31.5 58Z" fill="#40B95C"/>
<path d="M32 57L32.5 58H31.5L32 57Z" fill="#40B95C"/>
<g filter="url(#filter4_i_96_170)">
<circle cx="36" cy="77" r="1" fill="#F45353"/>
</g>
<g filter="url(#filter5_i_96_170)">
<circle cx="28" cy="77" r="1" fill="#F45353"/>
</g>
<g filter="url(#filter6_i_96_170)">
<circle cx="32" cy="73" r="1" fill="#F45353"/>
</g>
<g filter="url(#filter7_i_96_170)">
<circle cx="34" cy="68" r="1" fill="#F45353"/>
</g>
<g filter="url(#filter8_i_96_170)">
<circle cx="30" cy="68" r="1" fill="#F45353"/>
</g>
<g filter="url(#filter9_i_96_170)">
<circle cx="32" cy="62" r="1" fill="#F45353"/>
</g>
<path d="M32 54.5L32.3368 55.5365H33.4266L32.5449 56.1771L32.8817 57.2135L32 56.5729L31.1183 57.2135L31.4551 56.1771L30.5734 55.5365H31.6632L32 54.5Z" fill="#E9B14B"/>
</g>
</g>
<defs>
<filter id="filter0_i_96_170" x="39.2216" y="45" width="16" height="11" filterUnits="userSpaceOnUse" color-interpolation-filters="sRGB">
<feFlood flood-opacity="0" result="BackgroundImageFix"/>
<feBlend mode="normal" in="SourceGraphic" in2="BackgroundImageFix" result="shape"/>
<feColorMatrix in="SourceAlpha" type="matrix" values="0 0 0 0 0 0 0 0 0 0 0 0 0 0 0 0 0 0 127 0" result="hardAlpha"/>
<feOffset dy="1"/>
<feGaussianBlur stdDeviation="1.5"/>
<feComposite in2="hardAlpha" operator="arithmetic" k2="-1" k3="1"/>
<feColorMatrix type="matrix" values="0 0 0 0 0 0 0 0 0 0 0 0 0 0 0 0 0 0 0.25 0"/>
<feBlend mode="normal" in2="shape" result="effect1_innerShadow_96_170"/>
</filter>
<filter id="filter1_i_96_170" x="44" y="24" width="2" height="2" filterUnits="userSpaceOnUse" color-interpolation-filters="sRGB">
<feFlood flood-opacity="0" result="BackgroundImageFix"/>
<feBlend mode="normal" in="SourceGraphic" in2="BackgroundImageFix" result="shape"/>
<feColorMatrix in="SourceAlpha" type="matrix" values="0 0 0 0 0 0 0 0 0 0 0 0 0 0 0 0 0 0 127 0" result="hardAlpha"/>
<feOffset/>
<feGaussianBlur stdDeviation="0.5"/>
<feComposite in2="hardAlpha" operator="arithmetic" k2="-1" k3="1"/>
<feColorMatrix type="matrix" values="0 0 0 0 0 0 0 0 0 0 0 0 0 0 0 0 0 0 0.25 0"/>
<feBlend mode="normal" in2="shape" result="effect1_innerShadow_96_170"/>
</filter>
<filter id="filter2_d_96_170" x="32.5" y="23.5" width="25" height="11" filterUnits="userSpaceOnUse" color-interpolation-filters="sRGB">
<feFlood flood-opacity="0" result="BackgroundImageFix"/>
<feColorMatrix in="SourceAlpha" type="matrix" values="0 0 0 0 0 0 0 0 0 0 0 0 0 0 0 0 0 0 127 0" result="hardAlpha"/>
<feOffset dy="1"/>
<feGaussianBlur stdDeviation="1.25"/>
<feComposite in2="hardAlpha" operator="out"/>
<feColorMatrix type="matrix" values="0 0 0 0 0.0194792 0 0 0 0 0.0509156 0 0 0 0 0.0916667 0 0 0 0.2 0"/>
<feBlend mode="normal" in2="BackgroundImageFix" result="effect1_dropShadow_96_170"/>
<feBlend mode="normal" in="SourceGraphic" in2="effect1_dropShadow_96_170" result="shape"/>
</filter>
<filter id="filter3_d_96_170" x="41.5" y="23.5" width="7" height="11" filterUnits="userSpaceOnUse" color-interpolation-filters="sRGB">
<feFlood flood-opacity="0" result="BackgroundImageFix"/>
<feColorMatrix in="SourceAlpha" type="matrix" values="0 0 0 0 0 0 0 0 0 0 0 0 0 0 0 0 0 0 127 0" result="hardAlpha"/>
<feOffset dy="1"/>
<feGaussianBlur stdDeviation="1.25"/>
<feComposite in2="hardAlpha" operator="out"/>
<feColorMatrix type="matrix" values="0 0 0 0 0.0194792 0 0 0 0 0.0509156 0 0 0 0 0.0916667 0 0 0 0.2 0"/>
<feBlend mode="normal" in2="BackgroundImageFix" result="effect1_dropShadow_96_170"/>
<feBlend mode="normal" in="SourceGraphic" in2="effect1_dropShadow_96_170" result="shape"/>
</filter>
<filter id="filter4_i_96_170" x="35" y="76" width="2" height="2" filterUnits="userSpaceOnUse" color-interpolation-filters="sRGB">
<feFlood flood-opacity="0" result="BackgroundImageFix"/>
<feBlend mode="normal" in="SourceGraphic" in2="BackgroundImageFix" result="shape"/>
<feColorMatrix in="SourceAlpha" type="matrix" values="0 0 0 0 0 0 0 0 0 0 0 0 0 0 0 0 0 0 127 0" result="hardAlpha"/>
<feMorphology radius="1" operator="dilate" in="SourceAlpha" result="effect1_innerShadow_96_170"/>
<feOffset dx="1" dy="1"/>
<feGaussianBlur stdDeviation="0.05"/>
<feComposite in2="hardAlpha" operator="arithmetic" k2="-1" k3="1"/>
<feColorMatrix type="matrix" values="0 0 0 0 0.941667 0 0 0 0 0.941667 0 0 0 0 0.941667 0 0 0 0.15 0"/>
<feBlend mode="normal" in2="shape" result="effect1_innerShadow_96_170"/>
</filter>
<filter id="filter5_i_96_170" x="27" y="76" width="2" height="2" filterUnits="userSpaceOnUse" color-interpolation-filters="sRGB">
<feFlood flood-opacity="0" result="BackgroundImageFix"/>
<feBlend mode="normal" in="SourceGraphic" in2="BackgroundImageFix" result="shape"/>
<feColorMatrix in="SourceAlpha" type="matrix" values="0 0 0 0 0 0 0 0 0 0 0 0 0 0 0 0 0 0 127 0" result="hardAlpha"/>
<feMorphology radius="1" operator="dilate" in="SourceAlpha" result="effect1_innerShadow_96_170"/>
<feOffset dx="1" dy="1"/>
<feGaussianBlur stdDeviation="0.05"/>
<feComposite in2="hardAlpha" operator="arithmetic" k2="-1" k3="1"/>
<feColorMatrix type="matrix" values="0 0 0 0 0.941667 0 0 0 0 0.941667 0 0 0 0 0.941667 0 0 0 0.15 0"/>
<feBlend mode="normal" in2="shape" result="effect1_innerShadow_96_170"/>
</filter>
<filter id="filter6_i_96_170" x="31" y="72" width="2" height="2" filterUnits="userSpaceOnUse" color-interpolation-filters="sRGB">
<feFlood flood-opacity="0" result="BackgroundImageFix"/>
<feBlend mode="normal" in="SourceGraphic" in2="BackgroundImageFix" result="shape"/>
<feColorMatrix in="SourceAlpha" type="matrix" values="0 0 0 0 0 0 0 0 0 0 0 0 0 0 0 0 0 0 127 0" result="hardAlpha"/>
<feMorphology radius="1" operator="dilate" in="SourceAlpha" result="effect1_innerShadow_96_170"/>
<feOffset dx="1" dy="1"/>
<feGaussianBlur stdDeviation="0.05"/>
<feComposite in2="hardAlpha" operator="arithmetic" k2="-1" k3="1"/>
<feColorMatrix type="matrix" values="0 0 0 0 0.941667 0 0 0 0 0.941667 0 0 0 0 0.941667 0 0 0 0.15 0"/>
<feBlend mode="normal" in2="shape" result="effect1_innerShadow_96_170"/>
</filter>
<filter id="filter7_i_96_170" x="33" y="67" width="2" height="2" filterUnits="userSpaceOnUse" color-interpolation-filters="sRGB">
<feFlood flood-opacity="0" result="BackgroundImageFix"/>
<feBlend mode="normal" in="SourceGraphic" in2="BackgroundImageFix" result="shape"/>
<feColorMatrix in="SourceAlpha" type="matrix" values="0 0 0 0 0 0 0 0 0 0 0 0 0 0 0 0 0 0 127 0" result="hardAlpha"/>
<feMorphology radius="1" operator="dilate" in="SourceAlpha" result="effect1_innerShadow_96_170"/>
<feOffset dx="1" dy="1"/>
<feGaussianBlur stdDeviation="0.05"/>
<feComposite in2="hardAlpha" operator="arithmetic" k2="-1" k3="1"/>
<feColorMatrix type="matrix" values="0 0 0 0 0.941667 0 0 0 0 0.941667 0 0 0 0 0.941667 0 0 0 0.15 0"/>
<feBlend mode="normal" in2="shape" result="effect1_innerShadow_96_170"/>
</filter>
<filter id="filter8_i_96_170" x="29" y="67" width="2" height="2" filterUnits="userSpaceOnUse" color-interpolation-filters="sRGB">
<feFlood flood-opacity="0" result="BackgroundImageFix"/>
<feBlend mode="normal" in="SourceGraphic" in2="BackgroundImageFix" result="shape"/>
<feColorMatrix in="SourceAlpha" type="matrix" values="0 0 0 0 0 0 0 0 0 0 0 0 0 0 0 0 0 0 127 0" result="hardAlpha"/>
<feMorphology radius="1" operator="dilate" in="SourceAlpha" result="effect1_innerShadow_96_170"/>
<feOffset dx="1" dy="1"/>
<feGaussianBlur stdDeviation="0.05"/>
<feComposite in2="hardAlpha" operator="arithmetic" k2="-1" k3="1"/>
<feColorMatrix type="matrix" values="0 0 0 0 0.941667 0 0 0 0 0.941667 0 0 0 0 0.941667 0 0 0 0.15 0"/>
<feBlend mode="normal" in2="shape" result="effect1_innerShadow_96_170"/>
</filter>
<filter id="filter9_i_96_170" x="31" y="61" width="2" height="2" filterUnits="userSpaceOnUse" color-interpolation-filters="sRGB">
<feFlood flood-opacity="0" result="BackgroundImageFix"/>
<feBlend mode="normal" in="SourceGraphic" in2="BackgroundImageFix" result="shape"/>
<feColorMatrix in="SourceAlpha" type="matrix" values="0 0 0 0 0 0 0 0 0 0 0 0 0 0 0 0 0 0 127 0" result="hardAlpha"/>
<feMorphology radius="1" operator="dilate" in="SourceAlpha" result="effect1_innerShadow_96_170"/>
<feOffset dx="1" dy="1"/>
<feGaussianBlur stdDeviation="0.05"/>
<feComposite in2="hardAlpha" operator="arithmetic" k2="-1" k3="1"/>
<feColorMatrix type="matrix" values="0 0 0 0 0.941667 0 0 0 0 0.941667 0 0 0 0 0.941667 0 0 0 0.15 0"/>
<feBlend mode="normal" in2="shape" result="effect1_innerShadow_96_170"/>
</filter>
<clipPath id="clip0_96_170">
<rect width="100" height="100" fill="white"/>
</clipPath>
</defs>
</svg>
