<svg width="48" height="48" viewBox="0 0 48 48" fill="none" xmlns="http://www.w3.org/2000/svg">
<g clip-path="url(#clip0_27_327)">
<path d="M37.3942 11.3666C35.9362 8.78452 36.9886 5.42967 39.7448 3.87335C42.501 2.31702 45.9173 3.14856 47.3753 5.73062C48.8333 8.31269 47.7809 11.6675 45.0247 13.2239C42.2685 14.7802 38.8522 13.9487 37.3942 11.3666Z" fill="#384E54"/>
<path d="M10.7459 11.3666C12.2039 8.78452 11.1515 5.42967 8.39532 3.87335C5.63912 2.31702 2.22282 3.14856 0.764821 5.73062C-0.693176 8.31269 0.35923 11.6675 3.11543 13.2239C5.87164 14.7802 9.28794 13.9487 10.7459 11.3666Z" fill="#384E54"/>
<path d="M24.1375 1.503C22.4789 1.518 20.822 1.57654 19.1634 1.63804C10.2634 1.96744 3 9.04798 3 18C3 22.4679 3 37.5 3 48H45C45 36 45 24 45 18C45 9.04753 37.999 2.26324 29.1147 1.63804C27.456 1.52104 25.7962 1.4895 24.1375 1.503Z" fill="#384E54"/>
<path d="M6.91181 7.02593C7.60116 7.41518 9.63921 8.82799 9.88329 9.49804C10.1584 10.2533 10.1224 11.0966 9.71137 11.8246C9.19143 12.7453 8.20335 13.2475 7.16673 13.2292C6.65691 13.2142 4.58631 12.2735 4.10289 12.0005C2.63658 11.1727 2.0767 9.38785 2.85236 8.01415C3.62803 6.64045 5.44549 6.19793 6.91181 7.02593Z" fill="#76E1FE"/>
<path d="M25.3029 22.983H22.5457C22.0286 22.983 21.6093 23.4023 21.6093 23.9194V27.3437C21.6093 27.8608 22.0286 28.2801 22.5457 28.2801H25.3029C25.8201 28.2801 26.2393 27.8608 26.2393 27.3437V23.9194C26.2393 23.4023 25.8201 22.983 25.3029 22.983Z" fill="black" fill-opacity="0.328502"/>
<path d="M24 4.5C10.5 4.5 6 10.073 6 18V48H42C41.9267 36.9657 42 21 42 18C42 10.0728 37.5 4.5 24 4.5Z" fill="#76E1FE"/>
<path d="M40.6111 7.02593C39.9218 7.41518 37.8837 8.82799 37.6397 9.49804C37.3646 10.2533 37.4006 11.0966 37.8116 11.8246C38.3315 12.7453 39.3196 13.2475 40.3562 13.2292C40.866 13.2142 42.9366 12.2735 43.4201 12.0005C44.8864 11.1727 45.4462 9.38785 44.6706 8.01415C43.8949 6.64045 42.0774 6.19793 40.6111 7.02593Z" fill="#76E1FE"/>
<path d="M31.7636 21.9686C35.6189 21.9686 38.7442 18.8434 38.7442 14.9881C38.7442 11.1328 35.6189 8.00739 31.7636 8.00739C27.9083 8.00739 24.783 11.1328 24.783 14.9881C24.783 18.8434 27.9083 21.9686 31.7636 21.9686Z" fill="white"/>
<path d="M15.5092 22.2354C19.5119 22.2354 22.7567 18.9908 22.7567 14.9881C22.7567 10.9854 19.5119 7.7406 15.5092 7.7406C11.5066 7.7406 8.26178 10.9854 8.26178 14.9881C8.26178 18.9908 11.5066 22.2354 15.5092 22.2354Z" fill="white"/>
<path d="M25.586 23.3328H22.2626C21.6613 23.3328 21.1738 23.8203 21.1738 24.4217V28.4035C21.1738 29.0049 21.6613 29.4922 22.2626 29.4922H25.586C26.1873 29.4922 26.6748 29.0049 26.6748 28.4035V24.4217C26.6748 23.8203 26.1873 23.3328 25.586 23.3328Z" fill="black" fill-opacity="0.329412"/>
<path d="M25.586 22.2947H22.2626C21.6613 22.2947 21.1738 22.7821 21.1738 23.3835V27.3653C21.1738 27.9667 21.6613 28.4542 22.2626 28.4542H25.586C26.1873 28.4542 26.6748 27.9667 26.6748 27.3653V23.3835C26.6748 22.7821 26.1873 22.2947 25.586 22.2947Z" fill="#FFFCFB"/>
<path d="M29.9996 24.2501C29.9996 25.5071 28.6928 26.1524 26.7825 25.999C26.747 25.999 26.7105 25.0983 26.4012 25.1241C25.6457 25.1871 24.7574 25.0941 23.8723 25.0941C22.9529 25.0941 22.0628 25.3681 21.3441 25.1197C21.1787 25.0627 21.0766 25.9953 20.9518 25.992C19.0862 25.9425 17.8336 25.4846 17.8336 24.2494C17.8336 22.4317 20.557 20.9583 23.9166 20.9583C27.2761 20.9583 29.9996 22.4324 29.9996 24.2501Z" fill="black" fill-opacity="0.329412"/>
<path d="M29.9661 23.0074C29.9661 23.8601 29.3156 24.2903 28.259 24.5074C27.8211 24.5974 27.3134 24.6515 26.7534 24.6824C25.9073 24.7304 24.9417 24.7289 23.9165 24.7289C22.9073 24.7289 21.9558 24.7289 21.1192 24.6854C20.6598 24.6599 20.235 24.6209 19.8544 24.5594C18.6337 24.3617 17.867 23.9339 17.867 23.0078C17.867 21.2676 20.5755 19.8569 23.9165 19.8569C27.2576 19.8569 29.9661 21.2672 29.9661 23.0074Z" fill="#C38C74"/>
<path d="M23.9166 22.2475C25.6399 22.2475 27.0368 21.3451 27.0368 20.2319C27.0368 19.1187 25.6399 18.2162 23.9166 18.2162C22.1933 18.2162 20.7963 19.1187 20.7963 20.2319C20.7963 21.3451 22.1933 22.2475 23.9166 22.2475Z" fill="#23201F"/>
<path d="M18.6213 17.9326C20.2475 17.9326 21.5659 16.6144 21.5659 14.9881C21.5659 13.3618 20.2475 12.0434 18.6213 12.0434C16.995 12.0434 15.6767 13.3618 15.6767 14.9881C15.6767 16.6144 16.995 17.9326 18.6213 17.9326Z" fill="#171311"/>
<path d="M34.6652 17.9326C36.2914 17.9326 37.6098 16.6144 37.6098 14.9881C37.6098 13.3618 36.2914 12.0434 34.6652 12.0434C33.0389 12.0434 31.7206 13.3618 31.7206 14.9881C31.7206 16.6144 33.0389 17.9326 34.6652 17.9326Z" fill="#171311"/>
<path d="M7.50827 10.3658C5.75262 8.74053 4.46782 9.20757 4.44202 9.24627" stroke="#384E54" stroke-width="0.397309" stroke-linecap="round"/>
<path d="M6.57784 9.82947C4.84 9.88347 4.55778 10.775 4.56962 10.808" stroke="#384E54" stroke-width="0.397309" stroke-linecap="round"/>
<path d="M39.9458 10.2153C41.7014 8.59007 42.9863 9.0573 43.0121 9.096" stroke="#384E54" stroke-width="0.397309" stroke-linecap="round"/>
<path d="M40.9827 9.46619C42.7205 9.52019 43.0027 10.4115 42.9909 10.4445" stroke="#384E54" stroke-width="0.397309" stroke-linecap="round"/>
</g>
<defs>
<clipPath id="clip0_27_327">
<rect width="48" height="48" fill="white"/>
</clipPath>
</defs>
</svg>
