<svg width="100" height="100" viewBox="0 0 100 100" fill="none" xmlns="http://www.w3.org/2000/svg">
<g clip-path="url(#clip0_97_267)">
<mask id="mask0_97_267" style="mask-type:alpha" maskUnits="userSpaceOnUse" x="0" y="0" width="100" height="100">
<circle cx="50" cy="50" r="50" fill="#D9D9D9"/>
</mask>
<g mask="url(#mask0_97_267)">
<g filter="url(#filter0_n_97_267)">
<path d="M33.1566 97.0776C43.0234 100.608 53.75 100.949 63.821 98.0519C73.892 95.1552 82.7983 89.1674 89.2817 80.9345C95.7652 72.7016 99.498 62.6398 99.9529 52.1703C100.408 41.7009 97.5617 31.3532 91.8167 22.589L50 50L33.1566 97.0776Z" fill="#3C3939"/>
</g>
<path d="M91.8266 22.6041C87.4806 15.9688 81.6183 10.4627 74.7239 6.5405C67.8296 2.61833 60.101 0.392691 52.1766 0.0473983C44.2522 -0.297894 36.3593 1.24707 29.15 4.55469C21.9406 7.86231 15.6216 12.8377 10.7149 19.0698C5.80814 25.3019 2.45451 32.612 0.930989 40.3962C-0.592536 48.1805 -0.242245 56.2155 1.95293 63.8376C4.1481 71.4597 8.12517 78.4502 13.5556 84.2317C18.9861 90.0132 25.7141 94.4197 33.184 97.0874L50 50L91.8266 22.6041Z" fill="#2A2A2A"/>
<g filter="url(#filter1_g_97_267)">
<path fill-rule="evenodd" clip-rule="evenodd" d="M45.7439 28.7379C46.5406 27.3204 46.9629 26.1304 47.8299 25.1092C50.5729 21.8783 55.8336 20.4422 60.23 21.5989C64.581 22.7438 66.6512 26.2394 65.0344 29.7102C63.443 33.1266 58.7109 35.3108 53.7603 35.1991C41.0684 34.9127 35.0147 25.8778 37.3727 18.0161C39.9915 9.28453 49.672 2.29888 62.567 -0.184841C84.4209 -4.39469 100.559 3.82042 105.48 16.7827C107.25 21.4424 107.461 26.2623 105.641 31.3118C105.614 30.9749 105.574 30.6399 105.565 30.301C105.557 29.9584 105.593 29.6107 105.589 29.2674C105.472 19.9555 101.07 12.3376 91.1994 6.98019C79.9238 0.860555 61.4162 2.31596 50.5164 10.0803C43.8516 14.8276 41.2707 21.6437 44.2461 26.7234C44.6314 27.3827 45.1759 27.9819 45.7439 28.7379Z" fill="#FA5A34"/>
</g>
<g filter="url(#filter2_g_97_267)">
<path fill-rule="evenodd" clip-rule="evenodd" d="M51.2501 -5.1771C50.1677 -4.16 52.3332 -6.67298 51.2501 -5.1771C54.6748 -8.39498 47.417 -7.69673 51.7365 -5.43259C56.0114 -3.19175 58.6133 -33.1419 51.7365 -5.43259C49.4649 -1.75931 56.5352 -5.00887 51.4514 -6.16331C38.418 -9.12299 47.3676 3.54536 51.2501 -5.1771C55.5621 -14.8647 37.496 -4.93355 51.2501 -5.1771C74.5602 -5.5905 89.6836 7.3703 92.3646 23.573C93.3294 29.3979 92.6575 35.0881 89.8482 40.6271C89.8829 40.2269 89.9035 39.8263 89.9573 39.4274C90.0119 39.0244 90.1132 38.6245 90.1726 38.2215C91.7705 27.2883 88.6379 17.4538 79.4497 9.13676C68.9534 -0.363731 63.9219 -12.0194 51.2501 -5.1771C43.5019 -0.9936 49.6063 -11.9987 51.7365 -5.43259C75.5938 -33.1678 50.804 -6.18015 51.2501 -5.1771Z" fill="#FA5A34"/>
</g>
<g filter="url(#filter3_g_97_267)">
<rect x="50.4836" y="49.8015" width="1" height="54.778" transform="rotate(20.2277 50.4836 49.8015)" fill="#F0F0F0" fill-opacity="0.2"/>
</g>
<g filter="url(#filter4_g_97_267)">
<rect x="92.761" y="21.6625" width="1" height="58.0959" transform="rotate(57.7933 92.761 21.6625)" fill="#F0F0F0" fill-opacity="0.2"/>
</g>
<g filter="url(#filter5_g_97_267)">
<path d="M60.4507 16.7305L60.437 17.978C60.437 18.1216 60.1602 18.321 59.6064 18.5762C58.5674 19.0547 57.5465 19.2939 56.5439 19.2939C55.4434 19.2939 54.4886 19.0433 53.6797 18.542C52.7979 17.9951 52.1895 17.2021 51.8545 16.1631C51.6768 15.6071 51.5879 15.0067 51.5879 14.3618C51.5879 13.717 51.6745 13.1348 51.8477 12.6152C52.0208 12.0934 52.2624 11.6423 52.5723 11.2617C52.8844 10.8789 53.2536 10.5531 53.6797 10.2842C54.5273 9.7487 55.5379 9.48096 56.7114 9.48096C57.8029 9.48096 58.7508 9.76009 59.5552 10.3184C59.6668 10.4049 59.7227 10.4004 59.7227 10.3047V9.95605C59.7227 9.86719 59.7375 9.80794 59.7671 9.77832C59.799 9.74642 59.8696 9.73047 59.979 9.73047C60.0884 9.73047 60.1659 9.74528 60.2114 9.7749C60.2593 9.80452 60.2832 9.86491 60.2832 9.95605L60.2388 12.5469C60.2388 12.6335 60.2205 12.6904 60.1841 12.7178C60.1476 12.7428 60.0713 12.7554 59.9551 12.7554C59.8389 12.7554 59.7614 12.744 59.7227 12.7212C59.6839 12.6961 59.6646 12.6471 59.6646 12.5742L59.7227 11.4258C59.7227 11.3164 59.5199 11.0999 59.1143 10.7764C58.4124 10.2204 57.5933 9.94238 56.6567 9.94238C56.1623 9.94238 55.6951 10.054 55.2554 10.2773C54.8179 10.5007 54.4408 10.806 54.124 11.1934C53.8096 11.5785 53.5601 12.0444 53.3755 12.5913C53.1909 13.1359 53.0986 13.6794 53.0986 14.2217C53.0986 14.764 53.159 15.2573 53.2798 15.7017C53.4006 16.146 53.576 16.5539 53.8062 16.9253C54.0363 17.2944 54.3063 17.6191 54.6162 17.8994C55.2747 18.4941 56.0483 18.7915 56.937 18.7915C57.7231 18.7915 58.3555 18.6468 58.834 18.3574C59.055 18.223 59.1689 18.1193 59.1758 18.0464C59.2031 17.8071 59.2168 17.4004 59.2168 16.8262C59.2168 16.2497 59.1849 15.9614 59.1211 15.9614H57.9009C57.7983 15.9614 57.7471 15.8783 57.7471 15.7119C57.7471 15.5433 57.7938 15.459 57.8872 15.459L59.7637 15.5L61.0249 15.459C61.1274 15.459 61.1787 15.5433 61.1787 15.7119C61.1787 15.8783 61.1274 15.9614 61.0249 15.9614H60.5908C60.5316 15.9614 60.4928 16.0184 60.4746 16.1323C60.4587 16.244 60.4507 16.4434 60.4507 16.7305ZM53.4507 47.041L51.7417 47.0854C51.646 47.0854 51.5845 47.0672 51.5571 47.0308C51.5321 46.9943 51.5195 46.9237 51.5195 46.8188C51.5195 46.7118 51.5366 46.6457 51.5708 46.6206C51.6073 46.5933 51.6825 46.5796 51.7964 46.5796H52.6372C52.7124 46.5796 52.75 45.2306 52.75 42.5327V39.2993C52.75 38.4972 52.7272 38.0962 52.6816 38.0962H51.8545C51.7565 38.0962 51.6916 38.0802 51.6597 38.0483C51.63 38.0164 51.6152 37.9469 51.6152 37.8398C51.6152 37.7327 51.6323 37.6644 51.6665 37.6348C51.703 37.6051 51.7793 37.5903 51.8955 37.5903L53.478 37.6348C53.478 37.6348 54.0386 37.62 55.1597 37.5903C55.2736 37.5903 55.3431 37.6051 55.3682 37.6348C55.3955 37.6644 55.4092 37.7316 55.4092 37.8364C55.4092 37.939 55.3932 38.0085 55.3613 38.0449C55.3294 38.0791 55.2565 38.0962 55.1426 38.0962H54.165C54.0898 38.0962 54.0522 39.0851 54.0522 41.063V44.9424C54.0522 45.9974 54.0807 46.5249 54.1377 46.5249C55.0286 46.5249 55.9185 46.5124 56.8071 46.4873C57.7323 46.46 58.2301 46.444 58.3008 46.4395C58.3737 46.4326 58.4204 46.4178 58.4409 46.395C58.4637 46.37 58.4842 46.2913 58.5024 46.1592L58.6733 44.9561C58.687 44.8558 58.7394 44.8114 58.8306 44.8228C58.9217 44.8319 58.9878 44.841 59.0288 44.8501C59.1359 44.8729 59.1895 44.9219 59.1895 44.9971C59.1895 45.0358 59.1439 45.3343 59.0527 45.8926C58.9616 46.4486 58.9103 46.7744 58.8989 46.8701C58.8898 46.9635 58.8625 47.0228 58.8169 47.0479C58.7713 47.0729 58.6813 47.0854 58.5469 47.0854L53.4507 47.041ZM52.9038 75.041L51.728 75.0854C51.6346 75.0854 51.5765 75.0672 51.5537 75.0308C51.5309 74.9966 51.5195 74.9248 51.5195 74.8154C51.5195 74.7038 51.5343 74.6366 51.564 74.6138C51.5936 74.591 51.6665 74.5796 51.7827 74.5796H52.4287C52.4902 74.5796 52.5256 74.3768 52.5347 73.9712C52.5461 73.5633 52.5597 73.0882 52.5757 72.5459C52.6349 70.5316 52.6646 68.3817 52.6646 66.0962H51.7554C51.6756 66.0962 51.6232 66.0802 51.5981 66.0483C51.5731 66.0164 51.5605 65.9515 51.5605 65.8535C51.5605 65.7555 51.5731 65.6872 51.5981 65.6484C51.6232 65.6097 51.6756 65.5903 51.7554 65.5903C51.7554 65.5903 52.2783 65.6051 53.3242 65.6348L54.0933 65.5903C54.1343 65.5903 54.1639 65.5938 54.1821 65.6006C54.2004 65.6051 54.214 65.6086 54.2231 65.6108C54.2323 65.6131 54.2425 65.6188 54.2539 65.6279C54.2653 65.637 54.2744 65.6439 54.2812 65.6484C54.2881 65.653 54.2972 65.6621 54.3086 65.6758C54.3223 65.6895 54.3314 65.6997 54.3359 65.7065C54.3405 65.7134 54.3507 65.7271 54.3667 65.7476C54.3826 65.7658 54.394 65.7795 54.4009 65.7886L60.085 72.7749C60.1943 72.9116 60.2604 72.9686 60.2832 72.9458C60.3105 72.9185 60.3242 72.833 60.3242 72.6895V72.1016L60.2969 66.8379C60.2969 66.3434 60.2923 66.0962 60.2832 66.0962H58.981C58.9035 66.0962 58.8556 66.0825 58.8374 66.0552C58.8215 66.0256 58.8135 65.9743 58.8135 65.9014C58.8135 65.8285 58.8135 65.7817 58.8135 65.7612C58.8158 65.7384 58.8192 65.7134 58.8237 65.686C58.8283 65.6564 58.8363 65.637 58.8477 65.6279C58.8773 65.6029 58.9217 65.5903 58.981 65.5903L60.4917 65.6348L61.6812 65.5903C61.7746 65.5903 61.8304 65.6086 61.8486 65.645C61.8691 65.6792 61.8794 65.7521 61.8794 65.8638C61.8794 65.9731 61.8623 66.0392 61.8281 66.062C61.7939 66.0848 61.7176 66.0962 61.5991 66.0962H60.9668C60.9303 66.0962 60.911 66.3867 60.9087 66.9678C60.9064 67.5465 60.8905 68.4945 60.8608 69.8115C60.8312 71.1286 60.8016 72.3101 60.772 73.356C60.7446 74.3996 60.731 74.9294 60.731 74.9453C60.731 75.1777 60.6694 75.2939 60.5464 75.2939C60.4871 75.2939 60.429 75.2575 60.3721 75.1846C60.3151 75.1117 60.2809 75.0684 60.2695 75.0547C55.6758 69.4743 53.355 66.6567 53.3071 66.6021C53.2593 66.5451 53.2262 66.5212 53.208 66.5303C53.1829 66.5462 53.1704 67.1672 53.1704 68.3931L53.1567 73.1953C53.1567 74.1182 53.175 74.5796 53.2114 74.5796H54.4146C54.492 74.5796 54.5399 74.5944 54.5581 74.624C54.5763 74.6514 54.5854 74.7095 54.5854 74.7983C54.5854 74.8849 54.5832 74.9442 54.5786 74.9761C54.5672 75.049 54.5125 75.0854 54.4146 75.0854L52.9038 75.041ZM60.4507 86.7305L60.437 87.978C60.437 88.1216 60.1602 88.321 59.6064 88.5762C58.5674 89.0547 57.5465 89.2939 56.5439 89.2939C55.4434 89.2939 54.4886 89.0433 53.6797 88.542C52.7979 87.9951 52.1895 87.2021 51.8545 86.1631C51.6768 85.6071 51.5879 85.0067 51.5879 84.3618C51.5879 83.717 51.6745 83.1348 51.8477 82.6152C52.0208 82.0934 52.2624 81.6423 52.5723 81.2617C52.8844 80.8789 53.2536 80.5531 53.6797 80.2842C54.5273 79.7487 55.5379 79.481 56.7114 79.481C57.8029 79.481 58.7508 79.7601 59.5552 80.3184C59.6668 80.4049 59.7227 80.4004 59.7227 80.3047V79.9561C59.7227 79.8672 59.7375 79.8079 59.7671 79.7783C59.799 79.7464 59.8696 79.7305 59.979 79.7305C60.0884 79.7305 60.1659 79.7453 60.2114 79.7749C60.2593 79.8045 60.2832 79.8649 60.2832 79.9561L60.2388 82.5469C60.2388 82.6335 60.2205 82.6904 60.1841 82.7178C60.1476 82.7428 60.0713 82.7554 59.9551 82.7554C59.8389 82.7554 59.7614 82.744 59.7227 82.7212C59.6839 82.6961 59.6646 82.6471 59.6646 82.5742L59.7227 81.4258C59.7227 81.3164 59.5199 81.0999 59.1143 80.7764C58.4124 80.2204 57.5933 79.9424 56.6567 79.9424C56.1623 79.9424 55.6951 80.054 55.2554 80.2773C54.8179 80.5007 54.4408 80.806 54.124 81.1934C53.8096 81.5785 53.5601 82.0444 53.3755 82.5913C53.1909 83.1359 53.0986 83.6794 53.0986 84.2217C53.0986 84.764 53.159 85.2573 53.2798 85.7017C53.4006 86.146 53.576 86.5539 53.8062 86.9253C54.0363 87.2944 54.3063 87.6191 54.6162 87.8994C55.2747 88.4941 56.0483 88.7915 56.937 88.7915C57.7231 88.7915 58.3555 88.6468 58.834 88.3574C59.055 88.223 59.1689 88.1193 59.1758 88.0464C59.2031 87.8071 59.2168 87.4004 59.2168 86.8262C59.2168 86.2497 59.1849 85.9614 59.1211 85.9614H57.9009C57.7983 85.9614 57.7471 85.8783 57.7471 85.7119C57.7471 85.5433 57.7938 85.459 57.8872 85.459L59.7637 85.5L61.0249 85.459C61.1274 85.459 61.1787 85.5433 61.1787 85.7119C61.1787 85.8783 61.1274 85.9614 61.0249 85.9614H60.5908C60.5316 85.9614 60.4928 86.0184 60.4746 86.1323C60.4587 86.244 60.4507 86.4434 60.4507 86.7305Z" fill="#FA5A34"/>
<path d="M52.2783 31.0996C52.0618 30.7624 51.8921 30.3761 51.769 29.9409C51.6483 29.5034 51.5879 29.0374 51.5879 28.543C51.5879 28.0462 51.646 27.57 51.7622 27.1143C51.8807 26.6585 52.0448 26.2484 52.2544 25.8838C52.464 25.5169 52.717 25.1842 53.0132 24.8857C53.3094 24.585 53.6341 24.3343 53.9873 24.1338C54.721 23.7168 55.522 23.5083 56.3901 23.5083C57.7459 23.5083 58.8545 23.9925 59.7158 24.9609C60.5316 25.8838 60.9395 27.0516 60.9395 28.4644C60.9395 29.1616 60.821 29.8053 60.584 30.3955C60.3493 30.9834 60.0234 31.4824 59.6064 31.8926C59.1895 32.3027 58.6859 32.6229 58.0957 32.853C57.5078 33.0809 56.9473 33.1948 56.4141 33.1948C55.8809 33.1948 55.4285 33.1493 55.0571 33.0581C54.688 32.967 54.3325 32.8359 53.9907 32.665C53.6489 32.4919 53.3322 32.272 53.0405 32.0054C52.7489 31.7365 52.4948 31.4346 52.2783 31.0996ZM52.9893 28.2285C52.9893 28.6888 53.036 29.1479 53.1294 29.606C53.2228 30.0617 53.3618 30.4787 53.5464 30.8569C53.731 31.2329 53.9508 31.5599 54.2061 31.8379C54.7415 32.4258 55.4046 32.7197 56.1953 32.7197C57.248 32.7197 58.0934 32.2572 58.7314 31.332C59.2897 30.5254 59.5688 29.5273 59.5688 28.3379C59.5688 27.6178 59.4481 26.9263 59.2065 26.2632C58.9673 25.6047 58.6004 25.0635 58.106 24.6396C57.5955 24.2021 56.9769 23.9834 56.25 23.9834C55.113 23.9834 54.2197 24.5804 53.5703 25.7744C53.1829 26.4876 52.9893 27.3057 52.9893 28.2285Z" fill="#2A2A2A"/>
</g>
<g filter="url(#filter6_g_97_267)">
<path d="M58.3628 51.959L59.4258 51.9146C59.5192 51.9146 59.575 51.9316 59.5933 51.9658C59.6115 51.9977 59.6206 52.0706 59.6206 52.1846C59.6206 52.2985 59.6081 52.3657 59.583 52.3862C59.5557 52.409 59.485 52.4204 59.3711 52.4204H58.9507C58.8664 52.4204 58.2477 53.8275 57.0947 56.6416C56.9967 56.8763 56.9432 57.0039 56.9341 57.0244L55.4507 60.4697C55.4142 60.5654 55.3345 60.6885 55.2114 60.8389C55.0861 60.9915 54.9881 61.1453 54.9175 61.3003C54.8104 61.535 54.717 61.6546 54.6372 61.6592C54.5415 61.6592 54.4857 61.617 54.4697 61.5327L52.7915 56.8159C51.7342 53.8856 51.1737 52.4204 51.1099 52.4204H50.6211C50.555 52.4204 50.5129 52.4045 50.4946 52.3726C50.4764 52.3429 50.4673 52.278 50.4673 52.1777C50.4673 52.0775 50.4764 52.0091 50.4946 51.9727C50.5129 51.9339 50.555 51.9146 50.6211 51.9146L51.9233 51.959L53.5332 51.9146C53.6152 51.9146 53.6665 51.9328 53.687 51.9692C53.7052 52.0034 53.7144 52.0763 53.7144 52.188C53.7144 52.2996 53.703 52.3657 53.6802 52.3862C53.6551 52.409 53.5868 52.4204 53.4751 52.4204H52.7061C52.6969 52.4204 52.6924 52.4535 52.6924 52.5195C52.6924 52.5856 52.8097 52.981 53.0444 53.7056C53.2769 54.4302 53.4489 54.9508 53.5605 55.2676C53.6699 55.5843 53.7337 55.7529 53.752 55.7734C53.7702 55.7962 53.8135 55.8076 53.8818 55.8076H56.7085C56.8065 55.8076 56.8714 55.7951 56.9033 55.77C56.9329 55.745 56.966 55.6834 57.0024 55.5854C57.7498 53.6965 58.1281 52.646 58.1372 52.4341L58.1235 52.4204H57.0469C56.9694 52.4204 56.9227 52.4056 56.9067 52.376C56.8885 52.3486 56.8794 52.2985 56.8794 52.2256C56.8794 52.1527 56.8805 52.1048 56.8828 52.082C56.8828 52.0615 56.8851 52.0365 56.8896 52.0068C56.8942 51.9795 56.9033 51.9613 56.917 51.9521C56.9443 51.9271 56.9876 51.9146 57.0469 51.9146L58.3628 51.959ZM54.0356 56.228C53.9513 56.228 53.9092 56.2417 53.9092 56.269C53.9092 56.2987 53.924 56.3499 53.9536 56.4229L55.1123 59.8271C55.1442 59.9388 55.1704 59.9946 55.1909 59.9946C55.2114 59.9946 55.2422 59.9388 55.2832 59.8271L56.6538 56.4673C56.7017 56.3511 56.7256 56.2816 56.7256 56.2588C56.7256 56.2383 56.6641 56.228 56.541 56.228H54.0356Z" fill="#FA5A34"/>
</g>
<g filter="url(#filter7_g_97_267)">
<path d="M65.3926 61.041L63.8682 61.0854C63.7747 61.0854 63.7166 61.0672 63.6938 61.0308C63.6711 60.9966 63.6597 60.9248 63.6597 60.8154C63.6597 60.7061 63.6779 60.64 63.7144 60.6172C63.7531 60.5921 63.8328 60.5796 63.9536 60.5796H64.6235C64.7078 60.5796 64.75 58.5072 64.75 54.3623V53.6377C64.75 52.6556 64.7318 52.1646 64.6953 52.1646L63.769 52.1953C63.6642 52.1953 63.5959 52.1782 63.564 52.144C63.5343 52.1099 63.5195 52.0358 63.5195 51.9219C63.5195 51.8057 63.5355 51.7339 63.5674 51.7065C63.6016 51.6769 63.6688 51.6621 63.769 51.6621L65.4233 51.6895L67.2554 51.6211C68.4858 51.6211 69.4053 51.9458 70.0137 52.5952C70.4443 53.0555 70.6597 53.6593 70.6597 54.4067C70.6597 55.4504 70.2131 56.1807 69.3198 56.5977C68.7752 56.8529 68.0916 56.9805 67.269 56.9805L66.0522 56.9395C66.0067 56.9395 65.9782 56.9463 65.9668 56.96C65.9577 56.9736 65.9531 57.0044 65.9531 57.0522V57.9751C65.9531 59.7114 65.9725 60.5796 66.0112 60.5796H67.0024C67.0845 60.5796 67.138 60.5955 67.1631 60.6274C67.1882 60.6593 67.2007 60.7243 67.2007 60.8223C67.2007 60.9202 67.1882 60.9886 67.1631 61.0273C67.138 61.0661 67.0845 61.0854 67.0024 61.0854L65.3926 61.041ZM65.9668 56.4507C65.9668 56.5441 66.1309 56.5908 66.459 56.5908C66.7871 56.5908 67.0913 56.5658 67.3716 56.5156C67.6519 56.4632 67.9162 56.3778 68.1646 56.2593C68.4152 56.1385 68.6283 55.987 68.8037 55.8047C69.182 55.415 69.3711 54.8784 69.3711 54.1948C69.3711 53.7619 69.2435 53.3825 68.9883 53.0566C68.4665 52.3981 67.6234 52.0688 66.459 52.0688C66.2539 52.0688 66.1092 52.0734 66.0249 52.0825C65.9862 52.0962 65.9668 52.3343 65.9668 52.7969V56.4507ZM76.952 61.041L75.1576 61.0854C75.0596 61.0854 74.9958 61.0661 74.9662 61.0273C74.9365 60.9909 74.9217 60.9191 74.9217 60.812C74.9217 60.7049 74.94 60.64 74.9764 60.6172C75.0152 60.5921 75.0949 60.5796 75.2157 60.5796H76.1385C76.2228 60.5796 76.265 58.8809 76.265 55.4834V54.1128C76.265 53.4565 76.249 52.9564 76.2171 52.6123C76.1875 52.2682 76.1659 52.0962 76.1522 52.0962H75.2294C75.1337 52.0962 75.0676 52.0825 75.0311 52.0552C74.9947 52.0256 74.9764 51.9549 74.9764 51.8433C74.9764 51.7316 74.9935 51.6621 75.0277 51.6348C75.0619 51.6051 75.1291 51.5903 75.2294 51.5903L76.9794 51.6348C76.9794 51.6348 77.5296 51.62 78.6302 51.5903C78.7123 51.5903 78.7647 51.6097 78.7875 51.6484C78.8125 51.6849 78.8251 51.7578 78.8251 51.8672C78.8251 51.9766 78.8114 52.0426 78.784 52.0654C78.759 52.0859 78.6895 52.0962 78.5755 52.0962H77.6629C77.5809 52.0962 77.5399 52.8197 77.5399 54.2666V56.1567C77.5399 59.1053 77.5809 60.5796 77.6629 60.5796H78.6302C78.71 60.5796 78.7624 60.5955 78.7875 60.6274C78.8125 60.6593 78.8251 60.7243 78.8251 60.8223C78.8251 60.9202 78.8125 60.9886 78.7875 61.0273C78.7624 61.0661 78.71 61.0854 78.6302 61.0854L76.952 61.041Z" fill="#FA5A34"/>
</g>
<g filter="url(#filter8_g_97_267)">
<path d="M60.4507 16.7305L60.437 17.978C60.437 18.1216 60.1602 18.321 59.6064 18.5762C58.5674 19.0547 57.5465 19.2939 56.5439 19.2939C55.4434 19.2939 54.4886 19.0433 53.6797 18.542C52.7979 17.9951 52.1895 17.2021 51.8545 16.1631C51.6768 15.6071 51.5879 15.0067 51.5879 14.3618C51.5879 13.717 51.6745 13.1348 51.8477 12.6152C52.0208 12.0934 52.2624 11.6423 52.5723 11.2617C52.8844 10.8789 53.2536 10.5531 53.6797 10.2842C54.5273 9.7487 55.5379 9.48096 56.7114 9.48096C57.8029 9.48096 58.7508 9.76009 59.5552 10.3184C59.6668 10.4049 59.7227 10.4004 59.7227 10.3047V9.95605C59.7227 9.86719 59.7375 9.80794 59.7671 9.77832C59.799 9.74642 59.8696 9.73047 59.979 9.73047C60.0884 9.73047 60.1659 9.74528 60.2114 9.7749C60.2593 9.80452 60.2832 9.86491 60.2832 9.95605L60.2388 12.5469C60.2388 12.6335 60.2205 12.6904 60.1841 12.7178C60.1476 12.7428 60.0713 12.7554 59.9551 12.7554C59.8389 12.7554 59.7614 12.744 59.7227 12.7212C59.6839 12.6961 59.6646 12.6471 59.6646 12.5742L59.7227 11.4258C59.7227 11.3164 59.5199 11.0999 59.1143 10.7764C58.4124 10.2204 57.5933 9.94238 56.6567 9.94238C56.1623 9.94238 55.6951 10.054 55.2554 10.2773C54.8179 10.5007 54.4408 10.806 54.124 11.1934C53.8096 11.5785 53.5601 12.0444 53.3755 12.5913C53.1909 13.1359 53.0986 13.6794 53.0986 14.2217C53.0986 14.764 53.159 15.2573 53.2798 15.7017C53.4006 16.146 53.576 16.5539 53.8062 16.9253C54.0363 17.2944 54.3063 17.6191 54.6162 17.8994C55.2747 18.4941 56.0483 18.7915 56.937 18.7915C57.7231 18.7915 58.3555 18.6468 58.834 18.3574C59.055 18.223 59.1689 18.1193 59.1758 18.0464C59.2031 17.8071 59.2168 17.4004 59.2168 16.8262C59.2168 16.2497 59.1849 15.9614 59.1211 15.9614H57.9009C57.7983 15.9614 57.7471 15.8783 57.7471 15.7119C57.7471 15.5433 57.7938 15.459 57.8872 15.459L59.7637 15.5L61.0249 15.459C61.1274 15.459 61.1787 15.5433 61.1787 15.7119C61.1787 15.8783 61.1274 15.9614 61.0249 15.9614H60.5908C60.5316 15.9614 60.4928 16.0184 60.4746 16.1323C60.4587 16.244 60.4507 16.4434 60.4507 16.7305ZM53.4507 47.041L51.7417 47.0854C51.646 47.0854 51.5845 47.0672 51.5571 47.0308C51.5321 46.9943 51.5195 46.9237 51.5195 46.8188C51.5195 46.7118 51.5366 46.6457 51.5708 46.6206C51.6073 46.5933 51.6825 46.5796 51.7964 46.5796H52.6372C52.7124 46.5796 52.75 45.2306 52.75 42.5327V39.2993C52.75 38.4972 52.7272 38.0962 52.6816 38.0962H51.8545C51.7565 38.0962 51.6916 38.0802 51.6597 38.0483C51.63 38.0164 51.6152 37.9469 51.6152 37.8398C51.6152 37.7327 51.6323 37.6644 51.6665 37.6348C51.703 37.6051 51.7793 37.5903 51.8955 37.5903L53.478 37.6348C53.478 37.6348 54.0386 37.62 55.1597 37.5903C55.2736 37.5903 55.3431 37.6051 55.3682 37.6348C55.3955 37.6644 55.4092 37.7316 55.4092 37.8364C55.4092 37.939 55.3932 38.0085 55.3613 38.0449C55.3294 38.0791 55.2565 38.0962 55.1426 38.0962H54.165C54.0898 38.0962 54.0522 39.0851 54.0522 41.063V44.9424C54.0522 45.9974 54.0807 46.5249 54.1377 46.5249C55.0286 46.5249 55.9185 46.5124 56.8071 46.4873C57.7323 46.46 58.2301 46.444 58.3008 46.4395C58.3737 46.4326 58.4204 46.4178 58.4409 46.395C58.4637 46.37 58.4842 46.2913 58.5024 46.1592L58.6733 44.9561C58.687 44.8558 58.7394 44.8114 58.8306 44.8228C58.9217 44.8319 58.9878 44.841 59.0288 44.8501C59.1359 44.8729 59.1895 44.9219 59.1895 44.9971C59.1895 45.0358 59.1439 45.3343 59.0527 45.8926C58.9616 46.4486 58.9103 46.7744 58.8989 46.8701C58.8898 46.9635 58.8625 47.0228 58.8169 47.0479C58.7713 47.0729 58.6813 47.0854 58.5469 47.0854L53.4507 47.041ZM52.9038 75.041L51.728 75.0854C51.6346 75.0854 51.5765 75.0672 51.5537 75.0308C51.5309 74.9966 51.5195 74.9248 51.5195 74.8154C51.5195 74.7038 51.5343 74.6366 51.564 74.6138C51.5936 74.591 51.6665 74.5796 51.7827 74.5796H52.4287C52.4902 74.5796 52.5256 74.3768 52.5347 73.9712C52.5461 73.5633 52.5597 73.0882 52.5757 72.5459C52.6349 70.5316 52.6646 68.3817 52.6646 66.0962H51.7554C51.6756 66.0962 51.6232 66.0802 51.5981 66.0483C51.5731 66.0164 51.5605 65.9515 51.5605 65.8535C51.5605 65.7555 51.5731 65.6872 51.5981 65.6484C51.6232 65.6097 51.6756 65.5903 51.7554 65.5903C51.7554 65.5903 52.2783 65.6051 53.3242 65.6348L54.0933 65.5903C54.1343 65.5903 54.1639 65.5938 54.1821 65.6006C54.2004 65.6051 54.214 65.6086 54.2231 65.6108C54.2323 65.6131 54.2425 65.6188 54.2539 65.6279C54.2653 65.637 54.2744 65.6439 54.2812 65.6484C54.2881 65.653 54.2972 65.6621 54.3086 65.6758C54.3223 65.6895 54.3314 65.6997 54.3359 65.7065C54.3405 65.7134 54.3507 65.7271 54.3667 65.7476C54.3826 65.7658 54.394 65.7795 54.4009 65.7886L60.085 72.7749C60.1943 72.9116 60.2604 72.9686 60.2832 72.9458C60.3105 72.9185 60.3242 72.833 60.3242 72.6895V72.1016L60.2969 66.8379C60.2969 66.3434 60.2923 66.0962 60.2832 66.0962H58.981C58.9035 66.0962 58.8556 66.0825 58.8374 66.0552C58.8215 66.0256 58.8135 65.9743 58.8135 65.9014C58.8135 65.8285 58.8135 65.7817 58.8135 65.7612C58.8158 65.7384 58.8192 65.7134 58.8237 65.686C58.8283 65.6564 58.8363 65.637 58.8477 65.6279C58.8773 65.6029 58.9217 65.5903 58.981 65.5903L60.4917 65.6348L61.6812 65.5903C61.7746 65.5903 61.8304 65.6086 61.8486 65.645C61.8691 65.6792 61.8794 65.7521 61.8794 65.8638C61.8794 65.9731 61.8623 66.0392 61.8281 66.062C61.7939 66.0848 61.7176 66.0962 61.5991 66.0962H60.9668C60.9303 66.0962 60.911 66.3867 60.9087 66.9678C60.9064 67.5465 60.8905 68.4945 60.8608 69.8115C60.8312 71.1286 60.8016 72.3101 60.772 73.356C60.7446 74.3996 60.731 74.9294 60.731 74.9453C60.731 75.1777 60.6694 75.2939 60.5464 75.2939C60.4871 75.2939 60.429 75.2575 60.3721 75.1846C60.3151 75.1117 60.2809 75.0684 60.2695 75.0547C55.6758 69.4743 53.355 66.6567 53.3071 66.6021C53.2593 66.5451 53.2262 66.5212 53.208 66.5303C53.1829 66.5462 53.1704 67.1672 53.1704 68.3931L53.1567 73.1953C53.1567 74.1182 53.175 74.5796 53.2114 74.5796H54.4146C54.492 74.5796 54.5399 74.5944 54.5581 74.624C54.5763 74.6514 54.5854 74.7095 54.5854 74.7983C54.5854 74.8849 54.5832 74.9442 54.5786 74.9761C54.5672 75.049 54.5125 75.0854 54.4146 75.0854L52.9038 75.041ZM60.4507 86.7305L60.437 87.978C60.437 88.1216 60.1602 88.321 59.6064 88.5762C58.5674 89.0547 57.5465 89.2939 56.5439 89.2939C55.4434 89.2939 54.4886 89.0433 53.6797 88.542C52.7979 87.9951 52.1895 87.2021 51.8545 86.1631C51.6768 85.6071 51.5879 85.0067 51.5879 84.3618C51.5879 83.717 51.6745 83.1348 51.8477 82.6152C52.0208 82.0934 52.2624 81.6423 52.5723 81.2617C52.8844 80.8789 53.2536 80.5531 53.6797 80.2842C54.5273 79.7487 55.5379 79.481 56.7114 79.481C57.8029 79.481 58.7508 79.7601 59.5552 80.3184C59.6668 80.4049 59.7227 80.4004 59.7227 80.3047V79.9561C59.7227 79.8672 59.7375 79.8079 59.7671 79.7783C59.799 79.7464 59.8696 79.7305 59.979 79.7305C60.0884 79.7305 60.1659 79.7453 60.2114 79.7749C60.2593 79.8045 60.2832 79.8649 60.2832 79.9561L60.2388 82.5469C60.2388 82.6335 60.2205 82.6904 60.1841 82.7178C60.1476 82.7428 60.0713 82.7554 59.9551 82.7554C59.8389 82.7554 59.7614 82.744 59.7227 82.7212C59.6839 82.6961 59.6646 82.6471 59.6646 82.5742L59.7227 81.4258C59.7227 81.3164 59.5199 81.0999 59.1143 80.7764C58.4124 80.2204 57.5933 79.9424 56.6567 79.9424C56.1623 79.9424 55.6951 80.054 55.2554 80.2773C54.8179 80.5007 54.4408 80.806 54.124 81.1934C53.8096 81.5785 53.5601 82.0444 53.3755 82.5913C53.1909 83.1359 53.0986 83.6794 53.0986 84.2217C53.0986 84.764 53.159 85.2573 53.2798 85.7017C53.4006 86.146 53.576 86.5539 53.8062 86.9253C54.0363 87.2944 54.3063 87.6191 54.6162 87.8994C55.2747 88.4941 56.0483 88.7915 56.937 88.7915C57.7231 88.7915 58.3555 88.6468 58.834 88.3574C59.055 88.223 59.1689 88.1193 59.1758 88.0464C59.2031 87.8071 59.2168 87.4004 59.2168 86.8262C59.2168 86.2497 59.1849 85.9614 59.1211 85.9614H57.9009C57.7983 85.9614 57.7471 85.8783 57.7471 85.7119C57.7471 85.5433 57.7938 85.459 57.8872 85.459L59.7637 85.5L61.0249 85.459C61.1274 85.459 61.1787 85.5433 61.1787 85.7119C61.1787 85.8783 61.1274 85.9614 61.0249 85.9614H60.5908C60.5316 85.9614 60.4928 86.0184 60.4746 86.1323C60.4587 86.244 60.4507 86.4434 60.4507 86.7305Z" fill="#FA5A34"/>
<path d="M52.2783 31.0996C52.0618 30.7624 51.8921 30.3761 51.769 29.9409C51.6483 29.5034 51.5879 29.0374 51.5879 28.543C51.5879 28.0462 51.646 27.57 51.7622 27.1143C51.8807 26.6585 52.0448 26.2484 52.2544 25.8838C52.464 25.5169 52.717 25.1842 53.0132 24.8857C53.3094 24.585 53.6341 24.3343 53.9873 24.1338C54.721 23.7168 55.522 23.5083 56.3901 23.5083C57.7459 23.5083 58.8545 23.9925 59.7158 24.9609C60.5316 25.8838 60.9395 27.0516 60.9395 28.4644C60.9395 29.1616 60.821 29.8053 60.584 30.3955C60.3493 30.9834 60.0234 31.4824 59.6064 31.8926C59.1895 32.3027 58.6859 32.6229 58.0957 32.853C57.5078 33.0809 56.9473 33.1948 56.4141 33.1948C55.8809 33.1948 55.4285 33.1493 55.0571 33.0581C54.688 32.967 54.3325 32.8359 53.9907 32.665C53.6489 32.4919 53.3322 32.272 53.0405 32.0054C52.7489 31.7365 52.4948 31.4346 52.2783 31.0996ZM52.9893 28.2285C52.9893 28.6888 53.036 29.1479 53.1294 29.606C53.2228 30.0617 53.3618 30.4787 53.5464 30.8569C53.731 31.2329 53.9508 31.5599 54.2061 31.8379C54.7415 32.4258 55.4046 32.7197 56.1953 32.7197C57.248 32.7197 58.0934 32.2572 58.7314 31.332C59.2897 30.5254 59.5688 29.5273 59.5688 28.3379C59.5688 27.6178 59.4481 26.9263 59.2065 26.2632C58.9673 25.6047 58.6004 25.0635 58.106 24.6396C57.5955 24.2021 56.9769 23.9834 56.25 23.9834C55.113 23.9834 54.2197 24.5804 53.5703 25.7744C53.1829 26.4876 52.9893 27.3057 52.9893 28.2285Z" fill="#2A2A2A"/>
</g>
<g filter="url(#filter9_g_97_267)">
<path d="M58.3628 51.959L59.4258 51.9146C59.5192 51.9146 59.575 51.9316 59.5933 51.9658C59.6115 51.9977 59.6206 52.0706 59.6206 52.1846C59.6206 52.2985 59.6081 52.3657 59.583 52.3862C59.5557 52.409 59.485 52.4204 59.3711 52.4204H58.9507C58.8664 52.4204 58.2477 53.8275 57.0947 56.6416C56.9967 56.8763 56.9432 57.0039 56.9341 57.0244L55.4507 60.4697C55.4142 60.5654 55.3345 60.6885 55.2114 60.8389C55.0861 60.9915 54.9881 61.1453 54.9175 61.3003C54.8104 61.535 54.717 61.6546 54.6372 61.6592C54.5415 61.6592 54.4857 61.617 54.4697 61.5327L52.7915 56.8159C51.7342 53.8856 51.1737 52.4204 51.1099 52.4204H50.6211C50.555 52.4204 50.5129 52.4045 50.4946 52.3726C50.4764 52.3429 50.4673 52.278 50.4673 52.1777C50.4673 52.0775 50.4764 52.0091 50.4946 51.9727C50.5129 51.9339 50.555 51.9146 50.6211 51.9146L51.9233 51.959L53.5332 51.9146C53.6152 51.9146 53.6665 51.9328 53.687 51.9692C53.7052 52.0034 53.7144 52.0763 53.7144 52.188C53.7144 52.2996 53.703 52.3657 53.6802 52.3862C53.6551 52.409 53.5868 52.4204 53.4751 52.4204H52.7061C52.6969 52.4204 52.6924 52.4535 52.6924 52.5195C52.6924 52.5856 52.8097 52.981 53.0444 53.7056C53.2769 54.4302 53.4489 54.9508 53.5605 55.2676C53.6699 55.5843 53.7337 55.7529 53.752 55.7734C53.7702 55.7962 53.8135 55.8076 53.8818 55.8076H56.7085C56.8065 55.8076 56.8714 55.7951 56.9033 55.77C56.9329 55.745 56.966 55.6834 57.0024 55.5854C57.7498 53.6965 58.1281 52.646 58.1372 52.4341L58.1235 52.4204H57.0469C56.9694 52.4204 56.9227 52.4056 56.9067 52.376C56.8885 52.3486 56.8794 52.2985 56.8794 52.2256C56.8794 52.1527 56.8805 52.1048 56.8828 52.082C56.8828 52.0615 56.8851 52.0365 56.8896 52.0068C56.8942 51.9795 56.9033 51.9613 56.917 51.9521C56.9443 51.9271 56.9876 51.9146 57.0469 51.9146L58.3628 51.959ZM54.0356 56.228C53.9513 56.228 53.9092 56.2417 53.9092 56.269C53.9092 56.2987 53.924 56.3499 53.9536 56.4229L55.1123 59.8271C55.1442 59.9388 55.1704 59.9946 55.1909 59.9946C55.2114 59.9946 55.2422 59.9388 55.2832 59.8271L56.6538 56.4673C56.7017 56.3511 56.7256 56.2816 56.7256 56.2588C56.7256 56.2383 56.6641 56.228 56.541 56.228H54.0356Z" fill="#FA5A34"/>
</g>
<g filter="url(#filter10_g_97_267)">
<path d="M65.3926 61.041L63.8682 61.0854C63.7747 61.0854 63.7166 61.0672 63.6938 61.0308C63.6711 60.9966 63.6597 60.9248 63.6597 60.8154C63.6597 60.7061 63.6779 60.64 63.7144 60.6172C63.7531 60.5921 63.8328 60.5796 63.9536 60.5796H64.6235C64.7078 60.5796 64.75 58.5072 64.75 54.3623V53.6377C64.75 52.6556 64.7318 52.1646 64.6953 52.1646L63.769 52.1953C63.6642 52.1953 63.5959 52.1782 63.564 52.144C63.5343 52.1099 63.5195 52.0358 63.5195 51.9219C63.5195 51.8057 63.5355 51.7339 63.5674 51.7065C63.6016 51.6769 63.6688 51.6621 63.769 51.6621L65.4233 51.6895L67.2554 51.6211C68.4858 51.6211 69.4053 51.9458 70.0137 52.5952C70.4443 53.0555 70.6597 53.6593 70.6597 54.4067C70.6597 55.4504 70.2131 56.1807 69.3198 56.5977C68.7752 56.8529 68.0916 56.9805 67.269 56.9805L66.0522 56.9395C66.0067 56.9395 65.9782 56.9463 65.9668 56.96C65.9577 56.9736 65.9531 57.0044 65.9531 57.0522V57.9751C65.9531 59.7114 65.9725 60.5796 66.0112 60.5796H67.0024C67.0845 60.5796 67.138 60.5955 67.1631 60.6274C67.1882 60.6593 67.2007 60.7243 67.2007 60.8223C67.2007 60.9202 67.1882 60.9886 67.1631 61.0273C67.138 61.0661 67.0845 61.0854 67.0024 61.0854L65.3926 61.041ZM65.9668 56.4507C65.9668 56.5441 66.1309 56.5908 66.459 56.5908C66.7871 56.5908 67.0913 56.5658 67.3716 56.5156C67.6519 56.4632 67.9162 56.3778 68.1646 56.2593C68.4152 56.1385 68.6283 55.987 68.8037 55.8047C69.182 55.415 69.3711 54.8784 69.3711 54.1948C69.3711 53.7619 69.2435 53.3825 68.9883 53.0566C68.4665 52.3981 67.6234 52.0688 66.459 52.0688C66.2539 52.0688 66.1092 52.0734 66.0249 52.0825C65.9862 52.0962 65.9668 52.3343 65.9668 52.7969V56.4507ZM76.952 61.041L75.1576 61.0854C75.0596 61.0854 74.9958 61.0661 74.9662 61.0273C74.9365 60.9909 74.9217 60.9191 74.9217 60.812C74.9217 60.7049 74.94 60.64 74.9764 60.6172C75.0152 60.5921 75.0949 60.5796 75.2157 60.5796H76.1385C76.2228 60.5796 76.265 58.8809 76.265 55.4834V54.1128C76.265 53.4565 76.249 52.9564 76.2171 52.6123C76.1875 52.2682 76.1659 52.0962 76.1522 52.0962H75.2294C75.1337 52.0962 75.0676 52.0825 75.0311 52.0552C74.9947 52.0256 74.9764 51.9549 74.9764 51.8433C74.9764 51.7316 74.9935 51.6621 75.0277 51.6348C75.0619 51.6051 75.1291 51.5903 75.2294 51.5903L76.9794 51.6348C76.9794 51.6348 77.5296 51.62 78.6302 51.5903C78.7123 51.5903 78.7647 51.6097 78.7875 51.6484C78.8125 51.6849 78.8251 51.7578 78.8251 51.8672C78.8251 51.9766 78.8114 52.0426 78.784 52.0654C78.759 52.0859 78.6895 52.0962 78.5755 52.0962H77.6629C77.5809 52.0962 77.5399 52.8197 77.5399 54.2666V56.1567C77.5399 59.1053 77.5809 60.5796 77.6629 60.5796H78.6302C78.71 60.5796 78.7624 60.5955 78.7875 60.6274C78.8125 60.6593 78.8251 60.7243 78.8251 60.8223C78.8251 60.9202 78.8125 60.9886 78.7875 61.0273C78.7624 61.0661 78.71 61.0854 78.6302 61.0854L76.952 61.041Z" fill="#FA5A34"/>
</g>
<g filter="url(#filter11_f_97_267)">
<circle cx="12.3252" cy="14.3252" r="12" transform="rotate(-77.4222 12.3252 14.3252)" fill="#D9D9D9"/>
</g>
</g>
</g>
<defs>
<filter id="filter0_n_97_267" x="33.1566" y="22.589" width="66.8434" height="77.411" filterUnits="userSpaceOnUse" color-interpolation-filters="sRGB">
<feFlood flood-opacity="0" result="BackgroundImageFix"/>
<feBlend mode="normal" in="SourceGraphic" in2="BackgroundImageFix" result="shape"/>
<feTurbulence type="fractalNoise" baseFrequency="0.58823525905609131 0.58823525905609131" stitchTiles="stitch" numOctaves="3" result="noise" seed="2270" />
<feColorMatrix in="noise" type="luminanceToAlpha" result="alphaNoise" />
<feComponentTransfer in="alphaNoise" result="coloredNoise1">
<feFuncA type="discrete" tableValues="0 0 0 0 0 0 1 1 1 1 1 1 1 1 1 1 1 1 1 1 1 1 1 1 1 1 1 1 1 1 1 1 1 1 1 1 1 1 1 1 1 1 1 1 0 0 0 0 0 0 0 0 0 0 0 0 0 0 0 0 0 0 0 0 0 0 0 0 0 0 0 0 0 0 0 0 0 0 0 0 0 0 0 0 0 0 0 0 0 0 0 0 0 0 0 0 0 0 0 0 "/>
</feComponentTransfer>
<feComposite operator="in" in2="shape" in="coloredNoise1" result="noise1Clipped" />
<feFlood flood-color="rgba(227, 169, 169, 0.15)" result="color1Flood" />
<feComposite operator="in" in2="noise1Clipped" in="color1Flood" result="color1" />
<feMerge result="effect1_noise_97_267">
<feMergeNode in="shape" />
<feMergeNode in="color1" />
</feMerge>
</filter>
<filter id="filter1_g_97_267" x="34.8719" y="-3.29529" width="74.0385" height="40.4985" filterUnits="userSpaceOnUse" color-interpolation-filters="sRGB">
<feFlood flood-opacity="0" result="BackgroundImageFix"/>
<feBlend mode="normal" in="SourceGraphic" in2="BackgroundImageFix" result="shape"/>
<feTurbulence type="fractalNoise" baseFrequency="2.5 2.5" numOctaves="3" seed="6088" />
<feDisplacementMap in="shape" scale="4" xChannelSelector="R" yChannelSelector="G" result="displacedImage" width="100%" height="100%" />
<feMerge result="effect1_texture_97_267">
<feMergeNode in="displacedImage"/>
</feMerge>
</filter>
<filter id="filter2_g_97_267" x="42.6285" y="-19.9174" width="52.1506" height="62.5446" filterUnits="userSpaceOnUse" color-interpolation-filters="sRGB">
<feFlood flood-opacity="0" result="BackgroundImageFix"/>
<feBlend mode="normal" in="SourceGraphic" in2="BackgroundImageFix" result="shape"/>
<feTurbulence type="fractalNoise" baseFrequency="2.5 2.5" numOctaves="3" seed="6088" />
<feDisplacementMap in="shape" scale="4" xChannelSelector="R" yChannelSelector="G" result="displacedImage" width="100%" height="100%" />
<feMerge result="effect1_texture_97_267">
<feMergeNode in="displacedImage"/>
</feMerge>
</filter>
<filter id="filter3_g_97_267" x="27.544" y="45.8015" width="27.8779" height="59.7454" filterUnits="userSpaceOnUse" color-interpolation-filters="sRGB">
<feFlood flood-opacity="0" result="BackgroundImageFix"/>
<feBlend mode="normal" in="SourceGraphic" in2="BackgroundImageFix" result="shape"/>
<feTurbulence type="fractalNoise" baseFrequency="0.25 0.25" numOctaves="3" seed="5264" />
<feDisplacementMap in="shape" scale="8" xChannelSelector="R" yChannelSelector="G" result="displacedImage" width="100%" height="100%" />
<feMerge result="effect1_texture_97_267">
<feMergeNode in="displacedImage"/>
</feMerge>
</filter>
<filter id="filter4_g_97_267" x="39.6043" y="17.6625" width="57.6897" height="39.8098" filterUnits="userSpaceOnUse" color-interpolation-filters="sRGB">
<feFlood flood-opacity="0" result="BackgroundImageFix"/>
<feBlend mode="normal" in="SourceGraphic" in2="BackgroundImageFix" result="shape"/>
<feTurbulence type="fractalNoise" baseFrequency="0.25 0.25" numOctaves="3" seed="5264" />
<feDisplacementMap in="shape" scale="8" xChannelSelector="R" yChannelSelector="G" result="displacedImage" width="100%" height="100%" />
<feMerge result="effect1_texture_97_267">
<feMergeNode in="displacedImage"/>
</feMerge>
</filter>
<filter id="filter5_g_97_267" x="51.0195" y="8.98096" width="11.3599" height="80.813" filterUnits="userSpaceOnUse" color-interpolation-filters="sRGB">
<feFlood flood-opacity="0" result="BackgroundImageFix"/>
<feBlend mode="normal" in="SourceGraphic" in2="BackgroundImageFix" result="shape"/>
<feTurbulence type="fractalNoise" baseFrequency="5 5" numOctaves="3" seed="4414" />
<feDisplacementMap in="shape" scale="1" xChannelSelector="R" yChannelSelector="G" result="displacedImage" width="100%" height="100%" />
<feMerge result="effect1_texture_97_267">
<feMergeNode in="displacedImage"/>
</feMerge>
</filter>
<filter id="filter6_g_97_267" x="49.9673" y="51.4146" width="10.1533" height="10.7446" filterUnits="userSpaceOnUse" color-interpolation-filters="sRGB">
<feFlood flood-opacity="0" result="BackgroundImageFix"/>
<feBlend mode="normal" in="SourceGraphic" in2="BackgroundImageFix" result="shape"/>
<feTurbulence type="fractalNoise" baseFrequency="5 5" numOctaves="3" seed="4414" />
<feDisplacementMap in="shape" scale="1" xChannelSelector="R" yChannelSelector="G" result="displacedImage" width="100%" height="100%" />
<feMerge result="effect1_texture_97_267">
<feMergeNode in="displacedImage"/>
</feMerge>
</filter>
<filter id="filter7_g_97_267" x="63.0195" y="51.0903" width="16.3055" height="10.4951" filterUnits="userSpaceOnUse" color-interpolation-filters="sRGB">
<feFlood flood-opacity="0" result="BackgroundImageFix"/>
<feBlend mode="normal" in="SourceGraphic" in2="BackgroundImageFix" result="shape"/>
<feTurbulence type="fractalNoise" baseFrequency="5 5" numOctaves="3" seed="4414" />
<feDisplacementMap in="shape" scale="1" xChannelSelector="R" yChannelSelector="G" result="displacedImage" width="100%" height="100%" />
<feMerge result="effect1_texture_97_267">
<feMergeNode in="displacedImage"/>
</feMerge>
</filter>
<filter id="filter8_g_97_267" x="50.5195" y="8.48096" width="12.3599" height="81.813" filterUnits="userSpaceOnUse" color-interpolation-filters="sRGB">
<feFlood flood-opacity="0" result="BackgroundImageFix"/>
<feBlend mode="normal" in="SourceGraphic" in2="BackgroundImageFix" result="shape"/>
<feTurbulence type="fractalNoise" baseFrequency="0.3333333432674408 0.3333333432674408" numOctaves="3" seed="1766" />
<feDisplacementMap in="shape" scale="2" xChannelSelector="R" yChannelSelector="G" result="displacedImage" width="100%" height="100%" />
<feMerge result="effect1_texture_97_267">
<feMergeNode in="displacedImage"/>
</feMerge>
</filter>
<filter id="filter9_g_97_267" x="49.4673" y="50.9146" width="11.1533" height="11.7446" filterUnits="userSpaceOnUse" color-interpolation-filters="sRGB">
<feFlood flood-opacity="0" result="BackgroundImageFix"/>
<feBlend mode="normal" in="SourceGraphic" in2="BackgroundImageFix" result="shape"/>
<feTurbulence type="fractalNoise" baseFrequency="0.3333333432674408 0.3333333432674408" numOctaves="3" seed="1766" />
<feDisplacementMap in="shape" scale="2" xChannelSelector="R" yChannelSelector="G" result="displacedImage" width="100%" height="100%" />
<feMerge result="effect1_texture_97_267">
<feMergeNode in="displacedImage"/>
</feMerge>
</filter>
<filter id="filter10_g_97_267" x="62.5195" y="50.5903" width="17.3055" height="11.4951" filterUnits="userSpaceOnUse" color-interpolation-filters="sRGB">
<feFlood flood-opacity="0" result="BackgroundImageFix"/>
<feBlend mode="normal" in="SourceGraphic" in2="BackgroundImageFix" result="shape"/>
<feTurbulence type="fractalNoise" baseFrequency="0.3333333432674408 0.3333333432674408" numOctaves="3" seed="1766" />
<feDisplacementMap in="shape" scale="2" xChannelSelector="R" yChannelSelector="G" result="displacedImage" width="100%" height="100%" />
<feMerge result="effect1_texture_97_267">
<feMergeNode in="displacedImage"/>
</feMerge>
</filter>
<filter id="filter11_f_97_267" x="-68.4774" y="-66.4774" width="161.605" height="161.605" filterUnits="userSpaceOnUse" color-interpolation-filters="sRGB">
<feFlood flood-opacity="0" result="BackgroundImageFix"/>
<feBlend mode="normal" in="SourceGraphic" in2="BackgroundImageFix" result="shape"/>
<feGaussianBlur stdDeviation="34.4" result="effect1_foregroundBlur_97_267"/>
</filter>
<clipPath id="clip0_97_267">
<rect width="100" height="100" fill="white"/>
</clipPath>
</defs>
</svg>
