<svg width="35" height="48" viewBox="0 0 35 48" fill="none" xmlns="http://www.w3.org/2000/svg">
<g clip-path="url(#clip0_27_320)">
<path d="M4.53595 28.5424C4.53595 27.2131 9.61729 26.4724 11.9809 26.292L12.2106 26.425C11.3015 26.5864 7.65557 27.2226 7.65557 28.0581C7.65557 28.9602 13.2441 29.5584 16.4977 29.5584C22.0097 29.5584 25.7608 28.7323 26.7656 28.4569L28.1724 29.2735C27.2058 29.7388 23.0623 30.9732 16.4977 30.9732C9.19625 30.9732 4.54552 29.5584 4.54552 28.5519L4.53595 28.5424ZM15.6555 47.2003C12.7656 47.2288 9.24409 46.9915 6.27757 46.4977L6.00006 46.6591C8.95701 47.5233 13.0718 48.036 17.5886 47.998C26.469 47.922 33.6652 45.7381 33.8087 43.108L33.7034 43.051C33.1101 43.7727 29.2633 47.0959 15.6555 47.2099V47.2003ZM16.4115 45.5103C23.6747 45.4438 31.8086 44.0385 31.7896 41.6647C31.7896 41.2374 31.5024 40.9431 31.2632 40.7626L31.1483 40.8291C30.4785 42.6616 24.7943 44.0194 16.4115 44.0955C10.9953 44.1429 3.50246 42.8515 3.49289 41.3703C3.48332 39.8796 7.04314 39.063 7.04314 39.063L6.79433 38.9206C4.38283 39.2434 -0.0190766 40.3734 6.22043e-05 42.016C0.0192009 44.3898 10.134 45.5577 16.4115 45.5103ZM32.7847 29.1786C32.6412 31.9606 30.0479 33.6888 27.4545 35.1606L27.6939 35.2935C30.4594 34.5243 35.3876 32.274 34.9762 28.8273C34.7753 27.1086 33.1866 25.8742 31.1197 25.8742C30.4785 25.8742 29.9044 25.9882 29.4355 26.1306L29.3398 26.3775C31.1867 26.0167 32.8805 27.3555 32.7847 29.1786ZM11.4355 37.4488C10.5934 37.6198 8.75605 38.0376 8.75605 38.9206C8.75605 40.1455 12.6891 41.0854 16.4882 41.0854C21.713 41.0854 23.8469 39.7561 23.9523 39.6802L21.78 38.4363C20.8518 38.6547 19.3015 38.9965 16.4977 38.9965C13.3685 38.9965 11.3302 38.4648 11.3302 37.8856C11.3302 37.7622 11.4068 37.6198 11.5503 37.5058L11.445 37.4394L11.4355 37.4488ZM24.268 33.309C23.0623 33.6508 20.3637 34.192 16.4882 34.192C12.6125 34.192 9.58858 33.5463 9.57901 32.7867C9.57901 32.2834 10.1915 32.065 10.1915 32.065L10.0862 31.9986C8.26801 32.3215 6.57423 32.8152 6.5838 33.5463C6.60294 34.8852 11.7608 35.8917 16.4882 35.8917C20.5072 35.8917 24.3542 35.227 26.0958 34.344L24.268 33.2995V33.309Z" fill="#3184A4"/>
<path d="M23.2346 3.43725C23.2346 10.8245 13.0337 13.6445 13.0337 18.8953C13.0337 22.5795 15.4931 24.8962 16.8614 26.349L16.7466 26.4156C15.0242 25.3521 10.4979 22.665 10.4979 18.2307C10.4979 12.0114 22.2108 9.02989 22.2108 1.9655C22.2108 1.09194 22.0767 0.427283 21.9907 0.066466L22.1056 0C22.4787 0.465263 23.2251 1.62368 23.2251 3.43725H23.2346ZM26.584 9.96991L26.4597 9.90345C24.2395 10.6441 17.4069 13.3217 17.4069 18.3066C17.4069 21.1268 20.1821 22.6935 20.1821 25.333C20.1821 26.2731 19.6462 27.1656 19.2059 27.6879L19.4262 27.8113C20.5839 27.0612 22.6318 25.4471 22.6318 23.3676C22.6318 21.6015 20.1725 19.4841 20.1725 17.2147C20.1725 13.6445 24.9188 10.834 26.584 9.96042V9.96991Z" fill="#F29111"/>
</g>
<defs>
<clipPath id="clip0_27_320">
<rect width="35" height="48" fill="white"/>
</clipPath>
</defs>
</svg>
