<svg width="48" height="48" viewBox="0 0 48 48" fill="none" xmlns="http://www.w3.org/2000/svg">
<g clip-path="url(#clip0_27_303)">
<path d="M0 24V0H24H48V24V48H24H0V24ZM21.0129 44.0436C23.8994 43.5448 25.6379 41.699 26.0242 38.723C26.063 38.4236 26.0911 34.8761 26.0923 30.0944L26.0944 21.9742H23.8627H21.6309L21.6297 29.6481C21.629 34.2411 21.6011 37.582 21.5603 37.9697C21.425 39.254 20.9449 39.879 19.928 40.0945C18.4876 40.3998 17.4149 39.8219 16.5343 38.2661C16.4221 38.0678 16.2978 37.9056 16.2581 37.9056C16.1932 37.9056 12.818 39.9163 12.6811 40.0365C12.5384 40.1619 13.3932 41.4695 14.0595 42.145C15.696 43.804 18.2943 44.5135 21.0129 44.0436ZM38.2833 44.079C40.1188 43.8477 41.6148 43.1386 42.7114 41.98C43.1608 41.5053 43.3296 41.2619 43.6012 40.6971C44.0473 39.7695 44.1578 39.3003 44.2019 38.1459C44.2819 36.0564 43.7298 34.5787 42.3917 33.3005C41.4326 32.3842 40.2233 31.6765 37.9399 30.695C35.5981 29.6884 34.8777 29.2281 34.5344 28.5191C34.2961 28.0267 34.3084 27.2824 34.5635 26.7628C34.9415 25.9932 35.6708 25.6377 36.7463 25.6991C37.7712 25.7575 38.4858 26.1896 39.1097 27.1281L39.421 27.5963L40.9935 26.5879C41.8584 26.0332 42.6452 25.5176 42.7419 25.4421L42.9179 25.3047L42.5302 24.73C41.5583 23.2893 40.2719 22.3746 38.6468 21.9687C37.826 21.7637 35.9841 21.7106 35.0901 21.8662C33.6173 22.1226 32.5749 22.6391 31.6154 23.588C30.747 24.4469 30.2774 25.3065 30.0341 26.4829C29.8628 27.3116 29.9318 28.8845 30.1751 29.6962C30.7971 31.7713 32.1948 33.1085 35.067 34.3765C35.6274 34.6238 36.5025 35.0105 37.0117 35.2357C39.0635 36.1432 39.7133 36.7936 39.7133 37.9399C39.7133 39.0004 39.0379 39.7385 37.7633 40.0706C37.0807 40.2485 35.7788 40.1856 35.0638 39.9403C34.0896 39.6059 33.1563 38.8536 32.5149 37.8855C32.3301 37.6065 32.2199 37.4999 32.1459 37.5283C31.933 37.61 28.5665 39.5823 28.5665 39.6253C28.5665 39.7828 29.6032 41.1911 30.0488 41.6391C32.0248 43.6255 34.9663 44.4971 38.2833 44.079Z" fill="#EED94D"/>
<path d="M18.5751 44.1444C16.8127 44.0149 15.1993 43.3005 14.0595 42.145C13.3932 41.4695 12.5384 40.1619 12.6811 40.0365C12.818 39.9163 16.1932 37.9056 16.2581 37.9056C16.2978 37.9056 16.4221 38.0678 16.5343 38.2661C17.4149 39.8219 18.4876 40.3998 19.9279 40.0945C20.9449 39.879 21.425 39.254 21.5603 37.9697C21.6011 37.582 21.629 34.241 21.6297 29.6481L21.6309 21.9742H23.8627H26.0944L26.0923 30.0944C26.091 34.8761 26.063 38.4236 26.0242 38.723C25.5356 42.4868 22.8284 44.4571 18.5751 44.1444ZM35.9095 44.1493C32.8905 43.9394 30.5363 42.6493 29.0389 40.3843C28.7791 39.9913 28.5665 39.6498 28.5665 39.6253C28.5665 39.5823 31.933 37.61 32.1459 37.5283C32.2199 37.4999 32.3301 37.6065 32.5149 37.8855C33.1563 38.8536 34.0896 39.6059 35.0638 39.9403C35.7787 40.1856 37.0807 40.2485 37.7633 40.0706C39.0379 39.7385 39.7133 39.0004 39.7133 37.9399C39.7133 36.7936 39.0635 36.1432 37.0117 35.2357C36.5025 35.0105 35.6274 34.6238 35.067 34.3765C32.1948 33.1085 30.7971 31.7713 30.1751 29.6962C29.9318 28.8845 29.8628 27.3116 30.0341 26.4829C30.2774 25.3065 30.747 24.4469 31.6154 23.588C32.5749 22.6391 33.6173 22.1226 35.0901 21.8662C35.9841 21.7106 37.826 21.7637 38.6468 21.9687C40.2719 22.3746 41.5583 23.2893 42.5302 24.73L42.9179 25.3047L42.7419 25.4421C42.6452 25.5176 41.8584 26.0332 40.9935 26.5879L39.421 27.5963L39.1097 27.1281C38.4858 26.1896 37.7712 25.7575 36.7463 25.6991C35.6708 25.6377 34.9415 25.9932 34.5635 26.7628C34.3992 27.0974 34.37 27.2396 34.3749 27.6802C34.3889 28.9254 34.974 29.4202 37.9399 30.695C40.2233 31.6765 41.4326 32.3842 42.3917 33.3005C43.7298 34.5787 44.2819 36.0564 44.2019 38.1459C44.1578 39.3003 44.0473 39.7695 43.6012 40.6971C42.4503 43.0903 39.5298 44.4011 35.9095 44.1493Z" fill="#31322F"/>
</g>
<defs>
<clipPath id="clip0_27_303">
<rect width="48" height="48" fill="white"/>
</clipPath>
</defs>
</svg>
