<svg width="100" height="100" viewBox="0 0 100 100" fill="none" xmlns="http://www.w3.org/2000/svg">
<g clip-path="url(#clip0_108_26)">
<rect width="100" height="100" rx="8" fill="#916DDE"/>
<g filter="url(#filter0_d_108_26)">
<path d="M30 2C30 0.895429 30.8954 0 32 0H92C96.4183 0 100 3.58172 100 8V92C100 96.4183 96.4183 100 92 100H32C30.8954 100 30 99.1046 30 98V2Z" fill="#EDD2F2"/>
<path d="M32 0.5H92C96.1421 0.5 99.5 3.85786 99.5 8V92C99.5 96.1421 96.1421 99.5 92 99.5H32C31.1716 99.5 30.5 98.8284 30.5 98V2C30.5 1.17157 31.1716 0.5 32 0.5Z" stroke="#8C9A9E"/>
<rect x="72" y="72" width="20" height="20" rx="4" fill="#916DDE"/>
<rect x="44" y="72" width="20" height="20" rx="4" fill="#3F8CE3"/>
<rect x="52" y="64" width="32" height="6" rx="2" fill="#050D17" fill-opacity="0.8"/>
<rect x="44" y="48" width="48" height="8" rx="4" fill="#E9B14B"/>
<rect x="44" y="36" width="48" height="8" rx="4" fill="#3FD3E3"/>
<rect x="52" y="28" width="32" height="6" rx="2" fill="#050D17" fill-opacity="0.8"/>
<path d="M60 12C60 10.8954 60.8954 10 62 10H88C90.2091 10 92 11.7909 92 14V16C92 17.1046 91.1046 18 90 18H64C61.7909 18 60 16.2091 60 14V12Z" fill="#8C9A9E"/>
<path d="M48.9055 8.39835C49.3108 8.25083 49.5135 8.17707 49.7217 8.14782C49.9063 8.12187 50.0937 8.12187 50.2783 8.14782C50.4865 8.17707 50.6892 8.25083 51.0945 8.39835L52.7623 9.00538C53.1676 9.1529 53.3702 9.22666 53.5485 9.33805C53.7066 9.43687 53.8502 9.55731 53.9749 9.69589C54.1156 9.8521 54.2234 10.0389 54.4391 10.4124L55.3265 11.9494C55.5422 12.323 55.65 12.5097 55.7149 12.7097C55.7726 12.887 55.8051 13.0715 55.8116 13.2579C55.8189 13.468 55.7815 13.6804 55.7066 14.1051L55.3984 15.853C55.3235 16.2778 55.2861 16.4901 55.2073 16.685C55.1375 16.8579 55.0438 17.0202 54.929 17.1671C54.7995 17.3328 54.6343 17.4714 54.3039 17.7487L52.9443 18.8895C52.6139 19.1667 52.4487 19.3054 52.2631 19.4041C52.0985 19.4916 51.9224 19.5557 51.74 19.5945C51.5344 19.6382 51.3187 19.6382 50.8874 19.6382H49.1126C48.6813 19.6382 48.4656 19.6382 48.26 19.5945C48.0776 19.5557 47.9015 19.4916 47.7369 19.4041C47.5513 19.3054 47.3861 19.1667 47.0557 18.8895L45.6961 17.7487C45.3657 17.4714 45.2005 17.3328 45.071 17.1671C44.9562 17.0202 44.8625 16.8579 44.7927 16.685C44.7139 16.4901 44.6765 16.2778 44.6016 15.853L44.2934 14.1051C44.2185 13.6804 44.1811 13.468 44.1884 13.2579C44.1949 13.0715 44.2274 12.887 44.2851 12.7097C44.35 12.5097 44.4578 12.323 44.6735 11.9494L45.5609 10.4124C45.7766 10.0389 45.8844 9.8521 46.0251 9.69589C46.1498 9.55731 46.2934 9.43687 46.4515 9.33805C46.6298 9.22666 46.8324 9.1529 47.2377 9.00538L48.9055 8.39835Z" fill="url(#paint0_radial_108_26)"/>
<circle cx="93" cy="7" r="3" fill="#40B95C"/>
</g>
<g filter="url(#filter1_d_108_26)">
<circle cx="37" cy="85" r="3" fill="#050D17" fill-opacity="0.5" shape-rendering="crispEdges"/>
</g>
<g filter="url(#filter2_d_108_26)">
<circle cx="24" cy="85" r="3" fill="#050D17" fill-opacity="0.66" shape-rendering="crispEdges"/>
</g>
<path d="M24 85C24 85 25.1818 81 30.5 81C35.8182 81 37 85 37 85" stroke="#8C9A9E" stroke-width="2" stroke-linecap="round"/>
<g filter="url(#filter3_d_108_26)">
<circle cx="37" cy="51" r="3" fill="#050D17" fill-opacity="0.5" shape-rendering="crispEdges"/>
</g>
<g filter="url(#filter4_d_108_26)">
<circle cx="24" cy="51" r="3" fill="#050D17" fill-opacity="0.66" shape-rendering="crispEdges"/>
</g>
<path d="M24 51C24 51 25.1818 47 30.5 47C35.8182 47 37 51 37 51" stroke="#8C9A9E" stroke-width="2" stroke-linecap="round"/>
<g filter="url(#filter5_d_108_26)">
<circle cx="37" cy="16" r="3" fill="#050D17" fill-opacity="0.5" shape-rendering="crispEdges"/>
</g>
<g filter="url(#filter6_d_108_26)">
<circle cx="24" cy="16" r="3" fill="#050D17" fill-opacity="0.66" shape-rendering="crispEdges"/>
</g>
<path d="M24 16C24 16 25.1818 12 30.5 12C35.8182 12 37 16 37 16" stroke="#8C9A9E" stroke-width="2" stroke-linecap="round"/>
<path d="M12.0502 88C12.0502 88 9.62403 82.2318 10.0502 77.5C10.4992 72.5152 14.4311 67.5035 14.5502 62.5C14.7021 56.1176 9.97036 55.3837 10.0502 49C10.1279 42.795 14.5383 42.2055 14.5502 36C14.5602 30.8118 10.3599 27.679 10.0502 22.5C9.78965 18.1416 14.5502 11 14.5502 11" stroke="#F0F0F0" stroke-width="3" stroke-linecap="round"/>
</g>
<defs>
<filter id="filter0_d_108_26" x="8" y="-20" width="110" height="140" filterUnits="userSpaceOnUse" color-interpolation-filters="sRGB">
<feFlood flood-opacity="0" result="BackgroundImageFix"/>
<feColorMatrix in="SourceAlpha" type="matrix" values="0 0 0 0 0 0 0 0 0 0 0 0 0 0 0 0 0 0 127 0" result="hardAlpha"/>
<feOffset dx="-2"/>
<feGaussianBlur stdDeviation="10"/>
<feComposite in2="hardAlpha" operator="out"/>
<feColorMatrix type="matrix" values="0 0 0 0 0.0194792 0 0 0 0 0.0509156 0 0 0 0 0.0916667 0 0 0 0.3 0"/>
<feBlend mode="normal" in2="BackgroundImageFix" result="effect1_dropShadow_108_26"/>
<feBlend mode="normal" in="SourceGraphic" in2="effect1_dropShadow_108_26" result="shape"/>
</filter>
<filter id="filter1_d_108_26" x="32" y="80" width="10" height="10" filterUnits="userSpaceOnUse" color-interpolation-filters="sRGB">
<feFlood flood-opacity="0" result="BackgroundImageFix"/>
<feColorMatrix in="SourceAlpha" type="matrix" values="0 0 0 0 0 0 0 0 0 0 0 0 0 0 0 0 0 0 127 0" result="hardAlpha"/>
<feOffset/>
<feGaussianBlur stdDeviation="1"/>
<feComposite in2="hardAlpha" operator="out"/>
<feColorMatrix type="matrix" values="0 0 0 0 0.0194792 0 0 0 0 0.0509156 0 0 0 0 0.0916667 0 0 0 0.5 0"/>
<feBlend mode="normal" in2="BackgroundImageFix" result="effect1_dropShadow_108_26"/>
<feBlend mode="normal" in="SourceGraphic" in2="effect1_dropShadow_108_26" result="shape"/>
</filter>
<filter id="filter2_d_108_26" x="17" y="78" width="14" height="14" filterUnits="userSpaceOnUse" color-interpolation-filters="sRGB">
<feFlood flood-opacity="0" result="BackgroundImageFix"/>
<feColorMatrix in="SourceAlpha" type="matrix" values="0 0 0 0 0 0 0 0 0 0 0 0 0 0 0 0 0 0 127 0" result="hardAlpha"/>
<feOffset/>
<feGaussianBlur stdDeviation="2"/>
<feComposite in2="hardAlpha" operator="out"/>
<feColorMatrix type="matrix" values="0 0 0 0 0.0194792 0 0 0 0 0.0509156 0 0 0 0 0.0916667 0 0 0 0.75 0"/>
<feBlend mode="normal" in2="BackgroundImageFix" result="effect1_dropShadow_108_26"/>
<feBlend mode="normal" in="SourceGraphic" in2="effect1_dropShadow_108_26" result="shape"/>
</filter>
<filter id="filter3_d_108_26" x="32" y="46" width="10" height="10" filterUnits="userSpaceOnUse" color-interpolation-filters="sRGB">
<feFlood flood-opacity="0" result="BackgroundImageFix"/>
<feColorMatrix in="SourceAlpha" type="matrix" values="0 0 0 0 0 0 0 0 0 0 0 0 0 0 0 0 0 0 127 0" result="hardAlpha"/>
<feOffset/>
<feGaussianBlur stdDeviation="1"/>
<feComposite in2="hardAlpha" operator="out"/>
<feColorMatrix type="matrix" values="0 0 0 0 0.0194792 0 0 0 0 0.0509156 0 0 0 0 0.0916667 0 0 0 0.5 0"/>
<feBlend mode="normal" in2="BackgroundImageFix" result="effect1_dropShadow_108_26"/>
<feBlend mode="normal" in="SourceGraphic" in2="effect1_dropShadow_108_26" result="shape"/>
</filter>
<filter id="filter4_d_108_26" x="17" y="44" width="14" height="14" filterUnits="userSpaceOnUse" color-interpolation-filters="sRGB">
<feFlood flood-opacity="0" result="BackgroundImageFix"/>
<feColorMatrix in="SourceAlpha" type="matrix" values="0 0 0 0 0 0 0 0 0 0 0 0 0 0 0 0 0 0 127 0" result="hardAlpha"/>
<feOffset/>
<feGaussianBlur stdDeviation="2"/>
<feComposite in2="hardAlpha" operator="out"/>
<feColorMatrix type="matrix" values="0 0 0 0 0.0194792 0 0 0 0 0.0509156 0 0 0 0 0.0916667 0 0 0 0.75 0"/>
<feBlend mode="normal" in2="BackgroundImageFix" result="effect1_dropShadow_108_26"/>
<feBlend mode="normal" in="SourceGraphic" in2="effect1_dropShadow_108_26" result="shape"/>
</filter>
<filter id="filter5_d_108_26" x="32" y="11" width="10" height="10" filterUnits="userSpaceOnUse" color-interpolation-filters="sRGB">
<feFlood flood-opacity="0" result="BackgroundImageFix"/>
<feColorMatrix in="SourceAlpha" type="matrix" values="0 0 0 0 0 0 0 0 0 0 0 0 0 0 0 0 0 0 127 0" result="hardAlpha"/>
<feOffset/>
<feGaussianBlur stdDeviation="1"/>
<feComposite in2="hardAlpha" operator="out"/>
<feColorMatrix type="matrix" values="0 0 0 0 0.0194792 0 0 0 0 0.0509156 0 0 0 0 0.0916667 0 0 0 0.5 0"/>
<feBlend mode="normal" in2="BackgroundImageFix" result="effect1_dropShadow_108_26"/>
<feBlend mode="normal" in="SourceGraphic" in2="effect1_dropShadow_108_26" result="shape"/>
</filter>
<filter id="filter6_d_108_26" x="17" y="9" width="14" height="14" filterUnits="userSpaceOnUse" color-interpolation-filters="sRGB">
<feFlood flood-opacity="0" result="BackgroundImageFix"/>
<feColorMatrix in="SourceAlpha" type="matrix" values="0 0 0 0 0 0 0 0 0 0 0 0 0 0 0 0 0 0 127 0" result="hardAlpha"/>
<feOffset/>
<feGaussianBlur stdDeviation="2"/>
<feComposite in2="hardAlpha" operator="out"/>
<feColorMatrix type="matrix" values="0 0 0 0 0.0194792 0 0 0 0 0.0509156 0 0 0 0 0.0916667 0 0 0 0.75 0"/>
<feBlend mode="normal" in2="BackgroundImageFix" result="effect1_dropShadow_108_26"/>
<feBlend mode="normal" in="SourceGraphic" in2="effect1_dropShadow_108_26" result="shape"/>
</filter>
<radialGradient id="paint0_radial_108_26" cx="0" cy="0" r="1" gradientUnits="userSpaceOnUse" gradientTransform="translate(50 14) rotate(90) scale(6)">
<stop stop-color="#EDD2F2"/>
<stop offset="1" stop-color="#916DDE"/>
</radialGradient>
<clipPath id="clip0_108_26">
<rect width="100" height="100" rx="8" fill="white"/>
</clipPath>
</defs>
</svg>
