<svg width="22" height="48" viewBox="0 0 22 48" fill="none" xmlns="http://www.w3.org/2000/svg">
<path d="M10.6293 0.129944L11.9107 2.53645C12.1987 2.98063 12.511 3.37367 12.8771 3.73978C13.9539 4.80312 14.9579 5.939 15.8813 7.13964C18.0509 9.98763 19.5153 13.1533 20.5598 16.5774C21.1871 18.6662 21.5262 20.8144 21.5532 22.9814C21.6582 29.4661 19.4347 35.033 14.9554 39.6604C14.2285 40.3927 13.4398 41.0684 12.6 41.6712C12.1558 41.6712 11.9458 41.332 11.7628 41.0171C11.429 40.4356 11.2082 39.7976 11.1086 39.1354C10.9498 38.3493 10.8475 37.5659 10.8986 36.7585V36.3923C10.8635 36.309 10.4732 0.315692 10.6293 0.129944Z" fill="#599636"/>
<path d="M10.6293 0.0518861C10.5781 -0.0531023 10.5243 0.024966 10.4704 0.0788062C10.4974 0.603748 10.3116 1.07216 10.0263 1.51903C9.71129 1.96321 9.29403 2.3051 8.87407 2.67121C6.55102 4.68199 4.72045 7.11557 3.25615 9.83435C1.30459 13.4926 0.300475 17.4147 0.017814 21.5468C-0.111402 23.0355 0.488914 28.29 0.960015 29.8056C2.24141 33.8327 4.54024 37.2056 7.52283 40.1317C8.25506 40.837 9.03844 41.4912 9.84589 42.121C10.0828 42.121 10.107 41.911 10.1609 41.7548C10.2658 41.421 10.3439 41.0818 10.3978 40.7373L10.9227 36.8178L10.6293 0.0518861Z" fill="#6CAC48"/>
<path d="M11.9107 43.2595C11.9618 42.6592 12.2499 42.1639 12.5648 41.6659C12.2499 41.5366 12.0157 41.2755 11.8326 40.9875C11.6738 40.7129 11.5446 40.4248 11.4423 40.1233C11.0761 39.0277 10.9981 37.873 10.8931 36.7531V36.0747C10.7639 36.1797 10.7343 37.0681 10.7343 37.2C10.6589 38.3871 10.5001 39.5634 10.2632 40.729C10.1851 41.2001 10.1339 41.6712 9.8432 42.0885C9.8432 42.1397 9.8432 42.1935 9.87012 42.2716C10.3412 43.658 10.4704 45.0684 10.5485 46.5086V47.0336C10.5485 47.6608 10.5216 47.5289 11.0438 47.7389C11.2538 47.817 11.488 47.8439 11.698 48C11.8568 48 11.8811 47.8708 11.8811 47.7631L11.803 46.899V44.4925C11.7788 44.0725 11.8568 43.6553 11.9107 43.2595Z" fill="#C2BFBF"/>
</svg>
