<svg width="1440" height="80" viewBox="0 0 1440 80" fill="none" xmlns="http://www.w3.org/2000/svg">
<path fill-rule="evenodd" clip-rule="evenodd" d="M720 32H709.2C698.4 32 676.2 32 654.6 28.8C633 25.6 610.8 19.2 589.2 12.8C567 6.4 545.4 0 523.8 8C501.6 16 480 38.4 458.4 38.4C436.2 38.4 414.6 16 393 6.4C370.8 -3.2 349.2 0 327 8C305.4 16 283.8 28.8 261.6 30.4C240 32 218.4 22.4 196.2 14.4C174.6 6.4 153 0 130.8 0C109.2 0 87 6.4 65.4 8C43.8 9.6 35.4 -0.933333 10.8 1.2L0 3.2V80H10.8C21.6 80 43.8 80 65.4 80C87 80 109.2 80 130.8 80C153 80 174.6 80 196.2 80C218.4 80 240 80 261.6 80C283.8 80 305.4 80 327 80C349.2 80 370.8 80 393 80C414.6 80 436.2 80 458.4 80C480 80 501.6 80 523.8 80C545.4 80 567 80 589.2 80C610.8 80 633 80 654.6 80C676.2 80 698.4 80 709.2 80H720V32Z" fill="#916DDE"/>
<path fill-rule="evenodd" clip-rule="evenodd" d="M720 32H730.8C741.6 32 763.8 32 785.4 28.8C807 25.6 829.2 19.2 850.8 12.8C873 6.4 894.6 0 916.2 8C938.4 16 960 38.4 981.6 38.4C1003.8 38.4 1025.4 16 1047 6.4C1069.2 -3.2 1090.8 0 1113 8C1134.6 16 1156.2 28.8 1178.4 30.4C1200 32 1221.6 22.4 1243.8 14.4C1265.4 6.4 1287 0 1309.2 0C1330.8 0 1353 6.4 1374.6 8C1396.2 9.6 1404.6 -0.933333 1429.2 1.2L1440 3.2V80H1429.2C1418.4 80 1396.2 80 1374.6 80C1353 80 1330.8 80 1309.2 80C1287 80 1265.4 80 1243.8 80C1221.6 80 1200 80 1178.4 80C1156.2 80 1134.6 80 1113 80C1090.8 80 1069.2 80 1047 80C1025.4 80 1003.8 80 981.6 80C960 80 938.4 80 916.2 80C894.6 80 873 80 850.8 80C829.2 80 807 80 785.4 80C763.8 80 741.6 80 730.8 80H720V32Z" fill="#916DDE"/>
</svg>
