<svg width="47" height="48" viewBox="0 0 47 48" fill="none" xmlns="http://www.w3.org/2000/svg">
<g clip-path="url(#clip0_27_403)">
<path d="M35.3927 35.1065C35.7008 32.5278 35.6102 32.1478 37.5312 32.564L38.0205 32.6092C39.4974 32.6726 41.4365 32.374 42.5782 31.8401C45.0247 30.7091 46.4835 28.809 44.0642 29.3067C38.5551 30.4377 38.1745 28.5828 38.1745 28.5828C43.9917 19.9691 46.4201 9.02997 44.327 6.35174C38.6004 -0.950051 28.6966 2.49726 28.5244 2.58774L28.47 2.59679C27.3827 2.37059 26.1595 2.23487 24.7912 2.21677C22.2994 2.17153 20.4056 2.86823 18.974 3.954C18.974 3.954 1.29576 -3.32064 2.12032 13.1016C2.29248 16.5942 7.13112 39.531 12.903 32.6002C15.0143 30.0667 17.053 27.9223 17.053 27.9223C18.0679 28.5919 19.273 28.9357 20.5506 28.809L20.6503 28.7276C20.6231 29.0443 20.6322 29.3519 20.6865 29.7138C19.2096 31.3696 19.6445 31.6682 16.6725 32.2745C13.6642 32.8897 15.4311 33.9936 16.5819 34.2831C17.9773 34.636 21.2121 35.1246 23.4049 32.0754L23.3143 32.4283C23.8942 32.8897 23.8579 35.7761 23.9395 37.839C24.021 39.902 24.1569 41.8202 24.5828 42.9512C24.9996 44.0822 25.498 47.0047 29.4033 46.1632C32.6744 45.4575 35.1662 44.4532 35.3927 35.1065Z" fill="black" stroke="black" stroke-width="3.74"/>
<path d="M44.0642 29.3067C38.5551 30.4377 38.1745 28.5828 38.1745 28.5828C43.9917 19.9691 46.4201 9.02092 44.327 6.35174C38.6004 -0.950052 28.6966 2.50631 28.5244 2.58774L28.47 2.59679C27.3827 2.37059 26.1595 2.23487 24.7912 2.21677C22.2994 2.17153 20.4056 2.86823 18.974 3.954C18.974 3.954 1.29576 -3.32065 2.12032 13.1016C2.29248 16.5942 7.13112 39.531 12.903 32.6002C15.0143 30.0667 17.053 27.9223 17.053 27.9223C18.0679 28.5919 19.273 28.9357 20.5506 28.809L20.6503 28.7276C20.6231 29.0443 20.6322 29.3519 20.6865 29.7139C19.2096 31.3696 19.6445 31.6682 16.6725 32.2745C13.6642 32.8897 15.4311 33.9936 16.5819 34.2831C17.9773 34.636 21.2121 35.1246 23.4049 32.0754L23.3143 32.4283C23.8942 32.8897 24.3019 35.4594 24.2385 37.7847C24.166 40.1101 24.1207 41.7025 24.5828 42.9512C25.0449 44.1998 25.498 47.0047 29.4033 46.1632C32.6653 45.4665 34.3598 43.6569 34.5954 40.6349C34.7585 38.4905 35.139 38.8072 35.1662 36.889L35.4652 35.9842C35.8186 33.0707 35.5196 32.1387 37.5312 32.573L38.0205 32.6183C39.4974 32.6816 41.4365 32.383 42.5782 31.8492C45.0338 30.7001 46.4835 28.809 44.0642 29.3067Z" fill="#336791"/>
<path d="M23.6405 30.9715C23.4864 36.3823 23.6767 41.8383 24.2113 43.1683C24.7459 44.4893 25.8786 47.068 29.7839 46.2356C33.0459 45.5389 34.2329 44.1817 34.7494 41.1958C35.13 38.9972 35.8639 32.8988 35.9545 31.6501M18.9559 3.82733C18.9559 3.82733 1.26858 -3.39302 2.09315 13.0292C2.26531 16.5218 7.10394 39.4586 12.8759 32.5278C14.9871 29.9943 16.8899 28.0038 16.8899 28.0038M28.5154 2.51536C27.8992 2.70537 38.3557 -1.30292 44.2908 6.27936C46.3929 8.95759 43.9555 19.8967 38.1383 28.5105" stroke="white" stroke-width="1.25" stroke-linecap="round" stroke-linejoin="round"/>
<path d="M38.1383 28.5105C38.1383 28.5105 38.5189 30.3744 44.028 29.2343C46.4383 28.7367 44.9885 30.6277 42.542 31.7678C40.5304 32.6997 36.027 32.935 35.9546 31.6501C35.7643 28.3385 38.3286 29.3429 38.1383 28.5105ZM38.1383 28.5105C37.9752 27.7595 36.8244 27.0266 36.0724 25.1898C35.4109 23.5883 27.0022 11.3191 38.4011 13.1378C38.8179 13.0473 35.429 2.30725 24.7641 2.13534C14.0992 1.96343 14.4525 15.2279 14.4525 15.2279" stroke="white" stroke-width="1.25" stroke-linecap="round" stroke-linejoin="bevel"/>
<path d="M20.6503 29.6505C19.1643 31.3063 19.5992 31.5958 16.6272 32.2111C13.6189 32.8264 15.3858 33.9303 16.5366 34.2198C17.932 34.5727 21.1668 35.0613 23.3596 32.0121C24.0211 31.0801 23.3596 29.5962 22.4444 29.2162C22.0004 29.0262 21.4115 28.8 20.6503 29.6505Z" stroke="white" stroke-width="1.25" stroke-linecap="round" stroke-linejoin="round"/>
<path d="M20.5597 29.6143C20.4057 28.6371 20.8768 27.479 21.3843 26.1218C22.1454 24.086 23.8942 22.0501 22.4897 15.5898C21.4477 10.7762 14.4525 14.5855 14.4434 15.2369C14.4434 15.8884 14.7606 18.5485 14.3256 21.643C13.7639 25.6784 16.899 29.0895 20.5144 28.7457" stroke="white" stroke-width="1.25" stroke-linecap="round" stroke-linejoin="round"/>
<path d="M18.8924 15.1465C18.8653 15.3727 19.3002 15.9608 19.871 16.0422C20.4419 16.1237 20.9312 15.6532 20.9674 15.436C20.9946 15.2098 20.5597 14.9655 19.9888 14.8841C19.418 14.8026 18.9196 14.9203 18.8924 15.1465Z" fill="white" stroke="white" stroke-width="0.42"/>
<path d="M36.3532 14.685C36.3804 14.9112 35.9455 15.4993 35.3746 15.5808C34.8038 15.6622 34.3145 15.1917 34.2782 14.9746C34.2511 14.7484 34.686 14.5041 35.2659 14.4226C35.8277 14.3502 36.317 14.4679 36.3532 14.685Z" fill="white" stroke="white" stroke-width="0.21"/>
<path d="M38.401 13.1469C38.4917 14.8931 38.0205 16.0875 37.9661 17.9514C37.8755 20.6567 39.2619 23.7512 37.1778 26.8547" stroke="white" stroke-width="1.25" stroke-linecap="round" stroke-linejoin="round"/>
</g>
<defs>
<clipPath id="clip0_27_403">
<rect width="47" height="48" fill="white"/>
</clipPath>
</defs>
</svg>
