<svg width="100" height="100" viewBox="0 0 100 100" fill="none" xmlns="http://www.w3.org/2000/svg">
<rect width="100" height="100" rx="8" fill="#5F0F40"/>
<path d="M86.4072 75.636C85.9893 74.9692 63.458 39.0188 62.6521 37.7328V15.3029H63.3999C64.8766 15.3029 66.0738 14.1158 66.0738 12.6515C66.0738 11.1871 64.8766 10 63.3999 10C62.3014 10 38.4087 10 37.2928 10C35.816 10 34.6188 11.1871 34.6188 12.6515C34.6188 14.1158 35.816 15.3029 37.2928 15.3029H38.0408V37.733C37.7874 38.1371 15.0994 74.3375 14.2856 75.636C10.3676 81.8876 14.9124 90 22.3385 90H78.3543C85.7772 90 90.327 81.8902 86.4072 75.636ZM42.9858 39.8894C43.2491 39.4692 43.3886 38.9843 43.3886 38.4897V15.3029H57.3042V38.4897C57.3042 38.9843 57.4438 39.4692 57.7071 39.8894L64.9713 51.4801H35.7214L42.9858 39.8894ZM78.3543 84.6971H22.3383C19.1018 84.6971 17.1191 81.1609 18.8278 78.4352L35.7214 51.4801H64.9713L81.8649 78.4352C83.573 81.1604 81.5918 84.6971 78.3543 84.6971Z" fill="#A8C256"/>
<path d="M40.2711 67.931C42.8029 65.5575 46.2366 64.2241 49.8171 64.2241C53.3975 64.2241 56.8313 65.5575 59.363 67.931" stroke="#FFB800" stroke-width="3" stroke-linecap="round" stroke-linejoin="round"/>
<path d="M32.8466 60.9706C37.3474 56.751 43.4519 54.3805 49.8171 54.3805C56.1823 54.3805 62.2868 56.751 66.7877 60.9706" stroke="#FFB800" stroke-width="3" stroke-linecap="round" stroke-linejoin="round"/>
<path d="M50.8778 75.8861C51.4636 75.3369 51.4636 74.4465 50.8778 73.8974C50.292 73.3482 49.3422 73.3482 48.7565 73.8974C48.1707 74.4465 48.1707 75.3369 48.7565 75.8861C49.3422 76.4353 50.292 76.4353 50.8778 75.8861Z" stroke="#FFB800" stroke-width="3" stroke-linecap="round" stroke-linejoin="round"/>
</svg>
