<svg width="100" height="100" viewBox="0 0 100 100" fill="none" xmlns="http://www.w3.org/2000/svg">
<circle cx="50" cy="50" r="50" fill="url(#paint0_linear_81_58)"/>
<rect x="37.5" y="47.5" width="15" height="25.5" fill="#B9C9CC"/>
<path d="M57.5 10.25L73.75 19.75L86 26.75L28.75 27L57.5 10.25Z" fill="#8AA5AA"/>
<rect x="28" y="28" width="9" height="44" fill="#8AA5AA"/>
<rect x="53" y="28" width="34" height="44" fill="#8AA5AA"/>
<rect x="33" y="28" width="24" height="19" fill="#8AA5AA"/>
<rect x="62.5" y="42.5" width="15" height="15" fill="#B9C9CC"/>
<rect x="37.5" y="36.5" width="15" height="7" rx="2" fill="#747578"/>
<path d="M38.9403 42V38.3636H40.169C40.4543 38.3636 40.6875 38.4151 40.8686 38.5181C41.0509 38.6199 41.1858 38.7578 41.2734 38.9318C41.361 39.1058 41.4048 39.3 41.4048 39.5142C41.4048 39.7285 41.361 39.9232 41.2734 40.0984C41.187 40.2736 41.0533 40.4132 40.8722 40.5174C40.6911 40.6204 40.459 40.6719 40.1761 40.6719H39.2955V40.2812H40.1619C40.3572 40.2812 40.5141 40.2475 40.6325 40.18C40.7508 40.1126 40.8366 40.0214 40.8899 39.9066C40.9444 39.7906 40.9716 39.6598 40.9716 39.5142C40.9716 39.3686 40.9444 39.2384 40.8899 39.1236C40.8366 39.0088 40.7502 38.9188 40.6307 38.8537C40.5111 38.7874 40.3525 38.7543 40.1548 38.7543H39.3807V42H38.9403ZM42.4764 38.3636V42H42.0574V38.3636H42.4764ZM44.0464 42.0639C43.8736 42.0639 43.7168 42.0314 43.5759 41.9663C43.435 41.9 43.3232 41.8047 43.2403 41.6804C43.1575 41.5549 43.116 41.4034 43.116 41.2259C43.116 41.0696 43.1468 40.9429 43.2084 40.8459C43.2699 40.7476 43.3522 40.6707 43.4552 40.6151C43.5581 40.5594 43.6718 40.518 43.7961 40.4908C43.9215 40.4624 44.0476 40.4399 44.1743 40.4233C44.34 40.402 44.4743 40.386 44.5773 40.3754C44.6815 40.3635 44.7573 40.344 44.8046 40.3168C44.8531 40.2895 44.8774 40.2422 44.8774 40.1747V40.1605C44.8774 39.9853 44.8295 39.8492 44.7336 39.7521C44.6389 39.6551 44.4951 39.6065 44.3021 39.6065C44.1021 39.6065 43.9452 39.6503 43.8316 39.7379C43.718 39.8255 43.6381 39.919 43.5919 40.0185L43.1942 39.8764C43.2652 39.7107 43.3599 39.5817 43.4782 39.4893C43.5978 39.3958 43.728 39.3307 43.8689 39.294C44.0109 39.2562 44.1506 39.2372 44.2879 39.2372C44.3755 39.2372 44.4761 39.2479 44.5898 39.2692C44.7046 39.2893 44.8153 39.3313 44.9218 39.3952C45.0295 39.4592 45.1189 39.5556 45.1899 39.6847C45.2609 39.8137 45.2964 39.9865 45.2964 40.2031V42H44.8774V41.6307H44.8561C44.8277 41.6899 44.7803 41.7532 44.714 41.8207C44.6478 41.8881 44.5596 41.9455 44.4495 41.9929C44.3394 42.0402 44.205 42.0639 44.0464 42.0639ZM44.1104 41.6875C44.2761 41.6875 44.4157 41.6549 44.5294 41.5898C44.6442 41.5247 44.7306 41.4407 44.7886 41.3377C44.8478 41.2347 44.8774 41.1264 44.8774 41.0128V40.6293C44.8596 40.6506 44.8206 40.6701 44.7602 40.6879C44.701 40.7044 44.6324 40.7192 44.5542 40.7322C44.4773 40.7441 44.4021 40.7547 44.3287 40.7642C44.2565 40.7725 44.1979 40.7796 44.153 40.7855C44.0441 40.7997 43.9423 40.8228 43.8476 40.8548C43.7541 40.8855 43.6783 40.9323 43.6203 40.995C43.5635 41.0566 43.5351 41.1406 43.5351 41.2472C43.5351 41.3928 43.5889 41.5028 43.6966 41.5774C43.8055 41.6508 43.9434 41.6875 44.1104 41.6875ZM47.1692 42.0568C46.9135 42.0568 46.6934 41.9964 46.5087 41.8757C46.324 41.755 46.182 41.5887 46.0826 41.3768C45.9831 41.1649 45.9334 40.9228 45.9334 40.6506C45.9334 40.3736 45.9843 40.1291 46.0861 39.9173C46.1891 39.7042 46.3323 39.5379 46.5158 39.4183C46.7005 39.2976 46.9159 39.2372 47.1621 39.2372C47.3539 39.2372 47.5267 39.2727 47.6806 39.3438C47.8345 39.4148 47.9605 39.5142 48.0588 39.642C48.157 39.7699 48.218 39.919 48.2417 40.0895H47.8226C47.7907 39.9652 47.7196 39.8551 47.6096 39.7592C47.5007 39.6622 47.3539 39.6136 47.1692 39.6136C47.0059 39.6136 46.8626 39.6562 46.7395 39.7415C46.6176 39.8255 46.5223 39.9445 46.4537 40.0984C46.3862 40.2511 46.3525 40.4304 46.3525 40.6364C46.3525 40.8471 46.3856 41.0305 46.4519 41.1868C46.5194 41.343 46.6141 41.4644 46.736 41.5508C46.8591 41.6372 47.0035 41.6804 47.1692 41.6804C47.2781 41.6804 47.377 41.6615 47.4657 41.6236C47.5545 41.5857 47.6297 41.5312 47.6912 41.4602C47.7528 41.3892 47.7966 41.304 47.8226 41.2045H48.2417C48.218 41.3655 48.1594 41.5105 48.0659 41.6396C47.9735 41.7674 47.851 41.8692 47.6983 41.945C47.5468 42.0195 47.3704 42.0568 47.1692 42.0568ZM49.9977 42.0568C49.7349 42.0568 49.5082 41.9988 49.3176 41.8828C49.1283 41.7656 48.9821 41.6023 48.8791 41.3928C48.7773 41.1821 48.7264 40.937 48.7264 40.6577C48.7264 40.3783 48.7773 40.1321 48.8791 39.919C48.9821 39.7048 49.1253 39.5379 49.3088 39.4183C49.4934 39.2976 49.7089 39.2372 49.9551 39.2372C50.0971 39.2372 50.2374 39.2609 50.3759 39.3082C50.5144 39.3556 50.6404 39.4325 50.7541 39.5391C50.8677 39.6444 50.9583 39.7841 51.0257 39.9581C51.0932 40.1321 51.127 40.3464 51.127 40.6009V40.7784H49.0247V40.4162H50.7008C50.7008 40.2623 50.67 40.125 50.6085 40.0043C50.5481 39.8835 50.4617 39.7882 50.3493 39.7184C50.238 39.6486 50.1066 39.6136 49.9551 39.6136C49.7882 39.6136 49.6438 39.6551 49.5218 39.7379C49.4011 39.8196 49.3082 39.9261 49.2431 40.0575C49.178 40.1889 49.1454 40.3298 49.1454 40.4801V40.7216C49.1454 40.9276 49.1809 41.1022 49.252 41.2454C49.3242 41.3874 49.4242 41.4957 49.552 41.5703C49.6799 41.6437 49.8284 41.6804 49.9977 41.6804C50.1078 41.6804 50.2072 41.665 50.296 41.6342C50.3859 41.6023 50.4635 41.5549 50.5286 41.4922C50.5937 41.4283 50.644 41.349 50.6795 41.2543L51.0843 41.3679C51.0417 41.5052 50.9701 41.6259 50.8695 41.7301C50.7689 41.8331 50.6446 41.9136 50.4966 41.9716C50.3487 42.0284 50.1824 42.0568 49.9977 42.0568Z" fill="white"/>
<path d="M27.25 72.5045L27.25 27.5045" stroke="#99BFC6" stroke-width="2" stroke-linecap="round"/>
<path d="M23 29.5L57.641 9.5" stroke="#99BFC6" stroke-width="2" stroke-linecap="round"/>
<path d="M92.141 29.5L57.5 9.5" stroke="#99BFC6" stroke-width="2" stroke-linecap="round"/>
<path d="M87.5 72.5V27.5" stroke="#99BFC6" stroke-width="2" stroke-linecap="round"/>
<path d="M27.5 27.5L87.5 27.5" stroke="#99BFC6" stroke-width="2" stroke-linecap="round"/>
<path d="M62.5 57.5045V42.5045" stroke="#8C9A9E" stroke-linecap="round"/>
<path d="M77.5 57.5V42.5" stroke="#8C9A9E" stroke-linecap="round"/>
<path d="M62.5 42.5H77.5" stroke="#8C9A9E" stroke-linecap="round"/>
<path d="M62.5 57.5H77.5" stroke="#8C9A9E" stroke-linecap="round"/>
<path d="M27.5 72.5H37.5" stroke="#99BFC6" stroke-width="2" stroke-linecap="round"/>
<path d="M52.5 72.5L87.5 72.5" stroke="#99BFC6" stroke-width="2" stroke-linecap="round"/>
<path d="M37.5 47.5H52.5" stroke="#99BFC6" stroke-width="2" stroke-linecap="round"/>
<path d="M37.5 72.5V47.5" stroke="#99BFC6" stroke-width="2" stroke-linecap="round"/>
<path d="M52.5 72.5V47.5" stroke="#99BFC6" stroke-width="2" stroke-linecap="round"/>
<circle cx="70" cy="50" r="4.5" stroke="black"/>
<circle cx="68.25" cy="48.75" r="0.75" fill="black"/>
<circle cx="71.75" cy="48.75" r="0.75" fill="black"/>
<path d="M67 51.5C68.75 53.5 71.5 53.5 73 51.5" stroke="black" stroke-width="0.5" stroke-linecap="round"/>
<line x1="70" y1="54.75" x2="70" y2="57.25" stroke="black"/>
<path d="M76.1118 53.7236C76.2353 53.6619 76.2854 53.5117 76.2236 53.3882C76.1619 53.2647 76.0117 53.2146 75.8882 53.2764L76 53.5L76.1118 53.7236ZM70 56.5L70.1118 56.7236L76.1118 53.7236L76 53.5L75.8882 53.2764L69.8882 56.2764L70 56.5Z" fill="black"/>
<path d="M63.8882 53.7236C63.7647 53.6619 63.7146 53.5117 63.7764 53.3882C63.8381 53.2647 63.9883 53.2146 64.1118 53.2764L64 53.5L63.8882 53.7236ZM70 56.5L69.8882 56.7236L63.8882 53.7236L64 53.5L64.1118 53.2764L70.1118 56.2764L70 56.5Z" fill="black"/>
<line x1="64.7728" y1="54.2408" x2="64.7728" y2="56.068" stroke="#83AB63" stroke-width="0.5"/>
<path d="M63.3213 55.5045C63.7216 55.2547 64.3636 55.2533 64.7118 55.3647C65.0601 55.4762 64.9796 55.6112 65.5887 55.4412C66.1977 55.2712 66.0455 55.4588 66.0455 55.4588L65.4364 57.1337H63.9137L63.3213 55.5045Z" fill="#554348"/>
<circle cx="64.6751" cy="53.1749" r="0.456797" fill="white"/>
<path d="M65.5841 52.3614C65.7545 52.5317 65.8705 52.7488 65.9175 52.9851C65.9645 53.2214 65.9403 53.4663 65.8481 53.6889C65.756 53.9115 65.5998 54.1017 65.3995 54.2356C65.1992 54.3694 64.9637 54.4408 64.7227 54.4408C64.4818 54.4408 64.2463 54.3694 64.046 54.2356C63.8457 54.1017 63.6895 53.9115 63.5973 53.6889C63.5052 53.4663 63.481 53.2214 63.528 52.9851C63.575 52.7488 63.691 52.5317 63.8614 52.3614L64.7227 53.2227L65.5841 52.3614Z" fill="#E6FFFF"/>
<line x1="63.9136" y1="57.0361" x2="65.4362" y2="57.0361" stroke="#99BFC6" stroke-width="0.5"/>
<line x1="65.2065" y1="57.1877" x2="66.1201" y2="55.0559" stroke="#99BFC6" stroke-width="0.5"/>
<line y1="-0.25" x2="2.31924" y2="-0.25" transform="matrix(-0.393919 -0.919145 -0.919145 0.393919 63.9136 57.2861)" stroke="#99BFC6" stroke-width="0.5"/>
<line x1="75.2728" y1="54.2408" x2="75.2728" y2="56.068" stroke="#83AB63" stroke-width="0.5"/>
<path d="M73.8213 55.5045C74.2216 55.2547 74.8636 55.2533 75.2118 55.3647C75.5601 55.4762 75.4796 55.6112 76.0887 55.4412C76.6977 55.2712 76.5455 55.4588 76.5455 55.4588L75.9364 57.1337H74.4137L73.8213 55.5045Z" fill="#554348"/>
<circle cx="75.1751" cy="53.1749" r="0.456797" fill="white"/>
<path d="M76.0841 52.3614C76.2545 52.5317 76.3705 52.7488 76.4175 52.9851C76.4645 53.2214 76.4403 53.4663 76.3481 53.6889C76.256 53.9115 76.0998 54.1017 75.8995 54.2356C75.6992 54.3694 75.4637 54.4408 75.2227 54.4408C74.9818 54.4408 74.7463 54.3694 74.546 54.2356C74.3457 54.1017 74.1895 53.9115 74.0973 53.6889C74.0052 53.4663 73.981 53.2214 74.028 52.9851C74.075 52.7488 74.191 52.5317 74.3614 52.3614L75.2227 53.2227L76.0841 52.3614Z" fill="#D35252"/>
<line x1="74.4136" y1="57.0361" x2="75.9362" y2="57.0361" stroke="#99BFC6" stroke-width="0.5"/>
<line x1="75.7065" y1="57.1877" x2="76.6201" y2="55.0559" stroke="#99BFC6" stroke-width="0.5"/>
<line y1="-0.25" x2="2.31924" y2="-0.25" transform="matrix(-0.393919 -0.919145 -0.919145 0.393919 74.4136 57.2861)" stroke="#99BFC6" stroke-width="0.5"/>
<path d="M2.5 62.5045L2.5 52.5045" stroke="#554348" stroke-width="2" stroke-linecap="round"/>
<path d="M17.5 62.5V52.5" stroke="#554348" stroke-width="2" stroke-linecap="round"/>
<path d="M2.5 52.5H17.5" stroke="#554348" stroke-width="2" stroke-linecap="round"/>
<path d="M2.5 62.5H17.5" stroke="#554348" stroke-width="2" stroke-linecap="round"/>
<line x1="9.5" y1="72" x2="9.5" y2="62" stroke="#554348" stroke-width="2"/>
<line x1="8.5" y1="72" x2="10.5" y2="72" stroke="#554348" stroke-width="2"/>
<rect x="3" y="53" width="14" height="9" fill="#5A4E51"/>
<path d="M4.94034 59V55.3636H6.16903C6.45431 55.3636 6.6875 55.4151 6.86861 55.5181C7.0509 55.6199 7.18584 55.7578 7.27344 55.9318C7.36103 56.1058 7.40483 56.3 7.40483 56.5142C7.40483 56.7285 7.36103 56.9232 7.27344 57.0984C7.18703 57.2736 7.05327 57.4132 6.87216 57.5174C6.69105 57.6204 6.45904 57.6719 6.17614 57.6719H5.29545V57.2812H6.16193C6.35724 57.2812 6.51409 57.2475 6.63246 57.18C6.75083 57.1126 6.83665 57.0214 6.88991 56.9066C6.94437 56.7906 6.97159 56.6598 6.97159 56.5142C6.97159 56.3686 6.94437 56.2384 6.88991 56.1236C6.83665 56.0088 6.75024 55.9188 6.63068 55.8537C6.51113 55.7874 6.35251 55.7543 6.15483 55.7543H5.38068V59H4.94034ZM8.05735 59V56.2727H8.46218V56.6847H8.49059C8.54031 56.5497 8.63027 56.4402 8.76048 56.3562C8.89068 56.2721 9.03746 56.2301 9.20082 56.2301C9.23159 56.2301 9.27006 56.2307 9.31623 56.2319C9.36239 56.2331 9.39731 56.2348 9.42099 56.2372V56.6634C9.40678 56.6598 9.37423 56.6545 9.32333 56.6474C9.27362 56.6391 9.22094 56.6349 9.16531 56.6349C9.03273 56.6349 8.91436 56.6628 8.81019 56.7184C8.70721 56.7728 8.62553 56.8486 8.56516 56.9457C8.50598 57.0415 8.47638 57.151 8.47638 57.2741V59H8.05735ZM10.9426 59.0568C10.6964 59.0568 10.4804 58.9982 10.2946 58.881C10.1099 58.7638 9.96549 58.5999 9.86133 58.3892C9.75835 58.1785 9.70685 57.9323 9.70685 57.6506C9.70685 57.3665 9.75835 57.1185 9.86133 56.9066C9.96549 56.6947 10.1099 56.5302 10.2946 56.413C10.4804 56.2958 10.6964 56.2372 10.9426 56.2372C11.1889 56.2372 11.4043 56.2958 11.589 56.413C11.7748 56.5302 11.9192 56.6947 12.0222 56.9066C12.1264 57.1185 12.1784 57.3665 12.1784 57.6506C12.1784 57.9323 12.1264 58.1785 12.0222 58.3892C11.9192 58.5999 11.7748 58.7638 11.589 58.881C11.4043 58.9982 11.1889 59.0568 10.9426 59.0568ZM10.9426 58.6804C11.1297 58.6804 11.2836 58.6325 11.4043 58.5366C11.525 58.4407 11.6144 58.3146 11.6724 58.1584C11.7304 58.0021 11.7594 57.8329 11.7594 57.6506C11.7594 57.4683 11.7304 57.2984 11.6724 57.141C11.6144 56.9835 11.525 56.8563 11.4043 56.7592C11.2836 56.6622 11.1297 56.6136 10.9426 56.6136C10.7556 56.6136 10.6017 56.6622 10.481 56.7592C10.3603 56.8563 10.2709 56.9835 10.2129 57.141C10.1549 57.2984 10.1259 57.4683 10.1259 57.6506C10.1259 57.8329 10.1549 58.0021 10.2129 58.1584C10.2709 58.3146 10.3603 58.4407 10.481 58.5366C10.6017 58.6325 10.7556 58.6804 10.9426 58.6804ZM12.8181 60.0227V56.2727H13.2229V56.706H13.2726C13.3034 56.6586 13.346 56.5982 13.4005 56.5249C13.4561 56.4503 13.5354 56.384 13.6384 56.326C13.7426 56.2668 13.8834 56.2372 14.061 56.2372C14.2906 56.2372 14.493 56.2946 14.6682 56.4094C14.8434 56.5243 14.9801 56.687 15.0784 56.8977C15.1766 57.1084 15.2258 57.357 15.2258 57.6435C15.2258 57.9323 15.1766 58.1826 15.0784 58.3945C14.9801 58.6052 14.844 58.7686 14.67 58.8846C14.496 58.9994 14.2954 59.0568 14.0681 59.0568C13.8929 59.0568 13.7526 59.0278 13.6473 58.9698C13.5419 58.9106 13.4608 58.8437 13.404 58.7692C13.3472 58.6934 13.3034 58.6307 13.2726 58.581H13.2371V60.0227H12.8181ZM13.23 57.6364C13.23 57.8423 13.2602 58.024 13.3206 58.1815C13.3809 58.3377 13.4691 58.4602 13.5851 58.549C13.7011 58.6366 13.8432 58.6804 14.0113 58.6804C14.1865 58.6804 14.3327 58.6342 14.4498 58.5419C14.5682 58.4484 14.657 58.3229 14.7162 58.1655C14.7765 58.0069 14.8067 57.8305 14.8067 57.6364C14.8067 57.4446 14.7771 57.2718 14.718 57.1179C14.6599 56.9628 14.5718 56.8403 14.4534 56.7504C14.3362 56.6592 14.1888 56.6136 14.0113 56.6136C13.8408 56.6136 13.6976 56.6568 13.5816 56.7433C13.4656 56.8285 13.378 56.948 13.3188 57.1019C13.2596 57.2546 13.23 57.4328 13.23 57.6364Z" fill="white"/>
<path d="M5.6355 73H94.4026L93.8661 74H50.009H6.15182L5.6355 73Z" fill="#83AB63"/>
<defs>
<linearGradient id="paint0_linear_81_58" x1="50" y1="0" x2="50" y2="100" gradientUnits="userSpaceOnUse">
<stop stop-color="#E6FFFF"/>
<stop offset="0.734241" stop-color="#E6FFFF"/>
<stop offset="0.736585" stop-color="#83AB63"/>
<stop offset="1" stop-color="#83AB63"/>
</linearGradient>
</defs>
</svg>
