<svg width="48" height="43" viewBox="0 0 48 43" fill="none" xmlns="http://www.w3.org/2000/svg">
<g clip-path="url(#clip0_27_308)">
<path d="M24 25.8077C26.3628 25.8077 28.2783 23.8791 28.2783 21.5C28.2783 19.1209 26.3628 17.1923 24 17.1923C21.6372 17.1923 19.7217 19.1209 19.7217 21.5C19.7217 23.8791 21.6372 25.8077 24 25.8077Z" fill="#61DAFB"/>
<path d="M24 30.3255C36.6785 30.3255 46.9565 26.3742 46.9565 21.5C46.9565 16.6258 36.6785 12.6745 24 12.6745C11.3214 12.6745 1.04346 16.6258 1.04346 21.5C1.04346 26.3742 11.3214 30.3255 24 30.3255Z" stroke="#61DAFB" stroke-width="2"/>
<path d="M16.4091 25.9127C22.7483 36.9682 31.2859 43.9547 35.4782 41.5176C39.6706 39.0805 37.9301 28.1427 31.5909 17.0873C25.2516 6.03183 16.714 -0.954708 12.5217 1.48238C8.32937 3.91947 10.0698 14.8573 16.4091 25.9127Z" stroke="#61DAFB" stroke-width="2"/>
<path d="M16.4091 17.0873C10.0698 28.1427 8.32939 39.0805 12.5217 41.5176C16.7141 43.9547 25.2516 36.9682 31.5909 25.9127C37.9302 14.8573 39.6706 3.91948 35.4783 1.48239C31.2859 -0.954702 22.7484 6.03184 16.4091 17.0873Z" stroke="#61DAFB" stroke-width="2"/>
</g>
<defs>
<clipPath id="clip0_27_308">
<rect width="48" height="43" fill="white"/>
</clipPath>
</defs>
</svg>
