<svg width="48" height="41" viewBox="0 0 48 41" fill="none" xmlns="http://www.w3.org/2000/svg">
<g clip-path="url(#clip0_35_592)">
<path d="M46.1193 31.4849C43.5578 32.812 30.288 38.235 27.4629 39.6987C24.6379 41.1629 23.0685 41.1487 20.8368 40.0882C18.6051 39.0278 4.48364 33.3583 1.93994 32.1498C0.668458 31.5458 0 31.0361 0 30.5545V25.7322C0 25.7322 18.3842 21.7542 21.3522 20.6959C24.3201 19.6376 25.3499 19.5993 27.8756 20.5189C30.4015 21.4386 45.5037 24.1469 48 25.0557C48 25.0557 47.9989 29.3627 47.9989 29.8098C47.9993 30.2865 47.4232 30.8095 46.1193 31.4849Z" fill="#912626"/>
<path d="M46.1184 26.691C43.557 28.0176 30.2876 33.4407 27.4626 34.9044C24.6377 36.3687 23.0683 36.3543 20.8367 35.2939C18.6049 34.2343 4.48409 28.5638 1.94046 27.356C-0.603158 26.1474 -0.656595 25.3157 1.84222 24.3432C4.34084 23.3704 18.3842 17.8941 21.3525 16.8357C24.3203 15.7778 25.3498 15.7392 27.8754 16.6591C30.4013 17.5786 43.5915 22.797 46.0875 23.7055C48.584 24.6151 48.6799 25.3639 46.1184 26.691Z" fill="#C6302B"/>
<path d="M46.1193 23.682C43.5578 25.0092 30.288 30.4322 27.4629 31.8965C24.6379 33.36 23.0685 33.3459 20.8368 32.2854C18.6049 31.2255 4.48364 25.5554 1.93994 24.347C0.668458 23.743 0 23.2338 0 22.7522V17.9294C0 17.9294 18.3842 13.9515 21.3522 12.8931C24.3201 11.8349 25.3499 11.7965 27.8756 12.7161C30.4015 13.6358 45.5037 16.3436 48 17.2525C48 17.2525 47.9989 21.5595 47.9989 22.0071C47.9993 22.4837 47.4232 23.0066 46.1193 23.682Z" fill="#912626"/>
<path d="M46.1184 18.8882C43.557 20.2151 30.2876 25.6379 27.4626 27.1021C24.6377 28.5658 23.0683 28.5515 20.8367 27.4911C18.6049 26.4314 4.48409 20.7611 1.94046 19.5531C-0.603158 18.3449 -0.656595 17.513 1.84222 16.5402C4.34084 15.5679 18.3842 10.0912 21.3525 9.03307C24.3203 7.9749 25.3498 7.93651 27.8754 8.85622C30.4013 9.77573 43.5915 14.9937 46.0875 15.9026C48.584 16.8119 48.6799 17.5613 46.1184 18.8882Z" fill="#C6302B"/>
<path d="M46.1193 15.5898C43.5578 16.9169 30.288 22.3401 27.4629 23.8044C24.6379 25.2681 23.0685 25.2538 20.8368 24.1933C18.6049 23.1335 4.48364 17.4632 1.93994 16.2551C0.668458 15.6509 0 15.1416 0 14.6604V9.8373C0 9.8373 18.3842 5.85962 21.3522 4.80141C24.3201 3.74302 25.3499 3.70482 27.8756 4.62436C30.4015 5.5441 45.5037 8.25186 48 9.16078C48 9.16078 47.9989 13.4678 47.9989 13.9153C47.9993 14.3914 47.4232 14.9144 46.1193 15.5898Z" fill="#912626"/>
<path d="M46.1184 10.7959C43.557 12.1228 30.2876 17.546 27.4626 19.0099C24.6377 20.4736 23.0683 20.4592 20.8367 19.3992C18.6051 18.3392 4.48409 12.6693 1.94046 11.4611C-0.603158 10.2529 -0.656595 9.42075 1.84222 8.44812C4.34084 7.47568 18.3842 1.99957 21.3525 0.941029C24.3203 -0.117329 25.3498 -0.155347 27.8754 0.764357C30.4013 1.68406 43.5915 6.90205 46.0875 7.81095C48.584 8.71965 48.6799 9.46902 46.1184 10.7959Z" fill="#C6302B"/>
<path d="M29.8656 6.10472L25.7389 6.53059L24.815 8.74L23.3227 6.27448L18.5575 5.84879L22.1132 4.57433L21.0464 2.61789L24.3754 3.91195L27.5138 2.89064L26.6656 4.91366L29.8656 6.10472Z" fill="white"/>
<path d="M24.5685 16.8239L16.8665 13.6489L27.903 11.9652L24.5685 16.8239Z" fill="white"/>
<path d="M13.8903 7.33276C17.1482 7.33276 19.7891 8.35037 19.7891 9.60542C19.7891 10.8606 17.1482 11.8781 13.8903 11.8781C10.6326 11.8781 7.99152 10.8606 7.99152 9.60542C7.99152 8.35037 10.6326 7.33276 13.8903 7.33276Z" fill="white"/>
<path d="M34.7428 6.70868L41.2745 9.27424L34.7484 11.8372L34.7428 6.70868Z" fill="#621B1C"/>
<path d="M27.5165 9.54977L34.7428 6.70868L34.7484 11.8372L34.0399 12.1128L27.5165 9.54977Z" fill="#9A2928"/>
</g>
<defs>
<clipPath id="clip0_35_592">
<rect width="48" height="41" fill="white"/>
</clipPath>
</defs>
</svg>
