<svg width="100" height="100" viewBox="0 0 100 100" fill="none" xmlns="http://www.w3.org/2000/svg">
<rect width="100" height="100" rx="8" fill="#09157D"/>
<line x1="10.5265" y1="37.8823" x2="10.5265" y2="86.5211" stroke="#EFDB29" stroke-linecap="round"/>
<line x1="10" y1="74.8739" x2="89.9735" y2="74.8739" stroke="#EFDB29"/>
<line x1="89.1495" y1="75.3195" x2="89.1495" y2="87.0758" stroke="#EFDB29" stroke-linecap="round"/>
<line x1="0.5" y1="-0.5" x2="15.5841" y2="-0.5" transform="matrix(-0.0016749 -0.999999 0.999998 -0.00183674 90 75.6513)" stroke="#EFDB29" stroke-linecap="round"/>
<line x1="37.5967" y1="75.3739" x2="37.5967" y2="51.2478" stroke="#EFDB29"/>
<line x1="47.1299" y1="75.3739" x2="47.1299" y2="51.2478" stroke="#EFDB29"/>
<line x1="10.0265" y1="59.3445" x2="38.0967" y2="59.3445" stroke="#EFDB29"/>
<path d="M26.3124 51.1091L80.9699 51.2478" stroke="#EFDB29" stroke-linecap="square"/>
<path d="M81.6749 51.2479C82.4055 57.7079 84.5032 58.5126 89.2262 59.9791" stroke="#EFDB29" stroke-linecap="round"/>
<path d="M26.4448 51.1091C22.3402 51.2478 21.5458 56.5167 22.4726 59.7058" stroke="#EFDB29"/>
<path d="M10.1472 48.6952C15.3228 48.6952 18.5005 54.437 16.382 59.7059" stroke="#EFDB29"/>
<path d="M18.7649 42.042C21.3922 42.042 23.5616 44.2791 23.5618 47.0879C23.5618 49.8968 21.3923 52.1348 18.7649 52.1348C16.1376 52.1346 13.969 49.8967 13.969 47.0879C13.9692 44.2792 16.1377 42.0422 18.7649 42.042Z" stroke="#EFDB29"/>
<line x1="25.3857" y1="35.773" x2="30.4171" y2="35.773" stroke="#EFDB29"/>
<line x1="25.3857" y1="40.4873" x2="30.4171" y2="40.4873" stroke="#EFDB29"/>
<line y1="-0.5" x2="6.89493" y2="-0.5" transform="matrix(0.729732 -0.683734 0.649593 0.760282 25.3857 40.9873)" stroke="#EFDB29"/>
<line x1="43.3929" y1="23.5713" x2="50.278" y2="23.5713" stroke="#EFDB29"/>
<line x1="43.3929" y1="29.9495" x2="50.278" y2="29.9495" stroke="#EFDB29"/>
<line y1="-0.5" x2="9.38541" y2="-0.5" transform="matrix(0.7336 -0.679582 0.645315 0.763917 43.3929 30.4495)" stroke="#EFDB29"/>
<line x1="33.8596" y1="29.9495" x2="40.2151" y2="29.9495" stroke="#EFDB29"/>
<line x1="33.8596" y1="35.773" x2="40.2151" y2="35.773" stroke="#EFDB29"/>
<line y1="-0.5" x2="8.6201" y2="-0.5" transform="matrix(0.73729 -0.675577 0.641194 0.767379 33.8596 36.273)" stroke="#EFDB29"/>
<path d="M73.225 15.3535C73.7806 16.1443 74.1987 17.0643 74.4762 18.0393C74.9954 19.8632 75.0405 21.9232 74.559 23.7865C74.0772 25.6503 73.0579 27.3522 71.4197 28.3951C70.2288 29.1532 68.7501 29.5352 66.9867 29.414C67.3815 29.6054 67.8377 29.7866 68.3492 29.9354C69.9841 30.4109 72.1742 30.5586 74.7082 29.7016C76.6616 28.8345 77.6922 27.3716 78.14 25.7636C78.5946 24.131 78.449 22.3367 78.0068 20.8815C77.4078 18.9101 75.654 16.6273 73.225 15.3535Z" stroke="#EFDB29"/>
</svg>
