<svg width="48" height="48" viewBox="0 0 48 48" fill="none" xmlns="http://www.w3.org/2000/svg">
<path d="M16.6312 0.0375061C12.5625 0.0375061 9.2625 3.33751 9.2625 7.40626V20.3063H3.7125C2.7 20.3063 1.875 21.1313 1.875 22.1438V33.2063C1.875 34.2188 2.7 35.0438 3.7125 35.0438H9.24375V40.575C9.24375 44.6438 12.5437 47.9438 16.6125 47.9438H38.7375C42.8062 47.9438 46.1062 44.6438 46.1062 40.575V14.775C46.1062 12.825 44.2875 10.9313 41.0812 7.78126L39.7125 6.41251L38.3437 5.04376C35.2125 1.85626 33.3375 0.0375061 31.3687 0.0375061H16.6312ZM16.6312 3.71251H30.075C31.4062 4.05001 31.3875 5.68126 31.3875 7.31251V12.9375C31.3875 13.95 32.2125 14.775 33.225 14.775H38.7562C40.5937 14.775 42.45 14.775 42.45 16.6125V40.575C42.45 42.6 40.7812 44.2688 38.7562 44.2688H16.6312C14.6062 44.2688 12.9375 42.6 12.9375 40.575V35.0625H31.3687C32.3812 35.0625 33.2062 34.2375 33.2062 33.225V22.1625C33.2062 21.15 32.3812 20.325 31.3687 20.325H12.9375V7.40626C12.9375 5.38126 14.5875 3.71251 16.6312 3.71251ZM12.1875 23.7C12.9937 23.7 13.7062 23.85 14.3437 24.15L13.9875 25.0125C13.35 24.75 12.75 24.6 12.1875 24.6C11.7 24.6 11.3437 24.7125 11.1 24.9188C10.8562 25.125 10.7437 25.4063 10.7437 25.7813C10.7437 26.1938 10.8375 26.5125 11.0062 26.7188C11.2125 26.9063 11.7187 27.1688 12.4875 27.525C13.2937 27.8625 13.8187 28.2 14.0625 28.5563C14.325 28.8938 14.475 29.3063 14.475 29.8125C14.475 30.5063 14.2312 31.05 13.7625 31.4813C13.2937 31.9125 12.6 32.1188 11.7 32.1188C10.8375 32.1188 10.1437 32.0063 9.6375 31.7625V30.75C10.35 31.05 11.0437 31.2 11.7 31.2C12.3 31.2 12.7312 31.0875 13.0125 30.8813C13.3125 30.675 13.4625 30.3375 13.4625 29.8875C13.4625 29.5313 13.35 29.2313 13.1437 28.9875C12.9937 28.8375 12.4312 28.5563 11.475 28.125C10.8375 27.825 10.3875 27.4875 10.125 27.1313C9.8625 26.775 9.7125 26.3063 9.7125 25.7438C9.7125 25.1063 9.91875 24.6188 10.35 24.2625C10.8 23.8875 11.4187 23.7 12.1875 23.7ZM16.1437 23.775H17.175V27.2438H20.9062V23.775H21.9937V32.0063H20.9062V28.1813H17.175V32.0063H16.1437V23.775Z" fill="black"/>
</svg>
