<svg width="48" height="48" viewBox="0 0 48 48" fill="none" xmlns="http://www.w3.org/2000/svg">
<g clip-path="url(#clip0_27_324)">
<path d="M43.6331 2.82113C42.9467 4.49006 42.059 5.96963 41.0766 7.29534C36.7444 2.88028 30.6839 0.0750008 23.9963 0.0750008C10.8577 0.0750008 0.121887 10.7516 0.121887 23.9376C0.121887 30.8265 3.0692 37.0288 7.7447 41.4083L8.63242 42.2015C12.7633 45.6932 18.1372 47.8119 23.9844 47.8119C36.5313 47.8119 46.8646 38.0231 47.7523 25.6658C48.4626 19.6645 46.6396 11.9827 43.6331 2.82113ZM11.2011 41.6096C10.5145 42.4974 9.23607 42.5921 8.34845 41.9055C7.46064 41.219 7.36595 39.9407 8.05248 39.0529C8.73901 38.1652 10.0174 38.0704 10.9051 38.757C11.7455 39.4435 11.8876 40.7219 11.2011 41.6096ZM43.4913 34.4722C37.6321 42.2962 25.038 39.6447 17.0128 40.0353C17.0128 40.0353 15.5806 40.13 14.1602 40.3313C14.1602 40.3313 14.7047 40.0827 15.3911 39.8341C21.049 37.8693 23.7124 37.4668 27.1568 35.7032C33.6077 32.4008 40.0468 25.1685 41.337 17.6878C38.875 24.8726 31.3943 31.075 24.6 33.5844C19.9246 35.3125 11.5088 36.9815 11.5088 36.9815L11.1655 36.7803C5.46029 33.975 5.25911 21.5703 15.6989 17.5813C20.2797 15.8059 24.6119 16.7882 29.5833 15.6164C34.8505 14.3855 40.9583 10.4438 43.4084 5.28309C46.1426 13.6043 49.4924 26.4943 43.4913 34.4722Z" fill="#6CB52D"/>
<path d="M11.201 41.6096C10.5144 42.4974 9.23598 42.5921 8.34835 41.9055C7.46054 41.219 7.36585 39.9407 8.05238 39.0529C8.73891 38.1652 10.0173 38.0704 10.905 38.757C11.7454 39.4435 11.8875 40.7219 11.201 41.6096ZM43.4912 34.4722C37.632 42.2962 25.0379 39.6447 17.0127 40.0353C17.0127 40.0353 15.5805 40.13 14.1601 40.3313C14.1601 40.3313 14.7046 40.0827 15.391 39.8341C21.0489 37.8693 23.7123 37.4668 27.1567 35.7032C33.6076 32.4008 40.0467 25.1685 41.3369 17.6878C38.8749 24.8726 31.3942 31.075 24.5999 33.5844C19.9245 35.3125 11.5087 36.9815 11.5087 36.9815L11.1654 36.7803C5.46019 33.975 5.25901 21.5703 15.6988 17.5813C20.2796 15.8059 24.6118 16.7882 29.5832 15.6164C34.8504 14.3855 40.9582 10.4438 43.4083 5.28309C46.1425 13.6043 49.4923 26.4943 43.4912 34.4722Z" fill="white"/>
</g>
<defs>
<clipPath id="clip0_27_324">
<rect width="48" height="48" fill="white"/>
</clipPath>
</defs>
</svg>
