<svg width="43" height="48" viewBox="0 0 43 48" fill="none" xmlns="http://www.w3.org/2000/svg">
<path d="M33.7859 2.12936H3.66999C2.69749 2.13208 1.76558 2.51961 1.07791 3.20728C0.390244 3.89495 0.00271399 4.82685 0 5.79936V39.0127C0.00271399 39.9852 0.390244 40.9171 1.07791 41.6048C1.76558 42.2925 2.69749 42.68 3.66999 42.6827H23.5061C23.2799 32.8126 26.6516 13.6587 33.7859 2.12936Z" fill="#0F80CC"/>
<path d="M32.6923 3.20071H3.67C2.98107 3.20162 2.32062 3.4757 1.83348 3.96284C1.34633 4.44999 1.07226 5.11044 1.07135 5.79936V36.5889C8.51699 33.7807 16.3766 32.2261 24.3306 31.9881C26.4344 22.2069 29.2286 12.587 32.6923 3.20071Z" fill="url(#paint0_linear_35_586)"/>
<path d="M40.8105 1.04259C38.7535 -0.796692 36.2508 -0.0578937 33.7825 2.12936C33.4173 2.45505 33.0522 2.81502 32.6888 3.2007C28.0454 8.69245 24.8346 15.2489 23.3433 22.2843C23.8036 23.2886 24.1675 24.3344 24.43 25.4075C24.4918 25.6475 24.5483 25.8738 24.6015 26.0657C24.7077 26.52 24.7729 26.8148 24.7729 26.8148C24.7729 26.8148 24.7352 26.6726 24.5792 26.2217L24.478 25.9303C24.4609 25.884 24.4386 25.8292 24.4129 25.7692C24.1386 25.1298 23.3844 23.7808 23.0416 23.198C22.7553 24.043 22.5016 24.8333 22.2908 25.5481C23.0025 27.0788 23.5252 28.6906 23.8472 30.3477C23.8472 30.3477 23.7958 30.1506 23.5541 29.4649C23.0897 28.4635 22.5748 27.4863 22.0114 26.5371C21.647 27.4775 21.4926 28.4861 21.5589 29.4923C21.9364 30.245 22.2202 31.0412 22.4039 31.863C22.9765 34.0622 23.3741 36.7415 23.3741 36.7415C23.3741 36.7415 23.3878 36.9129 23.4084 37.1923C23.3332 39.0241 23.3704 40.8589 23.5198 42.6861C23.6048 44.4954 23.9418 46.2839 24.5209 48L24.8294 47.8286C24.1112 45.2493 23.8342 42.5671 24.0101 39.8955C24.3328 34.2315 25.4511 28.6411 27.3321 23.2888C30.7775 14.1901 35.56 6.88784 39.9311 3.40469C35.944 7.0044 30.5479 18.6606 28.9314 22.9768C27.2293 27.4209 25.936 32.011 25.0677 36.69C26.1011 34.0787 28.1244 31.9815 30.697 30.8551C30.697 30.8551 32.8105 28.2479 35.2806 24.5247C33.6848 24.8575 32.1083 25.277 30.5581 25.7812C29.3582 26.2852 29.0343 26.4566 29.0343 26.4566C31.3248 25.0771 33.7447 23.9249 36.2594 23.0163C40.8465 15.7911 45.8449 5.53195 40.8122 1.03402" fill="#003B57"/>
<defs>
<linearGradient id="paint0_linear_35_586" x1="16.8451" y1="3.954" x2="16.8451" y2="34.8062" gradientUnits="userSpaceOnUse">
<stop stop-color="#97D9F6"/>
<stop offset="0.92" stop-color="#0F80CC"/>
<stop offset="1" stop-color="#0F80CC"/>
</linearGradient>
</defs>
</svg>
