<svg width="48" height="48" viewBox="0 0 48 48" fill="none" xmlns="http://www.w3.org/2000/svg">
<g clip-path="url(#clip0_27_373)">
<path d="M4.6896 0H43.3152C45.9024 0 48.0048 2.0976 48.0048 4.6896V43.3152C48.0048 45.9024 45.9072 48.0048 43.3152 48.0048H4.6896C2.0976 48 0 45.9024 0 43.3104V4.6896C0 2.0976 2.0976 0 4.6896 0Z" fill="#3178C6"/>
<path fill-rule="evenodd" clip-rule="evenodd" d="M29.7168 38.1552V42.8448C30.4752 43.2384 31.4064 43.5312 32.4336 43.728C33.4608 43.9248 34.5888 44.0208 35.7168 44.0208C36.8448 44.0208 37.872 43.92 38.904 43.704C39.936 43.488 40.7808 43.1328 41.5296 42.672C42.288 42.1728 42.936 41.5488 43.3104 40.704C43.6848 39.8592 43.9776 38.9232 43.9776 37.704C43.9776 36.8496 43.848 36.1104 43.5936 35.4528C43.3392 34.7952 42.9744 34.2336 42.4704 33.7632C41.9904 33.264 41.4384 32.8272 40.7808 32.4528C40.1232 32.0784 39.3744 31.6848 38.5296 31.3296C37.9104 31.0752 37.4064 30.8304 36.84 30.5904C36.3504 30.3456 35.9328 30.1008 35.6208 29.8608C35.2752 29.6064 35.0112 29.3472 34.824 29.0736C34.6368 28.7904 34.5408 28.4832 34.5408 28.1376C34.5408 27.8208 34.6224 27.528 34.7952 27.264C34.9632 27 35.1984 26.784 35.496 26.5968C35.7984 26.4096 36.1728 26.2704 36.6192 26.1648C37.0608 26.064 37.5456 26.016 38.1216 26.016C38.5152 26.016 38.928 26.0448 39.3408 26.1024C39.7728 26.16 40.2144 26.2512 40.6512 26.376C41.0928 26.496 41.5248 26.6496 41.9616 26.8368C42.3744 27.024 42.7584 27.24 43.0848 27.4848V23.0784C42.3744 22.8048 41.5824 22.5984 40.7424 22.4688C39.8976 22.3392 38.9616 22.272 37.8384 22.272C36.7152 22.272 35.6832 22.392 34.6512 22.6272C33.6192 22.8624 32.7744 23.2368 32.0256 23.7504C31.2672 24.2544 30.7152 24.8736 30.2448 25.7184C29.8032 26.5056 29.5872 27.408 29.5872 28.5312C29.5872 29.9376 29.9904 31.1568 30.8064 32.0928C31.6128 33.1248 32.8704 33.8736 34.464 34.6224C35.112 34.8864 35.6832 35.1456 36.2448 35.4C36.8064 35.6544 37.2768 35.9136 37.6512 36.1872C38.0544 36.4608 38.3712 36.7584 38.5872 37.08C38.8224 37.3968 38.9424 37.776 38.9424 38.2032C38.9424 38.5056 38.8704 38.784 38.7264 39.048C38.5824 39.312 38.3616 39.5376 38.0592 39.7248C37.7568 39.912 37.392 40.0608 36.936 40.176C36.4944 40.2768 36 40.3344 35.3424 40.3344C34.3104 40.3344 33.2784 40.1568 32.3424 39.8016C31.3104 39.4464 30.3744 38.9088 29.5296 38.208L29.7168 38.1552ZM21.8448 26.6256H27.8448V22.7808H11.064V26.6256H17.064V43.7808H21.8448V26.6256Z" fill="white"/>
</g>
<defs>
<clipPath id="clip0_27_373">
<rect width="48" height="48" fill="white"/>
</clipPath>
</defs>
</svg>
